<?xml version="1.0" encoding="UTF-8" standalone="no"?>
<!DOCTYPE svg PUBLIC "-//W3C//DTD SVG 1.1//EN" "http://www.w3.org/Graphics/SVG/1.1/DTD/svg11.dtd">
<svg xmlns="http://www.w3.org/2000/svg" version="1.1" viewBox="0.00 0.00 150.00 150.00">
<g stroke-width="2.00" fill="none" stroke-linecap="butt">
<path stroke="#d48f8f" vector-effect="non-scaling-stroke" d="
  M 30.82 48.00
  L 31.59 51.22"
/>
<path stroke="#818080" vector-effect="non-scaling-stroke" d="
  M 31.59 51.22
  Q 31.71 51.39 31.82 51.55"
/>
<path stroke="#e7a4a4" vector-effect="non-scaling-stroke" d="
  M 31.82 51.55
  Q 30.73 51.38 30.86 51.63"
/>
<path stroke="#b48586" vector-effect="non-scaling-stroke" d="
  M 30.86 51.63
  Q 30.00 51.32 29.38 51.88
  Q 21.43 59.13 12.56 69.26
  A 0.82 0.82 0.0 0 0 12.40 70.03
  Q 12.56 70.54 12.96 70.83
  Q 13.39 71.15 13.58 71.65
  L 19.87 88.48"
/>
<path stroke="#e19999" vector-effect="non-scaling-stroke" d="
  M 19.87 88.48
  Q 16.09 93.22 14.13 97.85"
/>
<path stroke="#b48586" vector-effect="non-scaling-stroke" d="
  M 14.13 97.85
  Q 12.29 101.08 12.99 102.59
  Q 13.23 103.12 13.80 103.17
  L 17.75 103.54"
/>
<path stroke="#bb8888" vector-effect="non-scaling-stroke" d="
  M 17.75 103.54
  L 18.22 104.55"
/>
<path stroke="#b48586" vector-effect="non-scaling-stroke" d="
  M 18.22 104.55
  L 21.62 112.48
  Q 21.84 113.00 22.40 113.00
  L 127.81 113.00
  Q 128.12 113.00 128.23 112.70
  L 131.50 103.27"
/>
<path stroke="#d48f8f" vector-effect="non-scaling-stroke" d="
  M 131.50 103.27
  Q 132.02 103.05 132.29 102.75"
/>
<path stroke="#bb8888" vector-effect="non-scaling-stroke" d="
  M 132.29 102.75
  L 135.72 102.42
  Q 136.46 102.35 136.16 101.67
  L 134.51 97.91"
/>
<path stroke="#e7a4a4" vector-effect="non-scaling-stroke" d="
  M 134.51 97.91
  L 130.84 90.39"
/>
<path stroke="#bb8888" vector-effect="non-scaling-stroke" d="
  M 130.84 90.39
  L 136.38 72.44"
/>
<path stroke="#818080" vector-effect="non-scaling-stroke" d="
  M 136.38 72.44
  L 137.93 69.19
  Q 138.15 68.72 137.81 68.31
  C 133.21 62.79 127.93 57.51 123.04 52.22
  Q 121.08 50.10 118.43 50.68
  A 0.61 0.60 86.1 0 1 117.71 50.04
  L 118.51 38.80"
/>
<path stroke="#e19999" vector-effect="non-scaling-stroke" d="
  M 118.51 38.80
  Q 119.03 38.00 118.42 37.11
  Q 118.14 36.70 117.64 36.73
  L 110.74 37.24"
/>
<path stroke="#d48f8f" vector-effect="non-scaling-stroke" d="
  M 110.74 37.24
  Q 93.44 38.15 76.20 36.45
  Q 75.70 36.40 75.27 36.13
  C 73.97 35.32 72.84 36.14 71.77 36.18
  Q 65.25 36.42 58.74 36.46
  C 51.32 36.52 41.71 35.65 33.05 35.77"
/>
<path stroke="#b48586" vector-effect="non-scaling-stroke" d="
  M 33.05 35.77
  Q 31.27 35.37 31.12 36.82
  Q 30.54 42.40 30.82 48.00"
/>
<path stroke="#891515" vector-effect="non-scaling-stroke" d="
  M 33.05 35.77
  Q 31.58 40.97 32.06 46.83
  Q 32.10 47.32 31.67 47.55
  L 30.82 48.00"
/>
<path stroke="#b62828" vector-effect="non-scaling-stroke" d="
  M 110.74 37.24
  Q 110.91 38.34 110.49 38.37
  Q 105.23 38.67 99.83 38.81
  Q 99.08 38.83 99.15 39.58
  L 99.64 44.65
  Q 99.71 45.39 100.37 45.72
  Q 102.48 46.78 104.34 45.36
  A 0.62 0.59 -61.5 0 1 104.74 45.23
  L 109.97 45.44
  Q 110.54 45.47 110.96 45.86
  L 112.85 47.67
  Q 113.23 48.03 113.73 48.20
  Q 114.84 48.56 114.88 50.43"
/>
<path stroke="#891515" vector-effect="non-scaling-stroke" d="
  M 114.88 50.43
  Q 111.73 47.53 109.31 47.47
  Q 107.08 47.41 106.15 49.55
  Q 105.95 50.02 105.51 49.75
  C 103.53 48.50 100.58 49.98 99.87 47.71
  Q 99.72 47.23 99.24 47.36
  Q 93.35 48.88 88.18 45.73
  Q 87.77 45.48 87.28 45.51
  Q 84.69 45.68 81.75 45.02
  Q 80.22 44.68 79.41 45.79
  Q 79.11 46.21 78.64 46.41
  L 77.20 47.02
  A 0.50 0.50 0.0 0 1 76.51 46.61
  L 76.29 44.48"
/>
<path stroke="#560f10" vector-effect="non-scaling-stroke" d="
  M 76.29 44.48
  L 76.01 39.00"
/>
<path stroke="#891515" vector-effect="non-scaling-stroke" d="
  M 76.01 39.00
  Q 76.25 37.42 74.53 37.86
  A 1.28 1.27 0.7 0 0 73.61 38.75
  Q 72.54 42.63 73.20 45.87"
/>
<path stroke="#560f10" vector-effect="non-scaling-stroke" d="
  M 73.20 45.87
  L 73.44 50.74"
/>
<path stroke="#891515" vector-effect="non-scaling-stroke" d="
  M 73.44 50.74
  Q 70.56 49.96 68.07 48.37
  C 65.22 46.55 65.03 43.55 60.79 42.99
  Q 59.33 42.80 55.86 43.88
  Q 51.27 45.30 46.47 44.84
  C 43.85 44.60 41.71 42.77 38.46 43.00
  Q 37.96 43.04 37.62 43.40
  Q 34.68 46.49 33.36 49.97"
/>
<path stroke="#560f10" vector-effect="non-scaling-stroke" d="
  M 33.36 49.97
  Q 32.68 50.77 31.59 51.22"
/>
<path stroke="#350607" vector-effect="non-scaling-stroke" d="
  M 76.29 44.48
  L 75.82 51.21
  Q 75.79 51.75 76.32 51.75
  L 114.99 51.82"
/>
<path stroke="#3d0809" vector-effect="non-scaling-stroke" d="
  M 136.38 72.44
  L 127.05 71.79
  Q 126.48 71.75 126.51 72.31
  Q 126.73 76.30 124.78 79.47"
/>
<path stroke="#682425" vector-effect="non-scaling-stroke" d="
  M 124.78 79.47
  C 119.80 84.57 110.75 83.46 107.91 76.51"
/>
<path stroke="#490c0d" vector-effect="non-scaling-stroke" d="
  M 107.91 76.51
  Q 107.38 72.13 111.80 71.91
  Q 112.75 71.87 111.94 71.36
  L 110.89 70.69
  Q 110.51 70.45 110.29 70.06
  Q 108.92 67.64 105.87 68.67
  Q 105.37 68.84 105.04 69.26
  Q 101.76 73.45 96.51 74.16
  Q 96.20 74.20 96.26 74.51
  Q 96.36 75.07 96.84 74.99
  Q 99.22 74.60 102.23 72.95
  A 1.75 1.74 33.1 0 1 103.19 72.75
  Q 107.32 73.16 107.11 76.65"
/>
<path stroke="#682425" vector-effect="non-scaling-stroke" d="
  M 107.11 76.65
  Q 106.11 78.77 104.75 79.81"
/>
<path stroke="#63191a" vector-effect="non-scaling-stroke" d="
  M 104.75 79.81
  C 97.56 83.67 89.46 84.11 85.82 75.65
  Q 85.50 74.90 85.22 75.66
  L 84.07 78.74
  A 1.26 1.25 85.7 0 1 83.53 79.37
  Q 80.48 81.13 75.89 82.32
  Q 74.92 82.57 75.57 84.21"
/>
<path stroke="#818080" vector-effect="non-scaling-stroke" d="
  M 75.57 84.21
  L 73.73 83.72"
/>
<path stroke="#63191a" vector-effect="non-scaling-stroke" d="
  M 73.73 83.72
  Q 73.93 83.29 73.88 83.03
  Q 73.83 82.80 73.41 82.73
  C 66.34 81.54 61.63 76.23 62.85 68.84
  Q 62.97 68.15 62.27 68.20
  L 61.48 68.26
  A 0.69 0.67 1.5 0 0 60.86 68.83
  Q 60.38 71.72 60.68 74.67
  C 61.04 78.07 64.12 80.75 59.45 83.61"
/>
<path stroke="#818080" vector-effect="non-scaling-stroke" d="
  M 59.45 83.61
  L 56.80 83.78"
/>
<path stroke="#63191a" vector-effect="non-scaling-stroke" d="
  M 56.80 83.78
  Q 56.89 82.54 56.05 82.19
  C 51.38 80.25 53.08 72.08 52.67 68.32
  Q 52.60 67.71 51.87 67.82
  A 0.55 0.55 0.0 0 0 51.40 68.46
  Q 51.89 71.34 49.50 72.20
  Q 48.93 72.40 49.09 72.99
  C 49.68 75.12 50.77 78.57 49.61 80.52
  C 47.44 84.16 43.30 82.76 42.73 78.80
  Q 42.23 75.26 40.75 72.85"
/>
<path stroke="#490c0d" vector-effect="non-scaling-stroke" d="
  M 40.75 72.85
  L 32.87 73.00
  A 1.21 1.19 -69.4 0 0 32.00 73.40
  Q 30.85 74.68 30.79 77.06"
/>
<path stroke="#63191a" vector-effect="non-scaling-stroke" d="
  M 30.79 77.06
  Q 28.96 84.49 23.86 81.49"
/>
<path stroke="#350607" vector-effect="non-scaling-stroke" d="
  M 23.86 81.49
  Q 23.34 81.23 23.00 80.49"
/>
<path stroke="#3d0809" vector-effect="non-scaling-stroke" d="
  M 23.00 80.49
  Q 22.34 76.38 24.24 71.80"
/>
<path stroke="#350607" vector-effect="non-scaling-stroke" d="
  M 24.24 71.80
  Q 24.11 70.99 24.57 69.91"
/>
<path stroke="#682425" vector-effect="non-scaling-stroke" d="
  M 24.57 69.91
  L 31.82 51.55"
/>
<path stroke="#350607" vector-effect="non-scaling-stroke" d="
  M 33.36 49.97
  Q 43.09 51.25 53.00 51.05
  Q 53.54 51.03 53.95 50.68
  Q 56.88 48.13 59.87 50.74
  Q 60.25 51.07 60.74 51.09
  L 73.18 51.64
  Q 73.56 51.66 73.72 51.31
  Q 73.93 50.84 73.44 50.74"
/>
<path stroke="#63191a" vector-effect="non-scaling-stroke" d="
  M 118.51 38.80
  C 117.75 39.09 117.32 39.46 117.30 40.35
  Q 117.17 45.73 116.31 51.07
  Q 116.18 51.87 114.99 51.82"
/>
<path stroke="#961f1f" vector-effect="non-scaling-stroke" d="
  M 114.99 51.82
  Q 115.08 50.60 114.88 50.43"
/>
<path stroke="#350607" vector-effect="non-scaling-stroke" d="
  M 76.01 39.00
  L 75.48 38.69
  A 0.71 0.71 0.0 0 0 74.41 39.41
  Q 74.94 42.77 73.20 45.87"
/>
<path stroke="#e19999" vector-effect="non-scaling-stroke" d="
  M 56.80 83.78
  L 48.41 85.31
  Q 47.97 85.39 47.54 85.27
  Q 43.80 84.26 40.44 86.12
  A 0.91 0.91 0.0 0 0 39.97 87.01
  C 40.68 93.28 38.63 97.16 47.64 95.78
  Q 48.24 95.69 48.79 95.93
  Q 51.20 96.99 53.74 96.24
  A 1.85 1.84 -45.3 0 1 54.72 96.23
  Q 58.10 97.17 58.78 93.74
  A 0.41 0.41 0.0 0 1 59.58 93.71
  Q 60.22 96.02 63.21 97.06"
/>
<path stroke="#961f1f" vector-effect="non-scaling-stroke" d="
  M 63.21 97.06
  C 59.69 97.98 56.65 97.08 53.20 97.51
  Q 52.72 97.57 52.32 97.31
  Q 51.26 96.63 50.07 97.20
  Q 49.63 97.41 49.13 97.39
  Q 31.39 96.75 14.13 97.85"
/>
<path stroke="#aa2525" vector-effect="non-scaling-stroke" d="
  M 30.79 77.06
  L 37.75 77.18
  Q 38.26 77.19 38.52 76.74
  L 40.75 72.85"
/>
<path stroke="#c93d3d" vector-effect="non-scaling-stroke" d="
  M 104.75 79.81
  L 105.48 85.74"
/>
<path stroke="#e19999" vector-effect="non-scaling-stroke" d="
  M 105.48 85.74
  Q 102.38 83.07 99.22 85.37
  A 1.73 1.72 43.1 0 1 97.27 85.43
  Q 93.69 83.14 90.90 86.06
  Q 90.55 86.43 90.19 86.07
  Q 86.32 82.20 81.50 85.19
  A 0.63 0.61 -38.8 0 1 80.75 85.12
  Q 78.83 83.31 76.81 84.76
  Q 76.43 85.03 76.10 84.71
  L 75.57 84.21"
/>
<path stroke="#a32c2d" vector-effect="non-scaling-stroke" d="
  M 130.84 90.39
  L 124.78 79.47"
/>
<path stroke="#a32c2d" vector-effect="non-scaling-stroke" d="
  M 134.51 97.91
  L 101.91 96.73"
/>
<path stroke="#e7a4a4" vector-effect="non-scaling-stroke" d="
  M 101.91 96.73
  C 105.22 96.09 108.31 93.01 105.89 89.68
  Q 105.58 89.24 105.82 88.76
  Q 106.59 87.21 105.48 85.74"
/>
<path stroke="#9b2a2a" vector-effect="non-scaling-stroke" d="
  M 30.86 51.63
  Q 21.58 59.78 13.93 69.23
  A 0.66 0.66 0.0 0 0 14.47 70.31
  L 24.57 69.91"
/>
<path stroke="#700e0f" vector-effect="non-scaling-stroke" d="
  M 24.24 71.80
  Q 24.10 71.73 24.02 71.60
  Q 23.89 71.36 23.62 71.37
  L 17.01 71.55
  Q 14.91 71.61 15.68 73.56
  L 19.61 83.56
  A 0.68 0.67 63.2 0 0 20.59 83.89
  Q 22.57 82.65 23.00 80.49"
/>
<path stroke="#961f1f" vector-effect="non-scaling-stroke" d="
  M 23.86 81.49
  L 19.87 88.48"
/>
<path stroke="#af3030" vector-effect="non-scaling-stroke" d="
  M 107.91 76.51
  Q 107.49 76.46 107.11 76.65"
/>
<path stroke="#e19999" vector-effect="non-scaling-stroke" d="
  M 73.73 83.72
  Q 71.27 83.98 68.75 84.20
  Q 68.20 84.25 67.80 84.91
  Q 67.57 85.29 67.18 85.07
  Q 64.78 83.72 62.52 85.20
  A 0.80 0.79 -43.4 0 1 61.62 85.18
  L 59.45 83.61"
/>
<path stroke="#bb8888" vector-effect="non-scaling-stroke" d="
  M 101.91 96.73
  L 98.44 95.44
  Q 97.96 95.26 97.59 95.61
  Q 95.57 97.48 92.77 96.92"
/>
<path stroke="#d48f8f" vector-effect="non-scaling-stroke" d="
  M 92.77 96.92
  Q 91.02 96.58 89.78 95.17
  Q 89.47 94.82 89.03 94.96
  C 87.29 95.51 80.92 97.83 79.28 95.02
  Q 78.97 94.50 78.63 95.00
  Q 77.43 96.75 75.71 96.54"
/>
<path stroke="#818080" vector-effect="non-scaling-stroke" d="
  M 75.71 96.54
  Q 75.26 96.02 74.69 95.87
  Q 74.32 95.77 73.97 95.98
  Q 73.44 96.28 73.53 96.67"
/>
<path stroke="#d48f8f" vector-effect="non-scaling-stroke" d="
  M 73.53 96.67
  Q 70.55 96.82 69.50 94.71
  Q 69.26 94.23 68.93 94.65
  Q 66.89 97.25 63.51 97.03"
/>
<path stroke="#b48586" vector-effect="non-scaling-stroke" d="
  M 63.51 97.03
  Q 62.66 96.88 63.21 97.06"
/>
<path stroke="#901718" vector-effect="non-scaling-stroke" d="
  M 132.29 102.75
  Q 131.61 101.52 130.24 101.60
  Q 108.15 102.94 91.55 103.04
  Q 91.39 103.04 91.31 103.17
  L 91.09 103.55
  Q 90.87 103.92 91.30 103.91
  L 109.71 103.85"
/>
<path stroke="#841415" vector-effect="non-scaling-stroke" d="
  M 109.71 103.85
  L 107.94 110.83"
/>
<path stroke="#700e0f" vector-effect="non-scaling-stroke" d="
  M 107.94 110.83
  C 97.38 110.93 86.98 110.45 76.42 111.15
  Q 75.89 111.18 75.82 110.65
  C 75.60 108.95 76.28 105.67 75.12 104.49
  A 0.71 0.71 0.0 0 0 73.91 104.98
  L 73.80 110.47
  Q 73.79 110.99 73.26 110.98
  C 57.38 110.66 41.67 110.93 25.79 111.25
  C 24.90 111.27 24.00 110.91 22.93 111.01
  Q 22.31 111.07 22.08 110.50
  L 19.68 104.45
  Q 19.51 104.03 19.09 104.20
  L 18.22 104.55"
/>
<path stroke="#700e0f" vector-effect="non-scaling-stroke" d="
  M 17.75 103.54
  L 18.14 103.24
  A 1.44 1.43 -63.0 0 1 18.99 102.96
  Q 33.60 102.99 48.22 103.00
  C 53.39 103.00 60.91 102.33 67.36 102.75
  C 69.74 102.90 71.62 102.33 73.79 101.62"
/>
<path stroke="#3d0809" vector-effect="non-scaling-stroke" d="
  M 73.79 101.62
  Q 74.45 102.66 75.14 102.99
  A 0.41 0.41 0.0 0 0 75.73 102.61
  L 75.62 99.96"
/>
<path stroke="#901718" vector-effect="non-scaling-stroke" d="
  M 92.77 96.92
  Q 90.56 97.34 86.76 97.24
  Q 80.40 97.07 75.62 99.96"
/>
<path stroke="#560f10" vector-effect="non-scaling-stroke" d="
  M 75.62 99.96
  Q 75.26 98.17 75.71 96.54"
/>
<path stroke="#350607" vector-effect="non-scaling-stroke" d="
  M 73.79 101.62
  L 73.70 100.50"
/>
<path stroke="#560f10" vector-effect="non-scaling-stroke" d="
  M 73.53 96.67
  L 73.70 100.50"
/>
<path stroke="#891515" vector-effect="non-scaling-stroke" d="
  M 73.70 100.50
  L 73.29 100.51
  Q 72.80 100.53 72.90 100.05
  Q 73.21 98.54 71.55 98.37
  Q 66.03 97.80 63.51 97.03"
/>
<path stroke="#7c1212" vector-effect="non-scaling-stroke" d="
  M 107.94 110.83
  L 126.83 110.92
  Q 127.41 110.93 127.57 110.37
  L 129.60 103.38"
/>
<path stroke="#891515" vector-effect="non-scaling-stroke" d="
  M 131.50 103.27
  L 129.60 103.38"
/>
<path stroke="#9d1b1b" vector-effect="non-scaling-stroke" d="
  M 129.60 103.38
  L 109.71 103.85"
/>
<path stroke="#444245" vector-effect="non-scaling-stroke" d="
  M 59.52 53.25
  C 59.52 50.22 56.06 49.75 54.30 51.69
  A 1.15 1.15 0.0 0 0 54.00 52.49
  Q 54.02 64.49 53.98 76.51
  C 53.97 80.47 55.90 82.64 59.91 81.91
  A 0.89 0.88 5.5 0 0 60.57 81.37
  Q 61.41 79.14 60.07 77.20
  Q 59.74 76.72 59.73 76.13
  Q 59.48 64.69 59.52 53.25"
/>
<path stroke="#444245" vector-effect="non-scaling-stroke" d="
  M 45.70 66.40
  C 44.71 63.54 36.92 43.96 32.07 53.75
  Q 26.67 64.63 23.75 76.44
  C 22.65 80.86 27.58 84.15 29.16 78.77
  Q 30.07 75.69 30.83 72.52
  A 0.69 0.68 -82.9 0 1 31.49 72.00
  L 41.27 72.00
  A 0.85 0.84 -9.7 0 1 42.07 72.56
  Q 43.17 75.62 43.57 78.85
  C 44.10 82.97 49.28 82.25 49.22 78.49
  Q 49.20 76.80 48.06 72.75
  A 0.82 0.80 66.1 0 1 48.40 71.85
  L 49.44 71.20
  Q 49.97 70.87 50.12 70.26
  Q 50.70 68.00 48.71 67.09
  A 1.13 1.11 -33.0 0 0 48.27 67.00
  L 46.53 67.00
  Q 45.90 67.00 45.70 66.40"
/>
<path stroke="#490c0d" vector-effect="non-scaling-stroke" d="
  M 116.04 53.59
  Q 97.58 53.33 79.22 53.21
  C 77.59 53.20 76.02 53.77 74.30 53.85
  A 0.51 0.51 0.0 0 0 74.16 54.85
  L 75.84 55.41
  A 0.68 0.68 0.0 0 1 76.00 56.62
  Q 75.54 56.93 75.50 57.44
  Q 75.46 57.92 75.93 57.98
  Q 82.83 58.84 84.19 65.58
  A 0.67 0.67 0.0 0 0 85.45 65.75
  C 89.10 58.51 101.93 53.88 105.76 63.81
  Q 105.91 64.18 106.00 65.20
  Q 106.07 66.06 106.63 66.49
  A 0.92 0.92 0.0 0 0 108.11 65.94
  Q 109.88 56.74 118.39 57.00"
/>
<path stroke="#4b1f20" vector-effect="non-scaling-stroke" d="
  M 118.39 57.00
  Q 121.21 57.55 123.21 59.12
  C 126.06 61.35 126.05 64.91 122.06 65.95
  Q 121.60 66.08 121.14 65.94
  Q 120.07 65.63 118.96 65.49
  A 0.10 0.10 0.0 0 0 118.89 65.67
  Q 120.53 66.80 122.44 67.07
  Q 123.04 67.16 123.43 67.63
  L 125.65 70.30
  Q 125.95 70.66 126.42 70.62
  L 131.55 70.18"
/>
<path stroke="#682425" vector-effect="non-scaling-stroke" d="
  M 131.55 70.18
  Q 133.70 70.48 136.13 69.62
  A 0.76 0.76 0.0 0 0 136.43 68.38
  L 126.94 58.25"
/>
<path stroke="#4b1f20" vector-effect="non-scaling-stroke" d="
  M 126.94 58.25
  C 125.64 56.15 118.29 47.19 116.04 53.59"
/>
<path stroke="#b14343" vector-effect="non-scaling-stroke" d="
  M 126.94 58.25
  Q 127.67 60.50 127.29 61.40
  Q 127.11 61.85 127.24 62.31
  Q 128.46 66.47 131.55 70.18"
/>
<path stroke="#922b2b" vector-effect="non-scaling-stroke" d="
  M 118.39 57.00
  Q 118.80 56.31 118.76 55.61
  Q 118.74 55.15 118.35 54.93
  L 116.04 53.59"
/>
<path stroke="#350607" vector-effect="non-scaling-stroke" d="
  M 41.41 55.34
  L 46.35 65.24
  A 0.82 0.80 -10.3 0 0 47.01 65.69
  L 52.01 66.04
  Q 52.48 66.07 52.51 65.61
  L 52.95 59.06"
/>
<path stroke="#490c0d" vector-effect="non-scaling-stroke" d="
  M 52.95 59.06
  L 52.99 53.12
  Q 52.99 52.71 52.58 52.69
  L 39.87 52.27
  A 0.33 0.33 0.0 0 0 39.59 52.79
  L 41.41 55.34"
/>
<path stroke="#7c1212" vector-effect="non-scaling-stroke" d="
  M 52.95 59.06
  Q 51.06 58.79 49.06 57.53
  Q 48.63 57.26 48.47 56.77
  Q 47.97 55.18 46.39 54.26
  Q 45.93 53.99 45.41 54.04
  Q 43.32 54.21 41.41 55.34"
/>
<path stroke="#490c0d" vector-effect="non-scaling-stroke" d="
  M 63.22 66.34
  C 65.62 61.60 68.06 60.07 72.99 58.40
  A 0.62 0.61 69.0 0 0 73.35 57.57
  Q 72.83 56.37 73.30 55.05
  A 1.15 1.15 0.0 0 0 72.45 53.53
  Q 67.00 52.40 61.46 52.97
  A 0.98 0.97 89.0 0 0 60.58 53.89
  Q 60.22 59.37 60.88 64.84
  C 61.02 66.04 61.83 66.62 63.00 66.49
  A 0.30 0.29 9.8 0 0 63.22 66.34"
/>
<path stroke="#444245" vector-effect="non-scaling-stroke" d="
  M 116.11 66.12
  A 1.42 1.42 0.0 0 1 117.44 63.67
  L 121.33 64.89
  A 2.24 2.23 -82.2 0 0 124.23 62.68
  Q 124.13 59.67 121.23 58.73
  Q 112.59 55.94 109.96 63.10
  C 107.60 69.52 114.15 71.58 118.88 72.95
  Q 119.46 73.12 119.48 73.73
  L 119.51 74.95
  A 1.24 1.24 0.0 0 1 118.20 76.22
  C 114.77 76.04 112.63 71.12 109.72 73.46
  A 2.85 2.85 0.0 0 0 109.10 77.22
  C 111.82 81.46 118.95 83.56 122.75 80.01
  C 126.33 76.67 126.28 71.07 121.98 68.25
  C 120.51 67.29 117.46 67.23 116.11 66.12"
/>
<path stroke="#444245" vector-effect="non-scaling-stroke" d="
  M 70.67 74.97
  A 0.37 0.36 58.9 0 1 70.83 74.32
  C 74.28 73.73 78.88 72.41 81.42 69.81
  C 83.97 67.20 83.23 63.17 80.72 60.93
  C 76.94 57.55 70.33 59.54 67.07 62.59
  C 59.62 69.58 64.69 82.61 75.56 81.39
  C 77.67 81.15 86.00 78.66 83.86 74.96
  A 2.73 2.72 -29.6 0 0 80.18 73.95
  C 77.41 75.48 73.56 77.19 70.67 74.97"
/>
<path stroke="#444245" vector-effect="non-scaling-stroke" d="
  M 92.67 74.97
  A 0.36 0.35 58.7 0 1 92.82 74.34
  C 98.13 73.39 107.77 70.46 104.22 62.97
  C 100.40 54.91 88.60 60.66 86.46 66.70
  C 84.07 73.41 87.33 80.47 94.85 81.43
  C 97.96 81.83 105.98 80.03 106.02 75.84
  Q 106.03 74.96 105.42 74.44
  C 102.16 71.69 97.50 78.64 92.67 74.97"
/>
<path stroke="#490c0d" vector-effect="non-scaling-stroke" d="
  M 82.83 73.12
  L 84.47 74.11
  A 0.31 0.30 -76.0 0 0 84.93 73.83
  L 84.68 68.48
  A 0.37 0.37 0.0 0 0 84.01 68.27
  Q 80.92 72.38 76.07 74.02
  Q 75.93 74.06 75.86 74.19
  Q 75.60 74.66 76.49 74.63
  Q 76.79 74.62 77.06 74.49
  L 80.15 73.00
  Q 81.52 72.33 82.83 73.12"
/>
<path stroke="#490c0d" vector-effect="non-scaling-stroke" d="
  M 118.44 74.40
  L 113.82 72.14
  A 0.10 0.10 0.0 0 0 113.69 72.19
  L 113.69 72.20
  A 2.48 1.05 26.0 0 0 115.45 74.23
  L 115.80 74.39
  A 2.48 1.05 26.0 0 0 118.49 74.54
  L 118.49 74.53
  A 0.10 0.10 0.0 0 0 118.44 74.40"
/>
<path stroke="#444245" vector-effect="non-scaling-stroke" d="
  M 32.96 66.61
  A 0.37 0.37 0.0 0 0 33.32 67.12
  L 39.37 66.88
  A 0.37 0.37 0.0 0 0 39.69 66.34
  L 36.39 59.70
  A 0.37 0.37 0.0 0 0 35.72 59.73
  L 32.96 66.61"
/>
<path stroke="#444245" vector-effect="non-scaling-stroke" d="
  M 76.55 64.95
  Q 71.38 64.46 69.16 68.93
  A 0.50 0.50 0.0 0 0 69.70 69.64
  Q 73.55 68.94 76.99 67.05
  A 1.12 1.12 0.0 0 0 76.55 64.95"
/>
<path stroke="#444245" vector-effect="non-scaling-stroke" d="
  M 97.81 64.90
  Q 92.82 64.77 91.17 69.12
  A 0.49 0.48 -89.1 0 0 91.78 69.75
  L 98.39 67.56
  A 0.85 0.85 0.0 0 0 98.92 67.07
  Q 99.82 64.95 97.81 64.90"
/>
<path stroke="#c2c1c4" vector-effect="non-scaling-stroke" d="
  M 57.16 91.07
  L 59.32 90.87
  A 0.69 0.69 0.0 0 0 59.26 89.50
  L 57.38 89.50
  Q 56.75 89.50 56.75 88.88
  L 56.75 88.52
  Q 56.75 88.04 57.23 87.97
  L 59.97 87.57
  A 0.62 0.62 0.0 0 0 59.93 86.33
  L 56.02 86.01
  A 0.72 0.71 1.8 0 0 55.25 86.73
  L 55.26 93.69
  A 0.75 0.75 0.0 0 0 56.65 94.07
  Q 57.37 92.85 56.82 91.64
  A 0.41 0.40 -14.7 0 1 57.16 91.07"
/>
<path stroke="#c2c1c4" vector-effect="non-scaling-stroke" d="
  M 74.66 86.15
  L 69.67 85.93
  Q 68.66 85.89 68.96 86.85
  L 69.15 87.47
  Q 69.32 88.01 69.88 88.00
  Q 70.29 88.00 70.68 88.00
  Q 71.25 88.00 71.25 88.56
  L 71.25 93.96
  A 0.67 0.67 0.0 0 0 72.26 94.54
  Q 73.04 94.08 72.90 92.73
  Q 72.69 90.78 72.75 88.74
  Q 72.77 88.20 73.31 88.10
  L 74.79 87.81
  A 0.84 0.84 0.0 0 0 74.66 86.15"
/>
<path stroke="#c2c1c4" vector-effect="non-scaling-stroke" d="
  M 83.42 88.87
  Q 83.05 91.03 83.53 93.19
  A 1.13 1.13 0.0 0 0 84.72 94.06
  C 93.85 93.24 88.00 82.53 82.82 86.85
  Q 82.42 87.18 82.75 87.59
  L 83.24 88.18
  A 0.87 0.84 31.5 0 1 83.42 88.87"
/>
<path stroke="#c2c1c4" vector-effect="non-scaling-stroke" d="
  M 80.33 92.94
  Q 80.46 93.70 81.34 94.42
  Q 81.88 94.86 82.05 94.18
  C 82.69 91.60 80.54 89.05 79.64 86.77
  A 1.09 1.09 0.0 0 0 77.60 86.82
  L 75.35 93.38
  A 0.86 0.86 0.0 0 0 76.97 93.98
  Q 77.25 93.29 77.28 93.01
  A 1.54 1.54 0.0 0 1 80.33 92.94"
/>
<path stroke="#c2c1c4" vector-effect="non-scaling-stroke" d="
  M 52.36 92.90
  Q 50.76 93.06 49.58 92.12
  A 0.53 0.52 10.4 0 0 48.75 92.69
  C 49.47 94.88 52.74 95.16 54.08 93.23
  A 2.00 1.99 -50.5 0 0 53.84 90.68
  Q 52.59 89.44 50.84 89.45
  A 0.65 0.65 0.0 0 1 50.78 88.16
  L 53.31 87.92
  A 0.56 0.55 53.0 0 0 53.46 86.85
  Q 50.30 85.63 48.73 88.64
  A 0.81 0.81 0.0 0 0 48.83 89.55
  Q 50.04 90.97 51.94 91.05
  A 1.04 0.85 37.9 0 1 52.36 92.90"
/>
<path stroke="#c2c1c4" vector-effect="non-scaling-stroke" d="
  M 63.3521 94.8360
  A 4.24 3.59 107.4 0 0 68.0457 91.8636
  A 4.24 3.59 107.4 0 0 65.8879 86.7440
  A 4.24 3.59 107.4 0 0 61.1943 89.7164
  A 4.24 3.59 107.4 0 0 63.3521 94.8360"
/>
<path stroke="#c2c1c4" vector-effect="non-scaling-stroke" d="
  M 92.8483 94.8650
  A 4.31 3.65 107.3 0 0 97.6149 91.8354
  A 4.31 3.65 107.3 0 0 95.4117 86.6350
  A 4.31 3.65 107.3 0 0 90.6451 89.6646
  A 4.31 3.65 107.3 0 0 92.8483 94.8650"
/>
<path stroke="#c2c1c4" vector-effect="non-scaling-stroke" d="
  M 102.58 91.31
  A 0.77 0.77 0.0 0 1 102.55 92.84
  Q 101.01 92.96 99.74 92.22
  A 0.49 0.49 0.0 0 0 99.10 92.94
  Q 101.07 95.55 103.83 93.79
  A 1.98 1.98 0.0 0 0 104.07 90.63
  Q 102.79 89.51 101.17 89.37
  A 0.57 0.57 0.0 0 1 100.95 88.30
  Q 102.00 87.74 102.98 88.22
  A 0.71 0.71 0.0 0 0 103.79 88.09
  L 104.07 87.81
  A 0.55 0.55 0.0 0 0 103.89 86.91
  Q 100.56 85.52 99.03 88.51
  Q 98.81 88.93 99.09 89.31
  Q 100.36 91.06 102.58 91.31"
/>
<path stroke="#c2c1c4" vector-effect="non-scaling-stroke" d="
  M 44.17 88.32
  A 0.55 0.53 -77.0 0 1 44.57 88.06
  L 47.21 87.82
  A 0.38 0.38 0.0 0 0 47.18 87.06
  L 42.85 87.04
  Q 42.25 87.04 42.25 87.65
  L 42.25 93.14
  A 0.83 0.83 0.0 0 0 43.08 93.97
  L 46.80 93.97
  A 0.71 0.70 -43.9 0 0 46.83 92.56
  L 44.09 92.47
  A 0.49 0.49 0.0 0 1 43.65 91.81
  L 43.78 91.45
  Q 43.94 91.03 44.39 91.02
  Q 45.52 90.99 46.55 90.58
  A 0.63 0.63 0.0 0 0 46.88 89.72
  Q 46.37 88.71 45.01 89.14
  Q 43.38 89.65 44.17 88.32"
/>
<path stroke="#c2c1c4" vector-effect="non-scaling-stroke" d="
  M 85.01 88.38
  L 84.99 92.37
  A 0.41 0.41 0.0 0 0 85.40 92.79
  L 85.51 92.79
  A 2.34 2.33 0.2 0 0 87.86 90.46
  L 87.86 90.30
  A 2.34 2.33 0.2 0 0 85.53 87.97
  L 85.42 87.97
  A 0.41 0.41 0.0 0 0 85.01 88.38"
/>
<path stroke="#c2c1c4" vector-effect="non-scaling-stroke" d="
  M 78.00 90.25
  L 78.18 90.80
  A 0.45 0.45 0.0 0 0 78.73 91.10
  Q 80.37 90.61 78.96 89.57
  A 0.62 0.62 0.0 0 0 78.00 90.25"
/>
<path stroke="#c2c1c4" vector-effect="non-scaling-stroke" d="
  M 63.7390 92.9790
  A 2.83 2.11 107.5 0 0 66.6023 90.9145
  A 2.83 2.11 107.5 0 0 65.4410 87.5810
  A 2.83 2.11 107.5 0 0 62.5777 89.6455
  A 2.83 2.11 107.5 0 0 63.7390 92.9790"
/>
<path stroke="#c2c1c4" vector-effect="non-scaling-stroke" d="
  M 93.3255 93.0011
  A 2.81 2.02 106.0 0 0 96.0417 90.8568
  A 2.81 2.02 106.0 0 0 94.8745 87.5989
  A 2.81 2.02 106.0 0 0 92.1583 89.7432
  A 2.81 2.02 106.0 0 0 93.3255 93.0011"
/>
</g>
<path fill="#ffffff" d="
  M 139.00 138.42
  A 0.58 0.58 0.0 0 1 138.42 139.00
  L 11.58 139.00
  A 0.58 0.58 0.0 0 1 11.00 138.42
  L 11.00 11.58
  A 0.58 0.58 0.0 0 1 11.58 11.00
  L 138.42 11.00
  A 0.58 0.58 0.0 0 1 139.00 11.58
  L 139.00 138.42
  Z
  M 30.82 48.00
  L 31.59 51.22
  Q 31.71 51.39 31.82 51.55
  Q 30.73 51.38 30.86 51.63
  Q 30.00 51.32 29.38 51.88
  Q 21.43 59.13 12.56 69.26
  A 0.82 0.82 0.0 0 0 12.40 70.03
  Q 12.56 70.54 12.96 70.83
  Q 13.39 71.15 13.58 71.65
  L 19.87 88.48
  Q 16.09 93.22 14.13 97.85
  Q 12.29 101.08 12.99 102.59
  Q 13.23 103.12 13.80 103.17
  L 17.75 103.54
  L 18.22 104.55
  L 21.62 112.48
  Q 21.84 113.00 22.40 113.00
  L 127.81 113.00
  Q 128.12 113.00 128.23 112.70
  L 131.50 103.27
  Q 132.02 103.05 132.29 102.75
  L 135.72 102.42
  Q 136.46 102.35 136.16 101.67
  L 134.51 97.91
  L 130.84 90.39
  L 136.38 72.44
  L 137.93 69.19
  Q 138.15 68.72 137.81 68.31
  C 133.21 62.79 127.93 57.51 123.04 52.22
  Q 121.08 50.10 118.43 50.68
  A 0.61 0.60 86.1 0 1 117.71 50.04
  L 118.51 38.80
  Q 119.03 38.00 118.42 37.11
  Q 118.14 36.70 117.64 36.73
  L 110.74 37.24
  Q 93.44 38.15 76.20 36.45
  Q 75.70 36.40 75.27 36.13
  C 73.97 35.32 72.84 36.14 71.77 36.18
  Q 65.25 36.42 58.74 36.46
  C 51.32 36.52 41.71 35.65 33.05 35.77
  Q 31.27 35.37 31.12 36.82
  Q 30.54 42.40 30.82 48.00
  Z"
/>
<path fill="#680b0c" d="
  M 33.05 35.77
  Q 31.58 40.97 32.06 46.83
  Q 32.10 47.32 31.67 47.55
  L 30.82 48.00
  Q 30.54 42.40 31.12 36.82
  Q 31.27 35.37 33.05 35.77
  Z"
/>
<path fill="#a91e1e" d="
  M 33.05 35.77
  C 41.71 35.65 51.32 36.52 58.74 36.46
  Q 65.25 36.42 71.77 36.18
  C 72.84 36.14 73.97 35.32 75.27 36.13
  Q 75.70 36.40 76.20 36.45
  Q 93.44 38.15 110.74 37.24
  Q 110.91 38.34 110.49 38.37
  Q 105.23 38.67 99.83 38.81
  Q 99.08 38.83 99.15 39.58
  L 99.64 44.65
  Q 99.71 45.39 100.37 45.72
  Q 102.48 46.78 104.34 45.36
  A 0.62 0.59 -61.5 0 1 104.74 45.23
  L 109.97 45.44
  Q 110.54 45.47 110.96 45.86
  L 112.85 47.67
  Q 113.23 48.03 113.73 48.20
  Q 114.84 48.56 114.88 50.43
  Q 111.73 47.53 109.31 47.47
  Q 107.08 47.41 106.15 49.55
  Q 105.95 50.02 105.51 49.75
  C 103.53 48.50 100.58 49.98 99.87 47.71
  Q 99.72 47.23 99.24 47.36
  Q 93.35 48.88 88.18 45.73
  Q 87.77 45.48 87.28 45.51
  Q 84.69 45.68 81.75 45.02
  Q 80.22 44.68 79.41 45.79
  Q 79.11 46.21 78.64 46.41
  L 77.20 47.02
  A 0.50 0.50 0.0 0 1 76.51 46.61
  L 76.29 44.48
  L 76.01 39.00
  Q 76.25 37.42 74.53 37.86
  A 1.28 1.27 0.7 0 0 73.61 38.75
  Q 72.54 42.63 73.20 45.87
  L 73.44 50.74
  Q 70.56 49.96 68.07 48.37
  C 65.22 46.55 65.03 43.55 60.79 42.99
  Q 59.33 42.80 55.86 43.88
  Q 51.27 45.30 46.47 44.84
  C 43.85 44.60 41.71 42.77 38.46 43.00
  Q 37.96 43.04 37.62 43.40
  Q 34.68 46.49 33.36 49.97
  Q 32.68 50.77 31.59 51.22
  L 30.82 48.00
  L 31.67 47.55
  Q 32.10 47.32 32.06 46.83
  Q 31.58 40.97 33.05 35.77
  Z"
/>
<path fill="#c33232" d="
  M 118.51 38.80
  C 117.75 39.09 117.32 39.46 117.30 40.35
  Q 117.17 45.73 116.31 51.07
  Q 116.18 51.87 114.99 51.82
  Q 115.08 50.60 114.88 50.43
  Q 114.84 48.56 113.73 48.20
  Q 113.23 48.03 112.85 47.67
  L 110.96 45.86
  Q 110.54 45.47 109.97 45.44
  L 104.74 45.23
  A 0.62 0.59 -61.5 0 0 104.34 45.36
  Q 102.48 46.78 100.37 45.72
  Q 99.71 45.39 99.64 44.65
  L 99.15 39.58
  Q 99.08 38.83 99.83 38.81
  Q 105.23 38.67 110.49 38.37
  Q 110.91 38.34 110.74 37.24
  L 117.64 36.73
  Q 118.14 36.70 118.42 37.11
  Q 119.03 38.00 118.51 38.80
  Z"
/>
<path fill="#680b0c" d="
  M 76.01 39.00
  L 75.48 38.69
  A 0.71 0.71 0.0 0 0 74.41 39.41
  Q 74.94 42.77 73.20 45.87
  Q 72.54 42.63 73.61 38.75
  A 1.28 1.27 0.7 0 1 74.53 37.86
  Q 76.25 37.42 76.01 39.00
  Z"
/>
<path fill="#020001" d="
  M 76.01 39.00
  L 76.29 44.48
  L 75.82 51.21
  Q 75.79 51.75 76.32 51.75
  L 114.99 51.82
  Q 116.18 51.87 116.31 51.07
  Q 117.17 45.73 117.30 40.35
  C 117.32 39.46 117.75 39.09 118.51 38.80
  L 117.71 50.04
  A 0.61 0.60 86.1 0 0 118.43 50.68
  Q 121.08 50.10 123.04 52.22
  C 127.93 57.51 133.21 62.79 137.81 68.31
  Q 138.15 68.72 137.93 69.19
  L 136.38 72.44
  L 127.05 71.79
  Q 126.48 71.75 126.51 72.31
  Q 126.73 76.30 124.78 79.47
  C 119.80 84.57 110.75 83.46 107.91 76.51
  Q 107.38 72.13 111.80 71.91
  Q 112.75 71.87 111.94 71.36
  L 110.89 70.69
  Q 110.51 70.45 110.29 70.06
  Q 108.92 67.64 105.87 68.67
  Q 105.37 68.84 105.04 69.26
  Q 101.76 73.45 96.51 74.16
  Q 96.20 74.20 96.26 74.51
  Q 96.36 75.07 96.84 74.99
  Q 99.22 74.60 102.23 72.95
  A 1.75 1.74 33.1 0 1 103.19 72.75
  Q 107.32 73.16 107.11 76.65
  Q 106.11 78.77 104.75 79.81
  C 97.56 83.67 89.46 84.11 85.82 75.65
  Q 85.50 74.90 85.22 75.66
  L 84.07 78.74
  A 1.26 1.25 85.7 0 1 83.53 79.37
  Q 80.48 81.13 75.89 82.32
  Q 74.92 82.57 75.57 84.21
  L 73.73 83.72
  Q 73.93 83.29 73.88 83.03
  Q 73.83 82.80 73.41 82.73
  C 66.34 81.54 61.63 76.23 62.85 68.84
  Q 62.97 68.15 62.27 68.20
  L 61.48 68.26
  A 0.69 0.67 1.5 0 0 60.86 68.83
  Q 60.38 71.72 60.68 74.67
  C 61.04 78.07 64.12 80.75 59.45 83.61
  L 56.80 83.78
  Q 56.89 82.54 56.05 82.19
  C 51.38 80.25 53.08 72.08 52.67 68.32
  Q 52.60 67.71 51.87 67.82
  A 0.55 0.55 0.0 0 0 51.40 68.46
  Q 51.89 71.34 49.50 72.20
  Q 48.93 72.40 49.09 72.99
  C 49.68 75.12 50.77 78.57 49.61 80.52
  C 47.44 84.16 43.30 82.76 42.73 78.80
  Q 42.23 75.26 40.75 72.85
  L 32.87 73.00
  A 1.21 1.19 -69.4 0 0 32.00 73.40
  Q 30.85 74.68 30.79 77.06
  Q 28.96 84.49 23.86 81.49
  Q 23.34 81.23 23.00 80.49
  Q 22.34 76.38 24.24 71.80
  Q 24.11 70.99 24.57 69.91
  L 31.82 51.55
  Q 31.71 51.39 31.59 51.22
  Q 32.68 50.77 33.36 49.97
  Q 43.09 51.25 53.00 51.05
  Q 53.54 51.03 53.95 50.68
  Q 56.88 48.13 59.87 50.74
  Q 60.25 51.07 60.74 51.09
  L 73.18 51.64
  Q 73.56 51.66 73.72 51.31
  Q 73.93 50.84 73.44 50.74
  L 73.20 45.87
  Q 74.94 42.77 74.41 39.41
  A 0.71 0.71 0.0 0 1 75.48 38.69
  L 76.01 39.00
  Z
  M 59.52 53.25
  C 59.52 50.22 56.06 49.75 54.30 51.69
  A 1.15 1.15 0.0 0 0 54.00 52.49
  Q 54.02 64.49 53.98 76.51
  C 53.97 80.47 55.90 82.64 59.91 81.91
  A 0.89 0.88 5.5 0 0 60.57 81.37
  Q 61.41 79.14 60.07 77.20
  Q 59.74 76.72 59.73 76.13
  Q 59.48 64.69 59.52 53.25
  Z
  M 45.70 66.40
  C 44.71 63.54 36.92 43.96 32.07 53.75
  Q 26.67 64.63 23.75 76.44
  C 22.65 80.86 27.58 84.15 29.16 78.77
  Q 30.07 75.69 30.83 72.52
  A 0.69 0.68 -82.9 0 1 31.49 72.00
  L 41.27 72.00
  A 0.85 0.84 -9.7 0 1 42.07 72.56
  Q 43.17 75.62 43.57 78.85
  C 44.10 82.97 49.28 82.25 49.22 78.49
  Q 49.20 76.80 48.06 72.75
  A 0.82 0.80 66.1 0 1 48.40 71.85
  L 49.44 71.20
  Q 49.97 70.87 50.12 70.26
  Q 50.70 68.00 48.71 67.09
  A 1.13 1.11 -33.0 0 0 48.27 67.00
  L 46.53 67.00
  Q 45.90 67.00 45.70 66.40
  Z
  M 116.04 53.59
  Q 97.58 53.33 79.22 53.21
  C 77.59 53.20 76.02 53.77 74.30 53.85
  A 0.51 0.51 0.0 0 0 74.16 54.85
  L 75.84 55.41
  A 0.68 0.68 0.0 0 1 76.00 56.62
  Q 75.54 56.93 75.50 57.44
  Q 75.46 57.92 75.93 57.98
  Q 82.83 58.84 84.19 65.58
  A 0.67 0.67 0.0 0 0 85.45 65.75
  C 89.10 58.51 101.93 53.88 105.76 63.81
  Q 105.91 64.18 106.00 65.20
  Q 106.07 66.06 106.63 66.49
  A 0.92 0.92 0.0 0 0 108.11 65.94
  Q 109.88 56.74 118.39 57.00
  Q 121.21 57.55 123.21 59.12
  C 126.06 61.35 126.05 64.91 122.06 65.95
  Q 121.60 66.08 121.14 65.94
  Q 120.07 65.63 118.96 65.49
  A 0.10 0.10 0.0 0 0 118.89 65.67
  Q 120.53 66.80 122.44 67.07
  Q 123.04 67.16 123.43 67.63
  L 125.65 70.30
  Q 125.95 70.66 126.42 70.62
  L 131.55 70.18
  Q 133.70 70.48 136.13 69.62
  A 0.76 0.76 0.0 0 0 136.43 68.38
  L 126.94 58.25
  C 125.64 56.15 118.29 47.19 116.04 53.59
  Z
  M 41.41 55.34
  L 46.35 65.24
  A 0.82 0.80 -10.3 0 0 47.01 65.69
  L 52.01 66.04
  Q 52.48 66.07 52.51 65.61
  L 52.95 59.06
  L 52.99 53.12
  Q 52.99 52.71 52.58 52.69
  L 39.87 52.27
  A 0.33 0.33 0.0 0 0 39.59 52.79
  L 41.41 55.34
  Z
  M 63.22 66.34
  C 65.62 61.60 68.06 60.07 72.99 58.40
  A 0.62 0.61 69.0 0 0 73.35 57.57
  Q 72.83 56.37 73.30 55.05
  A 1.15 1.15 0.0 0 0 72.45 53.53
  Q 67.00 52.40 61.46 52.97
  A 0.98 0.97 89.0 0 0 60.58 53.89
  Q 60.22 59.37 60.88 64.84
  C 61.02 66.04 61.83 66.62 63.00 66.49
  A 0.30 0.29 9.8 0 0 63.22 66.34
  Z
  M 116.11 66.12
  A 1.42 1.42 0.0 0 1 117.44 63.67
  L 121.33 64.89
  A 2.24 2.23 -82.2 0 0 124.23 62.68
  Q 124.13 59.67 121.23 58.73
  Q 112.59 55.94 109.96 63.10
  C 107.60 69.52 114.15 71.58 118.88 72.95
  Q 119.46 73.12 119.48 73.73
  L 119.51 74.95
  A 1.24 1.24 0.0 0 1 118.20 76.22
  C 114.77 76.04 112.63 71.12 109.72 73.46
  A 2.85 2.85 0.0 0 0 109.10 77.22
  C 111.82 81.46 118.95 83.56 122.75 80.01
  C 126.33 76.67 126.28 71.07 121.98 68.25
  C 120.51 67.29 117.46 67.23 116.11 66.12
  Z
  M 70.67 74.97
  A 0.37 0.36 58.9 0 1 70.83 74.32
  C 74.28 73.73 78.88 72.41 81.42 69.81
  C 83.97 67.20 83.23 63.17 80.72 60.93
  C 76.94 57.55 70.33 59.54 67.07 62.59
  C 59.62 69.58 64.69 82.61 75.56 81.39
  C 77.67 81.15 86.00 78.66 83.86 74.96
  A 2.73 2.72 -29.6 0 0 80.18 73.95
  C 77.41 75.48 73.56 77.19 70.67 74.97
  Z
  M 92.67 74.97
  A 0.36 0.35 58.7 0 1 92.82 74.34
  C 98.13 73.39 107.77 70.46 104.22 62.97
  C 100.40 54.91 88.60 60.66 86.46 66.70
  C 84.07 73.41 87.33 80.47 94.85 81.43
  C 97.96 81.83 105.98 80.03 106.02 75.84
  Q 106.03 74.96 105.42 74.44
  C 102.16 71.69 97.50 78.64 92.67 74.97
  Z
  M 82.83 73.12
  L 84.47 74.11
  A 0.31 0.30 -76.0 0 0 84.93 73.83
  L 84.68 68.48
  A 0.37 0.37 0.0 0 0 84.01 68.27
  Q 80.92 72.38 76.07 74.02
  Q 75.93 74.06 75.86 74.19
  Q 75.60 74.66 76.49 74.63
  Q 76.79 74.62 77.06 74.49
  L 80.15 73.00
  Q 81.52 72.33 82.83 73.12
  Z
  M 118.44 74.40
  L 113.82 72.14
  A 0.10 0.10 0.0 0 0 113.69 72.19
  L 113.69 72.20
  A 2.48 1.05 26.0 0 0 115.45 74.23
  L 115.80 74.39
  A 2.48 1.05 26.0 0 0 118.49 74.54
  L 118.49 74.53
  A 0.10 0.10 0.0 0 0 118.44 74.40
  Z"
/>
<path fill="#680b0c" d="
  M 73.44 50.74
  Q 73.93 50.84 73.72 51.31
  Q 73.56 51.66 73.18 51.64
  L 60.74 51.09
  Q 60.25 51.07 59.87 50.74
  Q 56.88 48.13 53.95 50.68
  Q 53.54 51.03 53.00 51.05
  Q 43.09 51.25 33.36 49.97
  Q 34.68 46.49 37.62 43.40
  Q 37.96 43.04 38.46 43.00
  C 41.71 42.77 43.85 44.60 46.47 44.84
  Q 51.27 45.30 55.86 43.88
  Q 59.33 42.80 60.79 42.99
  C 65.03 43.55 65.22 46.55 68.07 48.37
  Q 70.56 49.96 73.44 50.74
  Z"
/>
<path fill="#680b0c" d="
  M 76.29 44.48
  L 76.51 46.61
  A 0.50 0.50 0.0 0 0 77.20 47.02
  L 78.64 46.41
  Q 79.11 46.21 79.41 45.79
  Q 80.22 44.68 81.75 45.02
  Q 84.69 45.68 87.28 45.51
  Q 87.77 45.48 88.18 45.73
  Q 93.35 48.88 99.24 47.36
  Q 99.72 47.23 99.87 47.71
  C 100.58 49.98 103.53 48.50 105.51 49.75
  Q 105.95 50.02 106.15 49.55
  Q 107.08 47.41 109.31 47.47
  Q 111.73 47.53 114.88 50.43
  Q 115.08 50.60 114.99 51.82
  L 76.32 51.75
  Q 75.79 51.75 75.82 51.21
  L 76.29 44.48
  Z"
/>
<path fill="#858388" d="
  M 54.30 51.69
  C 56.06 49.75 59.52 50.22 59.52 53.25
  Q 59.48 64.69 59.73 76.13
  Q 59.74 76.72 60.07 77.20
  Q 61.41 79.14 60.57 81.37
  A 0.89 0.88 5.5 0 1 59.91 81.91
  C 55.90 82.64 53.97 80.47 53.98 76.51
  Q 54.02 64.49 54.00 52.49
  A 1.15 1.15 0.0 0 1 54.30 51.69
  Z"
/>
<path fill="#858388" d="
  M 46.53 67.00
  L 48.27 67.00
  A 1.13 1.11 -33.0 0 1 48.71 67.09
  Q 50.70 68.00 50.12 70.26
  Q 49.97 70.87 49.44 71.20
  L 48.40 71.85
  A 0.82 0.80 66.1 0 0 48.06 72.75
  Q 49.20 76.80 49.22 78.49
  C 49.28 82.25 44.10 82.97 43.57 78.85
  Q 43.17 75.62 42.07 72.56
  A 0.85 0.84 -9.7 0 0 41.27 72.00
  L 31.49 72.00
  A 0.69 0.68 -82.9 0 0 30.83 72.52
  Q 30.07 75.69 29.16 78.77
  C 27.58 84.15 22.65 80.86 23.75 76.44
  Q 26.67 64.63 32.07 53.75
  C 36.92 43.96 44.71 63.54 45.70 66.40
  Q 45.90 67.00 46.53 67.00
  Z
  M 32.96 66.61
  A 0.37 0.37 0.0 0 0 33.32 67.12
  L 39.37 66.88
  A 0.37 0.37 0.0 0 0 39.69 66.34
  L 36.39 59.70
  A 0.37 0.37 0.0 0 0 35.72 59.73
  L 32.96 66.61
  Z"
/>
<path fill="#680b0c" d="
  M 30.86 51.63
  Q 21.58 59.78 13.93 69.23
  A 0.66 0.66 0.0 0 0 14.47 70.31
  L 24.57 69.91
  Q 24.11 70.99 24.24 71.80
  Q 24.10 71.73 24.02 71.60
  Q 23.89 71.36 23.62 71.37
  L 17.01 71.55
  Q 14.91 71.61 15.68 73.56
  L 19.61 83.56
  A 0.68 0.67 63.2 0 0 20.59 83.89
  Q 22.57 82.65 23.00 80.49
  Q 23.34 81.23 23.86 81.49
  L 19.87 88.48
  L 13.58 71.65
  Q 13.39 71.15 12.96 70.83
  Q 12.56 70.54 12.40 70.03
  A 0.82 0.82 0.0 0 1 12.56 69.26
  Q 21.43 59.13 29.38 51.88
  Q 30.00 51.32 30.86 51.63
  Z"
/>
<path fill="#ce4848" d="
  M 30.86 51.63
  Q 30.73 51.38 31.82 51.55
  L 24.57 69.91
  L 14.47 70.31
  A 0.66 0.66 0.0 0 1 13.93 69.23
  Q 21.58 59.78 30.86 51.63
  Z"
/>
<path fill="#943e3e" d="
  M 126.94 58.25
  Q 127.67 60.50 127.29 61.40
  Q 127.11 61.85 127.24 62.31
  Q 128.46 66.47 131.55 70.18
  L 126.42 70.62
  Q 125.95 70.66 125.65 70.30
  L 123.43 67.63
  Q 123.04 67.16 122.44 67.07
  Q 120.53 66.80 118.89 65.67
  A 0.10 0.10 0.0 0 1 118.96 65.49
  Q 120.07 65.63 121.14 65.94
  Q 121.60 66.08 122.06 65.95
  C 126.05 64.91 126.06 61.35 123.21 59.12
  Q 121.21 57.55 118.39 57.00
  Q 118.80 56.31 118.76 55.61
  Q 118.74 55.15 118.35 54.93
  L 116.04 53.59
  C 118.29 47.19 125.64 56.15 126.94 58.25
  Z"
/>
<path fill="#901818" d="
  M 52.95 59.06
  Q 51.06 58.79 49.06 57.53
  Q 48.63 57.26 48.47 56.77
  Q 47.97 55.18 46.39 54.26
  Q 45.93 53.99 45.41 54.04
  Q 43.32 54.21 41.41 55.34
  L 39.59 52.79
  A 0.33 0.33 0.0 0 1 39.87 52.27
  L 52.58 52.69
  Q 52.99 52.71 52.99 53.12
  L 52.95 59.06
  Z"
/>
<path fill="#901818" d="
  M 63.22 66.34
  A 0.30 0.29 9.8 0 1 63.00 66.49
  C 61.83 66.62 61.02 66.04 60.88 64.84
  Q 60.22 59.37 60.58 53.89
  A 0.98 0.97 89.0 0 1 61.46 52.97
  Q 67.00 52.40 72.45 53.53
  A 1.15 1.15 0.0 0 1 73.30 55.05
  Q 72.83 56.37 73.35 57.57
  A 0.62 0.61 69.0 0 1 72.99 58.40
  C 68.06 60.07 65.62 61.60 63.22 66.34
  Z"
/>
<path fill="#901818" d="
  M 116.04 53.59
  L 118.35 54.93
  Q 118.74 55.15 118.76 55.61
  Q 118.80 56.31 118.39 57.00
  Q 109.88 56.74 108.11 65.94
  A 0.92 0.92 0.0 0 1 106.63 66.49
  Q 106.07 66.06 106.00 65.20
  Q 105.91 64.18 105.76 63.81
  C 101.93 53.88 89.10 58.51 85.45 65.75
  A 0.67 0.67 0.0 0 1 84.19 65.58
  Q 82.83 58.84 75.93 57.98
  Q 75.46 57.92 75.50 57.44
  Q 75.54 56.93 76.00 56.62
  A 0.68 0.68 0.0 0 0 75.84 55.41
  L 74.16 54.85
  A 0.51 0.51 0.0 0 1 74.30 53.85
  C 76.02 53.77 77.59 53.20 79.22 53.21
  Q 97.58 53.33 116.04 53.59
  Z"
/>
<path fill="#680b0c" d="
  M 52.95 59.06
  L 52.51 65.61
  Q 52.48 66.07 52.01 66.04
  L 47.01 65.69
  A 0.82 0.80 -10.3 0 1 46.35 65.24
  L 41.41 55.34
  Q 43.32 54.21 45.41 54.04
  Q 45.93 53.99 46.39 54.26
  Q 47.97 55.18 48.47 56.77
  Q 48.63 57.26 49.06 57.53
  Q 51.06 58.79 52.95 59.06
  Z"
/>
<path fill="#858388" d="
  M 116.11 66.12
  C 117.46 67.23 120.51 67.29 121.98 68.25
  C 126.28 71.07 126.33 76.67 122.75 80.01
  C 118.95 83.56 111.82 81.46 109.10 77.22
  A 2.85 2.85 0.0 0 1 109.72 73.46
  C 112.63 71.12 114.77 76.04 118.20 76.22
  A 1.24 1.24 0.0 0 0 119.51 74.95
  L 119.48 73.73
  Q 119.46 73.12 118.88 72.95
  C 114.15 71.58 107.60 69.52 109.96 63.10
  Q 112.59 55.94 121.23 58.73
  Q 124.13 59.67 124.23 62.68
  A 2.24 2.23 -82.2 0 1 121.33 64.89
  L 117.44 63.67
  A 1.42 1.42 0.0 0 0 116.11 66.12
  Z"
/>
<path fill="#ce4848" d="
  M 126.94 58.25
  L 136.43 68.38
  A 0.76 0.76 0.0 0 1 136.13 69.62
  Q 133.70 70.48 131.55 70.18
  Q 128.46 66.47 127.24 62.31
  Q 127.11 61.85 127.29 61.40
  Q 127.67 60.50 126.94 58.25
  Z"
/>
<path fill="#858388" d="
  M 70.67 74.97
  C 73.56 77.19 77.41 75.48 80.18 73.95
  A 2.73 2.72 -29.6 0 1 83.86 74.96
  C 86.00 78.66 77.67 81.15 75.56 81.39
  C 64.69 82.61 59.62 69.58 67.07 62.59
  C 70.33 59.54 76.94 57.55 80.72 60.93
  C 83.23 63.17 83.97 67.20 81.42 69.81
  C 78.88 72.41 74.28 73.73 70.83 74.32
  A 0.37 0.36 58.9 0 0 70.67 74.97
  Z
  M 76.55 64.95
  Q 71.38 64.46 69.16 68.93
  A 0.50 0.50 0.0 0 0 69.70 69.64
  Q 73.55 68.94 76.99 67.05
  A 1.12 1.12 0.0 0 0 76.55 64.95
  Z"
/>
<path fill="#858388" d="
  M 92.67 74.97
  C 97.50 78.64 102.16 71.69 105.42 74.44
  Q 106.03 74.96 106.02 75.84
  C 105.98 80.03 97.96 81.83 94.85 81.43
  C 87.33 80.47 84.07 73.41 86.46 66.70
  C 88.60 60.66 100.40 54.91 104.22 62.97
  C 107.77 70.46 98.13 73.39 92.82 74.34
  A 0.36 0.35 58.7 0 0 92.67 74.97
  Z
  M 97.81 64.90
  Q 92.82 64.77 91.17 69.12
  A 0.49 0.48 -89.1 0 0 91.78 69.75
  L 98.39 67.56
  A 0.85 0.85 0.0 0 0 98.92 67.07
  Q 99.82 64.95 97.81 64.90
  Z"
/>
<path fill="#020001" d="
  M 32.96 66.61
  L 35.72 59.73
  A 0.37 0.37 0.0 0 1 36.39 59.70
  L 39.69 66.34
  A 0.37 0.37 0.0 0 1 39.37 66.88
  L 33.32 67.12
  A 0.37 0.37 0.0 0 1 32.96 66.61
  Z"
/>
<path fill="#020001" d="
  M 76.55 64.95
  A 1.12 1.12 0.0 0 1 76.99 67.05
  Q 73.55 68.94 69.70 69.64
  A 0.50 0.50 0.0 0 1 69.16 68.93
  Q 71.38 64.46 76.55 64.95
  Z"
/>
<path fill="#020001" d="
  M 97.81 64.90
  Q 99.82 64.95 98.92 67.07
  A 0.85 0.85 0.0 0 1 98.39 67.56
  L 91.78 69.75
  A 0.49 0.48 -89.1 0 1 91.17 69.12
  Q 92.82 64.77 97.81 64.90
  Z"
/>
<path fill="#c33232" d="
  M 56.80 83.78
  L 48.41 85.31
  Q 47.97 85.39 47.54 85.27
  Q 43.80 84.26 40.44 86.12
  A 0.91 0.91 0.0 0 0 39.97 87.01
  C 40.68 93.28 38.63 97.16 47.64 95.78
  Q 48.24 95.69 48.79 95.93
  Q 51.20 96.99 53.74 96.24
  A 1.85 1.84 -45.3 0 1 54.72 96.23
  Q 58.10 97.17 58.78 93.74
  A 0.41 0.41 0.0 0 1 59.58 93.71
  Q 60.22 96.02 63.21 97.06
  C 59.69 97.98 56.65 97.08 53.20 97.51
  Q 52.72 97.57 52.32 97.31
  Q 51.26 96.63 50.07 97.20
  Q 49.63 97.41 49.13 97.39
  Q 31.39 96.75 14.13 97.85
  Q 16.09 93.22 19.87 88.48
  L 23.86 81.49
  Q 28.96 84.49 30.79 77.06
  L 37.75 77.18
  Q 38.26 77.19 38.52 76.74
  L 40.75 72.85
  Q 42.23 75.26 42.73 78.80
  C 43.30 82.76 47.44 84.16 49.61 80.52
  C 50.77 78.57 49.68 75.12 49.09 72.99
  Q 48.93 72.40 49.50 72.20
  Q 51.89 71.34 51.40 68.46
  A 0.55 0.55 0.0 0 1 51.87 67.82
  Q 52.60 67.71 52.67 68.32
  C 53.08 72.08 51.38 80.25 56.05 82.19
  Q 56.89 82.54 56.80 83.78
  Z"
/>
<path fill="#c33232" d="
  M 73.73 83.72
  Q 71.27 83.98 68.75 84.20
  Q 68.20 84.25 67.80 84.91
  Q 67.57 85.29 67.18 85.07
  Q 64.78 83.72 62.52 85.20
  A 0.80 0.79 -43.4 0 1 61.62 85.18
  L 59.45 83.61
  C 64.12 80.75 61.04 78.07 60.68 74.67
  Q 60.38 71.72 60.86 68.83
  A 0.69 0.67 1.5 0 1 61.48 68.26
  L 62.27 68.20
  Q 62.97 68.15 62.85 68.84
  C 61.63 76.23 66.34 81.54 73.41 82.73
  Q 73.83 82.80 73.88 83.03
  Q 73.93 83.29 73.73 83.72
  Z"
/>
<path fill="#901818" d="
  M 82.83 73.12
  Q 81.52 72.33 80.15 73.00
  L 77.06 74.49
  Q 76.79 74.62 76.49 74.63
  Q 75.60 74.66 75.86 74.19
  Q 75.93 74.06 76.07 74.02
  Q 80.92 72.38 84.01 68.27
  A 0.37 0.37 0.0 0 1 84.68 68.48
  L 84.93 73.83
  A 0.31 0.30 -76.0 0 1 84.47 74.11
  L 82.83 73.12
  Z"
/>
<path fill="#901818" d="
  M 107.91 76.51
  Q 107.49 76.46 107.11 76.65
  Q 107.32 73.16 103.19 72.75
  A 1.75 1.74 33.1 0 0 102.23 72.95
  Q 99.22 74.60 96.84 74.99
  Q 96.36 75.07 96.26 74.51
  Q 96.20 74.20 96.51 74.16
  Q 101.76 73.45 105.04 69.26
  Q 105.37 68.84 105.87 68.67
  Q 108.92 67.64 110.29 70.06
  Q 110.51 70.45 110.89 70.69
  L 111.94 71.36
  Q 112.75 71.87 111.80 71.91
  Q 107.38 72.13 107.91 76.51
  Z"
/>
<path fill="#771011" d="
  M 24.24 71.80
  Q 22.34 76.38 23.00 80.49
  Q 22.57 82.65 20.59 83.89
  A 0.68 0.67 63.2 0 1 19.61 83.56
  L 15.68 73.56
  Q 14.91 71.61 17.01 71.55
  L 23.62 71.37
  Q 23.89 71.36 24.02 71.60
  Q 24.10 71.73 24.24 71.80
  Z"
/>
<path fill="#771011" d="
  M 136.38 72.44
  L 130.84 90.39
  L 124.78 79.47
  Q 126.73 76.30 126.51 72.31
  Q 126.48 71.75 127.05 71.79
  L 136.38 72.44
  Z"
/>
<path fill="#901818" d="
  M 118.44 74.40
  A 0.10 0.10 0.0 0 1 118.49 74.53
  L 118.49 74.54
  A 2.48 1.05 26.0 0 1 115.80 74.39
  L 115.45 74.23
  A 2.48 1.05 26.0 0 1 113.69 72.20
  L 113.69 72.19
  A 0.10 0.10 0.0 0 1 113.82 72.14
  L 118.44 74.40
  Z"
/>
<path fill="#901818" d="
  M 40.75 72.85
  L 38.52 76.74
  Q 38.26 77.19 37.75 77.18
  L 30.79 77.06
  Q 30.85 74.68 32.00 73.40
  A 1.21 1.19 -69.4 0 1 32.87 73.00
  L 40.75 72.85
  Z"
/>
<path fill="#c33232" d="
  M 104.75 79.81
  L 105.48 85.74
  Q 102.38 83.07 99.22 85.37
  A 1.73 1.72 43.1 0 1 97.27 85.43
  Q 93.69 83.14 90.90 86.06
  Q 90.55 86.43 90.19 86.07
  Q 86.32 82.20 81.50 85.19
  A 0.63 0.61 -38.8 0 1 80.75 85.12
  Q 78.83 83.31 76.81 84.76
  Q 76.43 85.03 76.10 84.71
  L 75.57 84.21
  Q 74.92 82.57 75.89 82.32
  Q 80.48 81.13 83.53 79.37
  A 1.26 1.25 85.7 0 0 84.07 78.74
  L 85.22 75.66
  Q 85.50 74.90 85.82 75.65
  C 89.46 84.11 97.56 83.67 104.75 79.81
  Z"
/>
<path fill="#ce4848" d="
  M 107.91 76.51
  C 110.75 83.46 119.80 84.57 124.78 79.47
  L 130.84 90.39
  L 134.51 97.91
  L 101.91 96.73
  C 105.22 96.09 108.31 93.01 105.89 89.68
  Q 105.58 89.24 105.82 88.76
  Q 106.59 87.21 105.48 85.74
  L 104.75 79.81
  Q 106.11 78.77 107.11 76.65
  Q 107.49 76.46 107.91 76.51
  Z"
/>
<path fill="#ffffff" d="
  M 56.80 83.78
  L 59.45 83.61
  L 61.62 85.18
  A 0.80 0.79 -43.4 0 0 62.52 85.20
  Q 64.78 83.72 67.18 85.07
  Q 67.57 85.29 67.80 84.91
  Q 68.20 84.25 68.75 84.20
  Q 71.27 83.98 73.73 83.72
  L 75.57 84.21
  L 76.10 84.71
  Q 76.43 85.03 76.81 84.76
  Q 78.83 83.31 80.75 85.12
  A 0.63 0.61 -38.8 0 0 81.50 85.19
  Q 86.32 82.20 90.19 86.07
  Q 90.55 86.43 90.90 86.06
  Q 93.69 83.14 97.27 85.43
  A 1.73 1.72 43.1 0 0 99.22 85.37
  Q 102.38 83.07 105.48 85.74
  Q 106.59 87.21 105.82 88.76
  Q 105.58 89.24 105.89 89.68
  C 108.31 93.01 105.22 96.09 101.91 96.73
  L 98.44 95.44
  Q 97.96 95.26 97.59 95.61
  Q 95.57 97.48 92.77 96.92
  Q 91.02 96.58 89.78 95.17
  Q 89.47 94.82 89.03 94.96
  C 87.29 95.51 80.92 97.83 79.28 95.02
  Q 78.97 94.50 78.63 95.00
  Q 77.43 96.75 75.71 96.54
  Q 75.26 96.02 74.69 95.87
  Q 74.32 95.77 73.97 95.98
  Q 73.44 96.28 73.53 96.67
  Q 70.55 96.82 69.50 94.71
  Q 69.26 94.23 68.93 94.65
  Q 66.89 97.25 63.51 97.03
  Q 62.66 96.88 63.21 97.06
  Q 60.22 96.02 59.58 93.71
  A 0.41 0.41 0.0 0 0 58.78 93.74
  Q 58.10 97.17 54.72 96.23
  A 1.85 1.84 -45.3 0 0 53.74 96.24
  Q 51.20 96.99 48.79 95.93
  Q 48.24 95.69 47.64 95.78
  C 38.63 97.16 40.68 93.28 39.97 87.01
  A 0.91 0.91 0.0 0 1 40.44 86.12
  Q 43.80 84.26 47.54 85.27
  Q 47.97 85.39 48.41 85.31
  L 56.80 83.78
  Z
  M 57.16 91.07
  L 59.32 90.87
  A 0.69 0.69 0.0 0 0 59.26 89.50
  L 57.38 89.50
  Q 56.75 89.50 56.75 88.88
  L 56.75 88.52
  Q 56.75 88.04 57.23 87.97
  L 59.97 87.57
  A 0.62 0.62 0.0 0 0 59.93 86.33
  L 56.02 86.01
  A 0.72 0.71 1.8 0 0 55.25 86.73
  L 55.26 93.69
  A 0.75 0.75 0.0 0 0 56.65 94.07
  Q 57.37 92.85 56.82 91.64
  A 0.41 0.40 -14.7 0 1 57.16 91.07
  Z
  M 74.66 86.15
  L 69.67 85.93
  Q 68.66 85.89 68.96 86.85
  L 69.15 87.47
  Q 69.32 88.01 69.88 88.00
  Q 70.29 88.00 70.68 88.00
  Q 71.25 88.00 71.25 88.56
  L 71.25 93.96
  A 0.67 0.67 0.0 0 0 72.26 94.54
  Q 73.04 94.08 72.90 92.73
  Q 72.69 90.78 72.75 88.74
  Q 72.77 88.20 73.31 88.10
  L 74.79 87.81
  A 0.84 0.84 0.0 0 0 74.66 86.15
  Z
  M 83.42 88.87
  Q 83.05 91.03 83.53 93.19
  A 1.13 1.13 0.0 0 0 84.72 94.06
  C 93.85 93.24 88.00 82.53 82.82 86.85
  Q 82.42 87.18 82.75 87.59
  L 83.24 88.18
  A 0.87 0.84 31.5 0 1 83.42 88.87
  Z
  M 80.33 92.94
  Q 80.46 93.70 81.34 94.42
  Q 81.88 94.86 82.05 94.18
  C 82.69 91.60 80.54 89.05 79.64 86.77
  A 1.09 1.09 0.0 0 0 77.60 86.82
  L 75.35 93.38
  A 0.86 0.86 0.0 0 0 76.97 93.98
  Q 77.25 93.29 77.28 93.01
  A 1.54 1.54 0.0 0 1 80.33 92.94
  Z
  M 52.36 92.90
  Q 50.76 93.06 49.58 92.12
  A 0.53 0.52 10.4 0 0 48.75 92.69
  C 49.47 94.88 52.74 95.16 54.08 93.23
  A 2.00 1.99 -50.5 0 0 53.84 90.68
  Q 52.59 89.44 50.84 89.45
  A 0.65 0.65 0.0 0 1 50.78 88.16
  L 53.31 87.92
  A 0.56 0.55 53.0 0 0 53.46 86.85
  Q 50.30 85.63 48.73 88.64
  A 0.81 0.81 0.0 0 0 48.83 89.55
  Q 50.04 90.97 51.94 91.05
  A 1.04 0.85 37.9 0 1 52.36 92.90
  Z
  M 63.3521 94.8360
  A 4.24 3.59 107.4 0 0 68.0457 91.8636
  A 4.24 3.59 107.4 0 0 65.8879 86.7440
  A 4.24 3.59 107.4 0 0 61.1943 89.7164
  A 4.24 3.59 107.4 0 0 63.3521 94.8360
  Z
  M 92.8483 94.8650
  A 4.31 3.65 107.3 0 0 97.6149 91.8354
  A 4.31 3.65 107.3 0 0 95.4117 86.6350
  A 4.31 3.65 107.3 0 0 90.6451 89.6646
  A 4.31 3.65 107.3 0 0 92.8483 94.8650
  Z
  M 102.58 91.31
  A 0.77 0.77 0.0 0 1 102.55 92.84
  Q 101.01 92.96 99.74 92.22
  A 0.49 0.49 0.0 0 0 99.10 92.94
  Q 101.07 95.55 103.83 93.79
  A 1.98 1.98 0.0 0 0 104.07 90.63
  Q 102.79 89.51 101.17 89.37
  A 0.57 0.57 0.0 0 1 100.95 88.30
  Q 102.00 87.74 102.98 88.22
  A 0.71 0.71 0.0 0 0 103.79 88.09
  L 104.07 87.81
  A 0.55 0.55 0.0 0 0 103.89 86.91
  Q 100.56 85.52 99.03 88.51
  Q 98.81 88.93 99.09 89.31
  Q 100.36 91.06 102.58 91.31
  Z
  M 44.17 88.32
  A 0.55 0.53 -77.0 0 1 44.57 88.06
  L 47.21 87.82
  A 0.38 0.38 0.0 0 0 47.18 87.06
  L 42.85 87.04
  Q 42.25 87.04 42.25 87.65
  L 42.25 93.14
  A 0.83 0.83 0.0 0 0 43.08 93.97
  L 46.80 93.97
  A 0.71 0.70 -43.9 0 0 46.83 92.56
  L 44.09 92.47
  A 0.49 0.49 0.0 0 1 43.65 91.81
  L 43.78 91.45
  Q 43.94 91.03 44.39 91.02
  Q 45.52 90.99 46.55 90.58
  A 0.63 0.63 0.0 0 0 46.88 89.72
  Q 46.37 88.71 45.01 89.14
  Q 43.38 89.65 44.17 88.32
  Z"
/>
<path fill="#858388" d="
  M 56.82 91.64
  Q 57.37 92.85 56.65 94.07
  A 0.75 0.75 0.0 0 1 55.26 93.69
  L 55.25 86.73
  A 0.72 0.71 1.8 0 1 56.02 86.01
  L 59.93 86.33
  A 0.62 0.62 0.0 0 1 59.97 87.57
  L 57.23 87.97
  Q 56.75 88.04 56.75 88.52
  L 56.75 88.88
  Q 56.75 89.50 57.38 89.50
  L 59.26 89.50
  A 0.69 0.69 0.0 0 1 59.32 90.87
  L 57.16 91.07
  A 0.41 0.40 -14.7 0 0 56.82 91.64
  Z"
/>
<path fill="#858388" d="
  M 74.66 86.15
  A 0.84 0.84 0.0 0 1 74.79 87.81
  L 73.31 88.10
  Q 72.77 88.20 72.75 88.74
  Q 72.69 90.78 72.90 92.73
  Q 73.04 94.08 72.26 94.54
  A 0.67 0.67 0.0 0 1 71.25 93.96
  L 71.25 88.56
  Q 71.25 88.00 70.68 88.00
  Q 70.29 88.00 69.88 88.00
  Q 69.32 88.01 69.15 87.47
  L 68.96 86.85
  Q 68.66 85.89 69.67 85.93
  L 74.66 86.15
  Z"
/>
<path fill="#858388" d="
  M 83.24 88.18
  L 82.75 87.59
  Q 82.42 87.18 82.82 86.85
  C 88.00 82.53 93.85 93.24 84.72 94.06
  A 1.13 1.13 0.0 0 1 83.53 93.19
  Q 83.05 91.03 83.42 88.87
  A 0.87 0.84 31.5 0 0 83.24 88.18
  Z
  M 85.01 88.38
  L 84.99 92.37
  A 0.41 0.41 0.0 0 0 85.40 92.79
  L 85.51 92.79
  A 2.34 2.33 0.2 0 0 87.86 90.46
  L 87.86 90.30
  A 2.34 2.33 0.2 0 0 85.53 87.97
  L 85.42 87.97
  A 0.41 0.41 0.0 0 0 85.01 88.38
  Z"
/>
<path fill="#858388" d="
  M 80.33 92.94
  A 1.54 1.54 0.0 0 0 77.28 93.01
  Q 77.25 93.29 76.97 93.98
  A 0.86 0.86 0.0 0 1 75.35 93.38
  L 77.60 86.82
  A 1.09 1.09 0.0 0 1 79.64 86.77
  C 80.54 89.05 82.69 91.60 82.05 94.18
  Q 81.88 94.86 81.34 94.42
  Q 80.46 93.70 80.33 92.94
  Z
  M 78.00 90.25
  L 78.18 90.80
  A 0.45 0.45 0.0 0 0 78.73 91.10
  Q 80.37 90.61 78.96 89.57
  A 0.62 0.62 0.0 0 0 78.00 90.25
  Z"
/>
<path fill="#858388" d="
  M 52.36 92.90
  A 1.04 0.85 37.9 0 0 51.94 91.05
  Q 50.04 90.97 48.83 89.55
  A 0.81 0.81 0.0 0 1 48.73 88.64
  Q 50.30 85.63 53.46 86.85
  A 0.56 0.55 53.0 0 1 53.31 87.92
  L 50.78 88.16
  A 0.65 0.65 0.0 0 0 50.84 89.45
  Q 52.59 89.44 53.84 90.68
  A 2.00 1.99 -50.5 0 1 54.08 93.23
  C 52.74 95.16 49.47 94.88 48.75 92.69
  A 0.53 0.52 10.4 0 1 49.58 92.12
  Q 50.76 93.06 52.36 92.90
  Z"
/>
<path fill="#858388" d="
  M 63.3521 94.8360
  A 4.24 3.59 107.4 0 1 61.1943 89.7164
  A 4.24 3.59 107.4 0 1 65.8879 86.7440
  A 4.24 3.59 107.4 0 1 68.0457 91.8636
  A 4.24 3.59 107.4 0 1 63.3521 94.8360
  Z
  M 63.7390 92.9790
  A 2.83 2.11 107.5 0 0 66.6023 90.9145
  A 2.83 2.11 107.5 0 0 65.4410 87.5810
  A 2.83 2.11 107.5 0 0 62.5777 89.6455
  A 2.83 2.11 107.5 0 0 63.7390 92.9790
  Z"
/>
<path fill="#858388" d="
  M 92.8483 94.8650
  A 4.31 3.65 107.3 0 1 90.6451 89.6646
  A 4.31 3.65 107.3 0 1 95.4117 86.6350
  A 4.31 3.65 107.3 0 1 97.6149 91.8354
  A 4.31 3.65 107.3 0 1 92.8483 94.8650
  Z
  M 93.3255 93.0011
  A 2.81 2.02 106.0 0 0 96.0417 90.8568
  A 2.81 2.02 106.0 0 0 94.8745 87.5989
  A 2.81 2.02 106.0 0 0 92.1583 89.7432
  A 2.81 2.02 106.0 0 0 93.3255 93.0011
  Z"
/>
<path fill="#858388" d="
  M 102.58 91.31
  Q 100.36 91.06 99.09 89.31
  Q 98.81 88.93 99.03 88.51
  Q 100.56 85.52 103.89 86.91
  A 0.55 0.55 0.0 0 1 104.07 87.81
  L 103.79 88.09
  A 0.71 0.71 0.0 0 1 102.98 88.22
  Q 102.00 87.74 100.95 88.30
  A 0.57 0.57 0.0 0 0 101.17 89.37
  Q 102.79 89.51 104.07 90.63
  A 1.98 1.98 0.0 0 1 103.83 93.79
  Q 101.07 95.55 99.10 92.94
  A 0.49 0.49 0.0 0 1 99.74 92.22
  Q 101.01 92.96 102.55 92.84
  A 0.77 0.77 0.0 0 0 102.58 91.31
  Z"
/>
<path fill="#858388" d="
  M 44.17 88.32
  Q 43.38 89.65 45.01 89.14
  Q 46.37 88.71 46.88 89.72
  A 0.63 0.63 0.0 0 1 46.55 90.58
  Q 45.52 90.99 44.39 91.02
  Q 43.94 91.03 43.78 91.45
  L 43.65 91.81
  A 0.49 0.49 0.0 0 0 44.09 92.47
  L 46.83 92.56
  A 0.71 0.70 -43.9 0 1 46.80 93.97
  L 43.08 93.97
  A 0.83 0.83 0.0 0 1 42.25 93.14
  L 42.25 87.65
  Q 42.25 87.04 42.85 87.04
  L 47.18 87.06
  A 0.38 0.38 0.0 0 1 47.21 87.82
  L 44.57 88.06
  A 0.55 0.53 -77.0 0 0 44.17 88.32
  Z"
/>
<ellipse fill="#ffffff" cx="0.00" cy="0.00" transform="translate(64.59,90.28) rotate(107.5)" rx="2.83" ry="2.11"/>
<ellipse fill="#ffffff" cx="0.00" cy="0.00" transform="translate(94.10,90.30) rotate(106.0)" rx="2.81" ry="2.02"/>
<path fill="#ffffff" d="
  M 85.01 88.38
  A 0.41 0.41 0.0 0 1 85.42 87.97
  L 85.53 87.97
  A 2.34 2.33 0.2 0 1 87.86 90.30
  L 87.86 90.46
  A 2.34 2.33 0.2 0 1 85.51 92.79
  L 85.40 92.79
  A 0.41 0.41 0.0 0 1 84.99 92.37
  L 85.01 88.38
  Z"
/>
<path fill="#ffffff" d="
  M 78.00 90.25
  A 0.62 0.62 0.0 0 1 78.96 89.57
  Q 80.37 90.61 78.73 91.10
  A 0.45 0.45 0.0 0 1 78.18 90.80
  L 78.00 90.25
  Z"
/>
<path fill="#a91e1e" d="
  M 73.53 96.67
  L 73.70 100.50
  L 73.29 100.51
  Q 72.80 100.53 72.90 100.05
  Q 73.21 98.54 71.55 98.37
  Q 66.03 97.80 63.51 97.03
  Q 66.89 97.25 68.93 94.65
  Q 69.26 94.23 69.50 94.71
  Q 70.55 96.82 73.53 96.67
  Z"
/>
<path fill="#a91e1e" d="
  M 92.77 96.92
  Q 90.56 97.34 86.76 97.24
  Q 80.40 97.07 75.62 99.96
  Q 75.26 98.17 75.71 96.54
  Q 77.43 96.75 78.63 95.00
  Q 78.97 94.50 79.28 95.02
  C 80.92 97.83 87.29 95.51 89.03 94.96
  Q 89.47 94.82 89.78 95.17
  Q 91.02 96.58 92.77 96.92
  Z"
/>
<path fill="#771011" d="
  M 101.91 96.73
  L 134.51 97.91
  L 136.16 101.67
  Q 136.46 102.35 135.72 102.42
  L 132.29 102.75
  Q 131.61 101.52 130.24 101.60
  Q 108.15 102.94 91.55 103.04
  Q 91.39 103.04 91.31 103.17
  L 91.09 103.55
  Q 90.87 103.92 91.30 103.91
  L 109.71 103.85
  L 107.94 110.83
  C 97.38 110.93 86.98 110.45 76.42 111.15
  Q 75.89 111.18 75.82 110.65
  C 75.60 108.95 76.28 105.67 75.12 104.49
  A 0.71 0.71 0.0 0 0 73.91 104.98
  L 73.80 110.47
  Q 73.79 110.99 73.26 110.98
  C 57.38 110.66 41.67 110.93 25.79 111.25
  C 24.90 111.27 24.00 110.91 22.93 111.01
  Q 22.31 111.07 22.08 110.50
  L 19.68 104.45
  Q 19.51 104.03 19.09 104.20
  L 18.22 104.55
  L 17.75 103.54
  L 18.14 103.24
  A 1.44 1.43 -63.0 0 1 18.99 102.96
  Q 33.60 102.99 48.22 103.00
  C 53.39 103.00 60.91 102.33 67.36 102.75
  C 69.74 102.90 71.62 102.33 73.79 101.62
  Q 74.45 102.66 75.14 102.99
  A 0.41 0.41 0.0 0 0 75.73 102.61
  L 75.62 99.96
  Q 80.40 97.07 86.76 97.24
  Q 90.56 97.34 92.77 96.92
  Q 95.57 97.48 97.59 95.61
  Q 97.96 95.26 98.44 95.44
  L 101.91 96.73
  Z"
/>
<path fill="#020001" d="
  M 75.71 96.54
  Q 75.26 98.17 75.62 99.96
  L 75.73 102.61
  A 0.41 0.41 0.0 0 1 75.14 102.99
  Q 74.45 102.66 73.79 101.62
  L 73.70 100.50
  L 73.53 96.67
  Q 73.44 96.28 73.97 95.98
  Q 74.32 95.77 74.69 95.87
  Q 75.26 96.02 75.71 96.54
  Z"
/>
<path fill="#680b0c" d="
  M 63.21 97.06
  Q 62.66 96.88 63.51 97.03
  Q 66.03 97.80 71.55 98.37
  Q 73.21 98.54 72.90 100.05
  Q 72.80 100.53 73.29 100.51
  L 73.70 100.50
  L 73.79 101.62
  C 71.62 102.33 69.74 102.90 67.36 102.75
  C 60.91 102.33 53.39 103.00 48.22 103.00
  Q 33.60 102.99 18.99 102.96
  A 1.44 1.43 -63.0 0 0 18.14 103.24
  L 17.75 103.54
  L 13.80 103.17
  Q 13.23 103.12 12.99 102.59
  Q 12.29 101.08 14.13 97.85
  Q 31.39 96.75 49.13 97.39
  Q 49.63 97.41 50.07 97.20
  Q 51.26 96.63 52.32 97.31
  Q 52.72 97.57 53.20 97.51
  C 56.65 97.08 59.69 97.98 63.21 97.06
  Z"
/>
<path fill="#a91e1e" d="
  M 132.29 102.75
  Q 132.02 103.05 131.50 103.27
  L 129.60 103.38
  L 109.71 103.85
  L 91.30 103.91
  Q 90.87 103.92 91.09 103.55
  L 91.31 103.17
  Q 91.39 103.04 91.55 103.04
  Q 108.15 102.94 130.24 101.60
  Q 131.61 101.52 132.29 102.75
  Z"
/>
<path fill="#680b0c" d="
  M 131.50 103.27
  L 128.23 112.70
  Q 128.12 113.00 127.81 113.00
  L 22.40 113.00
  Q 21.84 113.00 21.62 112.48
  L 18.22 104.55
  L 19.09 104.20
  Q 19.51 104.03 19.68 104.45
  L 22.08 110.50
  Q 22.31 111.07 22.93 111.01
  C 24.00 110.91 24.90 111.27 25.79 111.25
  C 41.67 110.93 57.38 110.66 73.26 110.98
  Q 73.79 110.99 73.80 110.47
  L 73.91 104.98
  A 0.71 0.71 0.0 0 1 75.12 104.49
  C 76.28 105.67 75.60 108.95 75.82 110.65
  Q 75.89 111.18 76.42 111.15
  C 86.98 110.45 97.38 110.93 107.94 110.83
  L 126.83 110.92
  Q 127.41 110.93 127.57 110.37
  L 129.60 103.38
  L 131.50 103.27
  Z"
/>
<path fill="#901818" d="
  M 129.60 103.38
  L 127.57 110.37
  Q 127.41 110.93 126.83 110.92
  L 107.94 110.83
  L 109.71 103.85
  L 129.60 103.38
  Z"
/>
</svg>
