<?xml version="1.0" encoding="UTF-8" standalone="no"?>
<!DOCTYPE svg PUBLIC "-//W3C//DTD SVG 1.1//EN" "http://www.w3.org/Graphics/SVG/1.1/DTD/svg11.dtd">
<svg xmlns="http://www.w3.org/2000/svg" version="1.1" viewBox="0.00 0.00 479.00 457.00">
<g stroke-width="2.00" fill="none" stroke-linecap="butt">
<path stroke="#7fdbd8" vector-effect="non-scaling-stroke" d="
  M 166.73 47.84
  C 158.36 53.14 150.09 58.18 143.05 64.87
  C 134.62 72.88 124.71 82.56 119.19 92.85
  A 0.47 0.47 0.0 0 0 119.68 93.54
  C 146.58 89.45 176.02 91.13 200.76 95.27
  C 248.57 103.27 298.69 127.09 332.65 162.25"
/>
<path stroke="#7fc7ca" vector-effect="non-scaling-stroke" d="
  M 332.65 162.25
  C 348.71 179.45 364.42 201.89 368.13 226.33
  Q 368.38 227.96 369.02 226.44
  C 375.04 212.22 379.12 197.83 380.17 182.29
  C 381.57 161.34 380.05 140.90 371.94 121.22"
/>
<path stroke="#7fdbd8" vector-effect="non-scaling-stroke" d="
  M 371.94 121.22
  Q 367.34 110.05 360.64 99.38"
/>
<path stroke="#7fe4e3" vector-effect="non-scaling-stroke" d="
  M 360.64 99.38
  C 321.73 37.33 243.49 13.20 176.81 42.35
  Q 171.18 44.81 166.73 47.84"
/>
<path stroke="#00c1bc" vector-effect="non-scaling-stroke" d="
  M 360.64 99.38
  Q 360.73 104.44 364.14 108.45
  C 365.67 110.24 365.98 111.88 366.93 113.90
  Q 367.13 114.32 366.72 114.53
  L 362.81 116.58
  Q 362.43 116.78 362.13 117.09
  Q 361.27 117.99 359.71 118.16
  Q 359.17 118.22 359.14 117.77
  Q 359.11 117.38 358.72 117.45
  Q 355.00 118.09 351.68 116.25
  Q 351.25 116.01 351.25 115.52
  L 351.25 113.42
  Q 351.25 112.96 350.92 113.29
  L 350.56 113.65
  Q 350.32 113.89 349.98 113.89
  Q 347.09 113.95 346.52 111.35
  Q 346.41 110.87 345.94 110.74
  Q 342.34 109.80 337.67 106.55
  Q 334.34 104.24 326.74 101.52
  Q 326.45 101.42 326.25 101.51
  Q 325.86 101.69 326.29 101.72
  Q 326.78 101.75 327.02 102.18
  Q 327.32 102.73 326.73 102.52
  L 291.64 90.06
  A 0.19 0.19 0.0 0 0 291.39 90.21
  L 291.33 90.53
  A 0.20 0.20 0.0 0 1 291.04 90.67
  C 280.87 85.62 270.31 82.69 260.63 76.43
  C 258.10 74.80 255.18 73.90 252.86 72.70
  Q 245.40 68.85 237.32 66.55
  C 235.23 65.95 233.91 64.30 231.78 63.44
  C 226.23 61.20 220.83 58.35 214.82 57.40
  C 206.92 56.17 201.32 52.49 193.88 51.21
  Q 193.44 51.13 193.04 51.36
  L 191.99 51.97
  Q 191.70 52.14 191.56 51.83
  Q 191.39 51.44 190.93 51.37
  C 185.10 50.43 179.10 51.09 173.57 49.67
  Q 170.04 48.77 166.73 47.84"
/>
<path stroke="#00a4a2" vector-effect="non-scaling-stroke" d="
  M 371.94 121.22
  Q 369.93 122.41 370.92 124.52
  Q 373.94 130.96 374.68 138.06
  Q 374.68 138.14 374.76 138.17
  Q 374.92 138.22 375.08 138.28
  Q 375.46 138.41 375.53 138.81
  C 378.23 154.23 360.28 156.89 349.27 156.44
  Q 346.53 156.33 344.00 157.58
  Q 343.79 157.68 344.02 157.71
  L 347.48 158.25
  A 0.26 0.26 0.0 0 1 347.52 158.76
  L 341.10 160.62
  Q 340.64 160.75 340.18 160.64
  L 337.09 159.88
  Q 336.59 159.76 336.28 160.16
  Q 334.98 161.84 332.65 162.25"
/>
<path stroke="#7fbcc3" vector-effect="non-scaling-stroke" d="
  M 117.29 116.53
  L 103.95 119.61
  Q 103.46 119.73 103.31 120.20
  C 98.41 135.73 93.56 148.13 93.00 164.22
  A 0.91 0.91 0.0 0 0 93.85 165.16
  C 109.05 166.06 124.53 167.39 139.27 170.86
  Q 173.95 179.01 206.07 194.45
  C 214.08 198.29 221.86 203.60 229.59 208.46
  Q 247.22 219.54 261.14 235.08"
/>
<path stroke="#7faeb8" vector-effect="non-scaling-stroke" d="
  M 261.14 235.08
  C 277.94 253.07 289.97 273.58 287.33 298.81
  Q 287.27 299.41 287.83 299.18
  Q 315.30 287.75 335.65 266.73
  C 345.66 256.39 350.52 245.68 348.04 231.61"
/>
<path stroke="#7fbcc3" vector-effect="non-scaling-stroke" d="
  M 348.04 231.61
  C 344.89 205.54 326.12 181.74 306.90 164.93"
/>
<path stroke="#7fcdca" vector-effect="non-scaling-stroke" d="
  M 306.90 164.93
  C 286.83 148.59 265.68 136.23 241.25 127.49
  C 200.50 112.92 159.56 107.70 117.29 116.53"
/>
<path stroke="#008b8e" vector-effect="non-scaling-stroke" d="
  M 306.90 164.93
  Q 304.34 168.16 300.90 169.29
  C 297.25 170.49 294.62 173.21 291.83 175.69
  Q 291.47 176.00 290.99 176.00
  L 287.50 176.00
  Q 287.25 176.00 287.25 176.25
  Q 287.25 176.40 287.25 176.56
  Q 287.26 176.82 286.99 176.80
  Q 283.65 176.55 280.46 175.51
  Q 279.69 175.25 280.51 175.25
  L 280.96 175.25
  A 0.23 0.23 0.0 0 0 281.01 174.80
  L 277.02 173.99
  Q 276.67 173.92 277.00 173.80
  L 277.74 173.52
  Q 278.33 173.31 277.71 173.19
  C 274.12 172.52 270.78 172.02 267.17 170.99
  C 261.47 169.37 255.64 168.65 250.07 166.66
  Q 246.89 165.52 243.68 164.52
  C 236.74 162.37 231.87 159.23 223.75 159.75
  Q 223.50 159.77 223.50 159.52
  Q 223.50 159.36 223.50 159.22
  Q 223.52 158.86 223.18 158.76
  L 215.86 156.40
  Q 215.48 156.28 215.09 156.39
  Q 213.24 156.93 212.60 155.24
  Q 212.45 154.84 212.05 154.70
  C 205.31 152.36 198.88 149.18 191.95 147.54
  C 188.02 146.61 183.84 147.68 180.07 146.66
  Q 175.74 145.48 162.16 139.85
  A 1.89 1.87 52.8 0 0 161.25 139.72
  Q 159.97 139.86 159.44 138.84
  A 1.24 1.17 -2.9 0 0 158.81 138.30
  Q 143.12 132.53 128.84 123.90
  C 125.97 122.16 123.22 121.06 120.22 119.77
  A 1.38 1.38 0.0 0 1 119.54 119.15
  Q 118.67 117.53 117.29 116.53"
/>
<path stroke="#006b7c" vector-effect="non-scaling-stroke" d="
  M 348.04 231.61
  Q 346.52 236.90 347.34 244.05
  A 0.94 0.94 0.0 0 1 346.19 245.07
  Q 335.38 242.49 325.19 237.27
  C 320.84 235.04 314.41 235.13 309.50 233.55
  C 302.41 231.27 295.22 230.71 288.00 229.47
  Q 287.46 229.38 287.21 228.97
  Q 287.02 228.65 286.65 228.61
  C 280.70 228.00 274.88 226.20 267.96 225.65
  C 266.25 225.52 265.41 226.23 264.29 227.32
  Q 263.91 227.69 263.80 228.21
  Q 263.27 230.68 261.65 232.61
  Q 261.36 232.95 261.46 233.39
  Q 261.68 234.32 261.14 235.08"
/>
<path stroke="#f9bc9b" vector-effect="non-scaling-stroke" d="
  M 104.16 227.14
  Q 114.46 251.85 132.97 270.59"
/>
<path stroke="#efb192" vector-effect="non-scaling-stroke" d="
  M 132.97 270.59
  C 169.36 306.32 218.45 317.26 267.42 304.89
  A 1.07 1.07 0.0 0 0 268.23 303.85
  C 268.29 297.24 268.64 290.13 267.73 283.68
  C 265.74 269.66 255.71 255.68 245.46 246.15"
/>
<path stroke="#f9bc9b" vector-effect="non-scaling-stroke" d="
  M 245.46 246.15
  Q 232.89 233.00 216.63 223.04"
/>
<path stroke="#fed0b6" vector-effect="non-scaling-stroke" d="
  M 216.63 223.04
  C 200.01 213.11 182.16 204.41 163.56 198.58
  C 139.63 191.07 117.46 186.85 93.66 185.91
  A 0.69 0.69 0.0 0 0 92.95 186.67
  Q 95.08 208.21 104.16 227.14"
/>
<path stroke="#fa8e52" vector-effect="non-scaling-stroke" d="
  M 216.63 223.04
  C 213.09 224.62 207.27 224.87 203.01 225.46
  C 200.18 225.86 197.33 227.31 194.20 227.72
  C 192.25 227.98 190.96 226.77 188.97 227.88
  Q 188.47 228.15 187.94 227.99
  Q 186.66 227.59 185.31 227.79
  A 0.06 0.06 0.0 0 1 185.26 227.69
  L 185.49 227.48
  A 0.12 0.12 0.0 0 0 185.41 227.27
  C 178.71 227.49 173.47 229.64 167.01 227.38
  C 164.81 226.61 161.25 227.57 158.61 227.15
  Q 151.82 226.07 145.01 225.15
  Q 144.33 225.06 144.96 224.80
  Q 145.39 224.62 145.91 224.72
  Q 145.95 224.72 145.94 224.68
  Q 145.93 224.66 145.93 224.64
  Q 145.92 224.56 145.85 224.55
  C 142.70 224.03 140.23 223.26 136.95 223.71
  Q 128.41 224.87 120.00 224.06
  A 0.02 0.02 0.0 0 1 119.99 224.02
  Q 122.40 223.66 125.14 223.44
  Q 125.19 223.44 125.19 223.40
  Q 125.18 223.38 125.18 223.36
  Q 125.19 223.27 125.10 223.27
  C 117.61 223.31 111.24 222.54 104.16 227.14"
/>
<path stroke="#eb6f2e" vector-effect="non-scaling-stroke" d="
  M 245.46 246.15
  Q 244.08 246.31 242.87 245.81
  Q 242.42 245.62 242.11 245.98
  C 237.51 251.23 234.89 251.14 228.24 251.70
  Q 227.73 251.74 227.53 252.22
  Q 227.17 253.07 226.32 252.88
  Q 225.93 252.80 225.55 252.86
  Q 223.30 253.26 221.11 253.96
  C 218.21 254.89 215.20 254.55 212.30 255.58
  Q 209.73 256.50 208.04 256.55
  C 205.01 256.65 201.19 256.18 198.41 257.46
  C 195.45 258.83 193.63 259.55 190.04 259.73
  Q 186.02 259.93 181.57 261.10
  C 177.18 262.25 171.66 262.21 167.81 262.74
  C 159.80 263.84 150.58 264.22 142.88 266.45
  C 138.79 267.64 135.12 265.42 132.97 270.59"
/>
<path stroke="#829396" vector-effect="non-scaling-stroke" d="
  M 160.57 402.61
  C 171.68 409.34 187.75 405.77 194.59 394.31
  C 200.07 385.15 202.62 371.14 196.33 361.58
  C 190.12 352.13 182.88 350.00 171.86 350.64
  C 159.56 351.35 151.04 357.79 148.89 370.53
  C 146.56 384.37 147.96 394.97 160.57 402.61"
/>
<path stroke="#829396" vector-effect="non-scaling-stroke" d="
  M 102.97 403.27
  Q 109.94 408.60 118.87 407.54
  C 130.41 406.17 139.32 402.40 139.75 389.24
  Q 140.08 378.73 140.34 351.65
  Q 140.34 351.29 139.97 351.30
  L 128.63 351.58
  Q 128.14 351.59 128.12 352.08
  Q 127.53 367.93 128.00 374.25
  C 128.67 383.12 129.84 394.44 119.76 396.23
  C 110.63 397.85 108.13 390.02 108.22 382.74
  Q 108.42 367.02 108.67 351.24
  Q 108.68 350.84 108.28 350.86
  L 96.94 351.36
  Q 96.48 351.38 96.48 351.83
  Q 96.27 368.90 96.03 385.97
  C 95.92 393.73 97.05 398.75 102.97 403.27"
/>
<path stroke="#829396" vector-effect="non-scaling-stroke" d="
  M 299.85 401.65
  C 306.49 407.77 316.65 407.51 325.27 406.09
  C 340.65 403.57 339.46 382.17 339.47 371.08
  Q 339.48 361.24 339.19 351.41
  Q 339.18 350.96 338.73 350.98
  L 327.76 351.50
  Q 327.26 351.52 327.28 352.02
  Q 327.66 367.39 327.77 382.77
  Q 327.81 387.37 326.88 389.62
  C 323.01 398.96 306.74 397.47 306.22 387.48
  Q 305.49 373.74 306.38 351.61
  Q 306.41 350.96 305.76 350.98
  L 294.48 351.33
  Q 294.04 351.34 294.03 351.78
  Q 293.48 369.66 293.67 387.57
  Q 293.75 396.02 299.85 401.65"
/>
<path stroke="#829396" vector-effect="non-scaling-stroke" d="
  M 55.21 387.91
  L 77.71 388.04
  Q 78.21 388.04 78.21 387.54
  L 78.19 377.47
  Q 78.19 377.00 77.72 377.00
  L 56.00 377.00
  A 0.50 0.50 0.0 0 1 55.50 376.50
  L 55.50 363.51
  Q 55.49 362.70 56.30 362.70
  L 83.49 362.85
  Q 83.85 362.86 83.87 362.50
  L 84.48 351.50
  Q 84.51 350.99 84.00 351.00
  L 43.21 351.33
  A 0.47 0.46 -0.6 0 0 42.75 351.79
  L 42.75 407.22
  Q 42.75 407.70 43.22 407.72
  L 54.67 408.34
  Q 55.22 408.36 55.24 407.82
  C 55.53 400.30 56.12 393.64 54.89 388.32
  Q 54.79 387.91 55.21 387.91"
/>
<path stroke="#829396" vector-effect="non-scaling-stroke" d="
  M 249.89 387.82
  L 272.08 388.30
  Q 272.47 388.31 272.47 387.92
  L 272.44 377.74
  Q 272.44 377.28 271.99 377.28
  L 250.37 376.92
  A 0.87 0.86 90.0 0 1 249.52 376.06
  L 249.45 363.03
  Q 249.45 362.51 249.97 362.52
  L 278.52 363.09
  Q 279.19 363.10 279.18 362.43
  L 278.93 351.66
  Q 278.92 351.15 278.41 351.15
  L 237.22 351.29
  Q 236.75 351.30 236.75 351.77
  C 237.02 369.31 236.56 386.95 237.49 404.45
  Q 237.51 404.91 237.98 404.93
  L 248.34 405.29
  Q 248.99 405.32 249.01 404.66
  L 249.58 388.11
  Q 249.59 387.81 249.89 387.82"
/>
<path stroke="#829396" vector-effect="non-scaling-stroke" d="
  M 362.97 363.13
  Q 362.05 385.47 363.03 407.79
  A 0.49 0.49 0.0 0 0 363.52 408.25
  L 374.47 408.25
  Q 374.93 408.25 374.94 407.78
  L 375.22 363.46
  Q 375.23 362.65 376.04 362.67
  L 391.37 363.01
  Q 391.88 363.02 391.91 362.51
  Q 391.93 362.14 391.70 361.76
  Q 391.47 361.38 391.47 360.93
  L 391.56 351.44
  Q 391.56 351.00 391.13 351.01
  L 344.55 351.33
  Q 343.95 351.34 343.97 351.94
  L 344.36 361.92
  A 0.57 0.57 0.0 0 0 344.92 362.46
  L 362.52 362.66
  Q 362.99 362.67 362.97 363.13"
/>
<path stroke="#829396" vector-effect="non-scaling-stroke" d="
  M 407.89 405.35
  C 416.50 409.86 427.94 407.70 434.65 401.89
  C 442.12 395.43 445.87 380.82 443.15 371.29
  C 440.21 361.03 434.88 353.41 423.80 351.33
  C 411.79 349.07 398.85 354.60 396.28 367.51
  C 393.74 380.25 394.52 398.36 407.89 405.35"
/>
<path stroke="#7f7f80" vector-effect="non-scaling-stroke" d="
  M 280.38 406.45
  L 283.59 409.75
  A 0.17 0.17 0.0 0 0 283.83 409.75
  L 283.88 409.71
  A 2.33 1.86 45.8 0 0 283.59 406.74
  L 283.40 406.54
  A 2.33 1.86 45.8 0 0 280.44 406.16
  L 280.39 406.21
  A 0.17 0.17 0.0 0 0 280.38 406.45"
/>
<path stroke="#7f7f80" vector-effect="non-scaling-stroke" d="
  M 137.43 407.91
  L 137.43 409.95
  A 0.43 0.43 0.0 0 0 137.86 410.38
  L 138.19 410.38
  A 2.50 1.34 -0.1 0 0 140.69 409.04
  L 140.69 408.82
  A 2.50 1.34 -0.1 0 0 138.19 407.48
  L 137.86 407.48
  A 0.43 0.43 0.0 0 0 137.43 407.91"
/>
<path stroke="#7f7f80" vector-effect="non-scaling-stroke" d="
  M 132.54 420.83
  Q 130.55 420.35 129.43 421.97
  Q 128.98 422.63 129.75 422.80
  L 132.15 423.35
  A 0.87 0.86 5.7 0 1 132.82 424.16
  L 132.93 427.67
  A 0.94 0.93 -78.1 0 1 131.59 428.55
  L 127.34 426.50
  Q 126.98 426.33 127.00 426.72
  Q 127.00 426.97 127.27 427.24
  Q 129.49 429.53 131.80 430.08
  A 2.53 2.53 0.0 0 0 134.91 427.72
  C 135.05 424.27 136.14 416.38 134.78 413.25
  Q 134.52 412.66 133.87 412.61
  L 131.58 412.46
  Q 130.64 412.39 131.26 413.10
  Q 134.01 416.27 133.08 420.50
  Q 132.98 420.94 132.54 420.83"
/>
<path stroke="#7f7f80" vector-effect="non-scaling-stroke" d="
  M 299.70 414.68
  L 297.82 413.85
  A 0.24 0.24 0.0 0 0 297.50 413.97
  L 297.44 414.11
  A 14.63 1.27 -66.1 0 0 292.68 428.00
  L 292.68 428.00
  A 14.63 1.27 -66.1 0 0 299.77 415.14
  L 299.83 415.00
  A 0.24 0.24 0.0 0 0 299.70 414.68"
/>
<path stroke="#829396" vector-effect="non-scaling-stroke" d="
  M 149.34 414.81
  A 0.42 0.42 0.0 0 0 148.71 414.34
  Q 147.32 415.21 148.34 416.78
  A 0.27 0.27 0.0 0 0 148.83 416.70
  L 149.34 414.81"
/>
<path stroke="#7f7f80" vector-effect="non-scaling-stroke" d="
  M 337.31 416.77
  A 1.89 1.88 53.4 0 1 339.24 417.06
  L 342.53 419.80
  A 0.57 0.57 0.0 0 0 343.40 419.11
  L 341.21 414.52
  A 1.13 1.13 0.0 0 0 339.73 413.98
  L 333.90 416.63
  A 0.86 0.85 -15.8 0 0 333.41 417.50
  C 333.74 420.48 339.08 422.62 341.30 423.26
  Q 343.63 423.93 342.05 425.76
  Q 339.35 428.89 335.20 428.51
  A 0.63 0.61 -75.5 0 0 334.58 428.89
  Q 334.22 429.71 334.99 429.95
  C 339.91 431.48 349.00 427.93 343.89 421.44
  Q 343.57 421.03 343.06 420.94
  Q 340.10 420.43 337.46 419.32
  Q 334.34 418.01 337.31 416.77"
/>
<path stroke="#7f7f80" vector-effect="non-scaling-stroke" d="
  M 143.84 418.87
  Q 146.12 417.86 146.13 415.41
  Q 146.14 414.75 145.47 414.79
  Q 141.39 415.02 140.01 418.68
  C 138.41 422.93 144.21 426.59 147.51 427.90
  A 0.46 0.41 -3.4 0 1 147.70 428.05
  L 148.58 429.35
  Q 148.87 429.78 149.40 429.74
  Q 150.64 429.62 150.56 428.13
  A 1.10 1.07 -79.6 0 0 149.94 427.21
  C 147.47 426.03 141.78 423.14 143.06 419.70
  A 1.45 1.44 -2.1 0 1 143.84 418.87"
/>
<path stroke="#7f7f80" vector-effect="non-scaling-stroke" d="
  M 176.3987 430.2117
  A 7.74 6.36 84.3 0 0 181.9586 421.8783
  A 7.74 6.36 84.3 0 0 174.8613 414.8083
  A 7.74 6.36 84.3 0 0 169.3014 423.1417
  A 7.74 6.36 84.3 0 0 176.3987 430.2117"
/>
<path stroke="#7f7f80" vector-effect="non-scaling-stroke" d="
  M 286.6073 415.1709
  A 0.28 0.28 0.0 0 0 286.2520 414.9961
  L 285.4189 415.2797
  A 0.28 0.28 0.0 0 0 285.2441 415.6350
  L 290.2327 430.2891
  A 0.28 0.28 0.0 0 0 290.5880 430.4639
  L 291.4211 430.1803
  A 0.28 0.28 0.0 0 0 291.5959 429.8250
  L 286.6073 415.1709"
/>
<path stroke="#7f7f80" vector-effect="non-scaling-stroke" d="
  M 306.75 426.66
  L 304.68 421.87
  Q 304.34 421.09 305.19 421.11
  C 307.25 421.15 313.59 421.26 312.73 417.75
  C 311.51 412.80 305.85 414.42 303.94 417.54
  C 302.13 420.52 303.93 425.05 305.11 428.16
  Q 305.31 428.68 305.80 428.92
  Q 308.65 430.35 311.76 429.40
  Q 312.31 429.23 312.28 428.65
  L 312.17 426.95
  Q 312.11 425.96 311.36 426.61
  Q 309.76 428.01 307.59 427.39
  Q 307.00 427.23 306.75 426.66"
/>
<path stroke="#7f7f80" vector-effect="non-scaling-stroke" d="
  M 161.89 417.89
  A 1.58 1.57 5.3 0 1 163.08 419.32
  L 163.78 429.88
  Q 163.80 430.21 164.13 430.26
  L 164.43 430.30
  Q 165.34 430.42 165.29 429.51
  L 164.56 416.15
  Q 164.53 415.49 163.87 415.58
  L 156.73 416.53
  Q 156.36 416.58 156.16 416.26
  L 155.83 415.70
  Q 155.19 414.65 155.09 415.88
  Q 154.57 422.67 155.19 429.46
  Q 155.24 430.00 155.78 430.00
  L 156.04 430.00
  A 0.56 0.56 0.0 0 0 156.60 429.47
  L 157.15 419.16
  A 0.95 0.93 -12.5 0 1 157.66 418.38
  Q 159.65 417.32 161.89 417.89"
/>
<path stroke="#7f7f80" vector-effect="non-scaling-stroke" d="
  M 203.2475 415.8437
  A 0.54 0.54 0.0 0 0 202.6990 415.3122
  L 201.5992 415.3295
  A 0.54 0.54 0.0 0 0 201.0677 415.8779
  L 201.2725 428.9163
  A 0.54 0.54 0.0 0 0 201.8210 429.4478
  L 202.9208 429.4305
  A 0.54 0.54 0.0 0 0 203.4523 428.8821
  L 203.2475 415.8437"
/>
<path stroke="#7f7f80" vector-effect="non-scaling-stroke" d="
  M 207.00 416.09
  A 0.56 0.56 0.0 0 0 206.27 415.50
  Q 205.40 415.78 204.83 416.34
  A 0.94 0.94 0.0 0 0 206.05 417.77
  Q 206.87 417.17 207.00 416.09"
/>
<path stroke="#7f7f80" vector-effect="non-scaling-stroke" d="
  M 233.97 427.51
  L 228.86 427.67
  A 1.56 1.56 0.0 0 1 227.25 426.11
  L 227.25 416.00
  Q 227.25 415.25 226.50 415.25
  L 226.04 415.25
  Q 225.48 415.25 225.48 415.80
  C 225.50 418.53 224.86 425.48 226.16 427.61
  C 227.62 429.98 231.96 429.46 234.00 428.38
  Q 234.38 428.18 234.73 428.43
  L 235.76 429.17
  Q 236.42 429.65 236.42 428.83
  Q 236.41 422.46 238.21 416.41
  Q 238.41 415.75 237.72 415.75
  L 235.43 415.75
  Q 234.86 415.75 234.84 416.32
  L 234.51 426.97
  Q 234.49 427.50 233.97 427.51"
/>
<path stroke="#7f7f80" vector-effect="non-scaling-stroke" d="
  M 185.96 416.06
  C 184.00 421.12 182.98 430.35 191.41 429.56
  C 192.91 429.42 193.79 428.48 195.50 428.46
  Q 196.05 428.46 196.20 427.93
  Q 197.89 422.18 197.44 416.18
  Q 197.41 415.75 196.99 415.75
  L 195.96 415.75
  A 0.55 0.54 86.7 0 0 195.42 416.36
  Q 195.92 421.21 194.85 425.93
  Q 194.76 426.30 194.44 426.49
  C 192.31 427.75 186.04 429.41 186.52 424.75
  Q 186.96 420.48 187.65 416.53
  A 0.88 0.88 0.0 0 0 185.96 416.06"
/>
<path stroke="#7f7f80" vector-effect="non-scaling-stroke" d="
  M 251.22 425.69
  L 251.99 429.73
  Q 252.03 429.90 252.15 430.02
  Q 252.24 430.11 252.33 430.21
  A 0.32 0.31 27.0 0 0 252.87 430.04
  Q 253.54 424.90 251.63 420.13
  A 0.57 0.57 0.0 0 0 250.53 420.30
  Q 250.42 421.82 251.45 422.91
  Q 251.66 423.14 251.37 423.25
  Q 251.18 423.32 251.06 423.15
  Q 248.96 420.17 245.68 420.35
  A 1.36 1.36 0.0 0 1 245.24 417.68
  Q 248.24 416.84 250.75 418.39
  Q 251.12 418.62 251.06 418.19
  L 250.79 416.21
  A 0.87 0.86 85.3 0 0 249.90 415.45
  L 244.18 415.64
  Q 243.63 415.66 243.39 416.16
  C 241.23 420.68 245.92 421.85 248.81 423.11
  A 1.81 1.80 -51.3 0 1 249.15 426.22
  Q 246.10 428.46 242.46 427.27
  Q 241.87 427.08 241.73 427.68
  L 241.45 428.90
  Q 241.31 429.48 241.90 429.57
  C 245.67 430.15 249.79 429.99 250.50 425.70
  A 0.37 0.37 0.0 0 1 251.22 425.69"
/>
<path stroke="#7f7f80" vector-effect="non-scaling-stroke" d="
  M 320.92 416.67
  A 0.40 0.40 0.0 0 1 320.57 416.59
  L 318.77 415.04
  A 0.40 0.40 0.0 0 0 318.11 415.33
  L 317.60 430.06
  A 0.40 0.40 0.0 0 0 318.19 430.42
  L 319.23 429.87
  A 0.40 0.40 0.0 0 0 319.44 429.52
  L 319.64 418.96
  A 0.40 0.40 0.0 0 1 319.97 418.57
  L 327.04 417.31
  A 0.40 0.40 0.0 0 0 327.29 416.68
  L 326.47 415.60
  A 0.40 0.40 0.0 0 0 326.06 415.45
  L 320.92 416.67"
/>
<path stroke="#7f7f80" vector-effect="non-scaling-stroke" d="
  M 217.60 418.49
  C 219.03 420.81 218.29 426.51 218.00 429.16
  A 0.76 0.76 0.0 0 0 218.71 430.00
  Q 219.58 430.05 219.70 428.99
  C 220.16 424.89 221.08 420.00 218.72 416.33
  A 1.21 1.20 75.2 0 0 217.79 415.78
  Q 213.93 415.47 210.26 416.71
  A 0.86 0.85 -8.4 0 0 209.67 417.49
  L 209.33 429.28
  Q 209.31 429.75 209.78 429.75
  L 210.11 429.75
  Q 210.50 429.75 210.54 429.37
  L 211.60 420.28
  Q 211.67 419.75 212.09 419.43
  Q 214.17 417.84 216.78 418.00
  A 1.03 1.02 -14.0 0 1 217.60 418.49"
/>
<path stroke="#7f7f80" vector-effect="non-scaling-stroke" d="
  M 273.91 427.79
  C 267.83 427.68 268.56 420.49 267.80 416.29
  Q 267.71 415.76 267.17 415.77
  L 258.69 416.04
  A 0.57 0.57 0.0 0 0 258.15 416.55
  L 256.97 429.32
  Q 256.92 429.88 257.41 430.14
  Q 258.38 430.65 258.47 429.75
  Q 258.98 424.39 259.56 418.96
  Q 259.62 418.39 260.16 418.57
  Q 262.55 419.35 265.00 418.50
  A 1.12 1.11 -14.8 0 1 266.47 419.35
  C 267.03 422.51 267.31 427.30 270.03 429.29
  Q 270.44 429.59 270.94 429.56
  L 275.22 429.29
  Q 275.99 429.25 276.10 428.48
  L 277.67 416.47
  Q 277.77 415.75 277.04 415.75
  L 275.46 415.75
  Q 274.85 415.75 274.93 416.35
  Q 275.60 421.84 274.52 427.30
  Q 274.42 427.80 273.91 427.79"
/>
<path stroke="#7f7f80" vector-effect="non-scaling-stroke" d="
  M 282.4374 416.8678
  A 0.54 0.54 0.0 0 0 281.8576 416.3709
  L 281.3590 416.4092
  A 0.54 0.54 0.0 0 0 280.8621 416.9891
  L 281.8226 429.4722
  A 0.54 0.54 0.0 0 0 282.4024 429.9691
  L 282.9010 429.9308
  A 0.54 0.54 0.0 0 0 283.3979 429.3509
  L 282.4374 416.8678"
/>
<path stroke="#7f7f80" vector-effect="non-scaling-stroke" d="
  M 329.8236 416.8713
  A 0.26 0.26 0.0 0 0 329.5710 416.6042
  L 328.0316 416.5612
  A 0.26 0.26 0.0 0 0 327.7644 416.8138
  L 327.3964 429.9887
  A 0.26 0.26 0.0 0 0 327.6490 430.2558
  L 329.1884 430.2988
  A 0.26 0.26 0.0 0 0 329.4556 430.0462
  L 329.8236 416.8713"
/>
<path stroke="#7f7f80" vector-effect="non-scaling-stroke" d="
  M 143.4341 428.9208
  A 0.53 0.53 0.0 0 0 142.8851 428.4105
  L 138.5280 428.5703
  A 0.53 0.53 0.0 0 0 138.0178 429.1194
  L 138.0259 429.3392
  A 0.53 0.53 0.0 0 0 138.5749 429.8495
  L 142.9320 429.6897
  A 0.53 0.53 0.0 0 0 143.4422 429.1406
  L 143.4341 428.9208"
/>
<path stroke="#829396" vector-effect="non-scaling-stroke" d="
  M 167.24 392.75
  C 172.73 397.33 180.73 393.68 184.30 388.52
  Q 188.69 382.17 187.50 374.41
  C 185.24 359.65 164.86 357.62 160.52 372.33
  Q 157.02 384.21 167.24 392.75"
/>
<path stroke="#829396" vector-effect="non-scaling-stroke" d="
  M 413.19 393.31
  Q 419.15 397.78 425.23 394.10
  C 437.60 386.61 431.80 356.81 414.18 363.49
  C 403.94 367.37 405.79 387.77 413.19 393.31"
/>
<path stroke="#7f7f80" vector-effect="non-scaling-stroke" d="
  M 172.58 427.17
  C 175.63 432.35 185.06 422.72 178.65 418.10
  C 171.50 412.93 169.99 422.78 172.58 427.17"
/>
<path stroke="#7f7f80" vector-effect="non-scaling-stroke" d="
  M 305.31 420.29
  L 311.44 419.68
  A 0.47 0.47 0.0 0 0 311.86 419.16
  L 311.84 419.00
  A 3.03 2.87 -5.7 0 0 308.54 416.45
  L 307.51 416.55
  A 3.03 2.87 -5.7 0 0 304.78 419.71
  L 304.79 419.87
  A 0.47 0.47 0.0 0 0 305.31 420.29"
/>
</g>
<path fill="#fdfeff" d="
  M 0.00 0.00
  L 479.00 0.00
  L 479.00 457.00
  L 0.00 457.00
  L 0.00 0.00
  Z
  M 166.73 47.84
  C 158.36 53.14 150.09 58.18 143.05 64.87
  C 134.62 72.88 124.71 82.56 119.19 92.85
  A 0.47 0.47 0.0 0 0 119.68 93.54
  C 146.58 89.45 176.02 91.13 200.76 95.27
  C 248.57 103.27 298.69 127.09 332.65 162.25
  C 348.71 179.45 364.42 201.89 368.13 226.33
  Q 368.38 227.96 369.02 226.44
  C 375.04 212.22 379.12 197.83 380.17 182.29
  C 381.57 161.34 380.05 140.90 371.94 121.22
  Q 367.34 110.05 360.64 99.38
  C 321.73 37.33 243.49 13.20 176.81 42.35
  Q 171.18 44.81 166.73 47.84
  Z
  M 117.29 116.53
  L 103.95 119.61
  Q 103.46 119.73 103.31 120.20
  C 98.41 135.73 93.56 148.13 93.00 164.22
  A 0.91 0.91 0.0 0 0 93.85 165.16
  C 109.05 166.06 124.53 167.39 139.27 170.86
  Q 173.95 179.01 206.07 194.45
  C 214.08 198.29 221.86 203.60 229.59 208.46
  Q 247.22 219.54 261.14 235.08
  C 277.94 253.07 289.97 273.58 287.33 298.81
  Q 287.27 299.41 287.83 299.18
  Q 315.30 287.75 335.65 266.73
  C 345.66 256.39 350.52 245.68 348.04 231.61
  C 344.89 205.54 326.12 181.74 306.90 164.93
  C 286.83 148.59 265.68 136.23 241.25 127.49
  C 200.50 112.92 159.56 107.70 117.29 116.53
  Z
  M 104.16 227.14
  Q 114.46 251.85 132.97 270.59
  C 169.36 306.32 218.45 317.26 267.42 304.89
  A 1.07 1.07 0.0 0 0 268.23 303.85
  C 268.29 297.24 268.64 290.13 267.73 283.68
  C 265.74 269.66 255.71 255.68 245.46 246.15
  Q 232.89 233.00 216.63 223.04
  C 200.01 213.11 182.16 204.41 163.56 198.58
  C 139.63 191.07 117.46 186.85 93.66 185.91
  A 0.69 0.69 0.0 0 0 92.95 186.67
  Q 95.08 208.21 104.16 227.14
  Z
  M 160.57 402.61
  C 171.68 409.34 187.75 405.77 194.59 394.31
  C 200.07 385.15 202.62 371.14 196.33 361.58
  C 190.12 352.13 182.88 350.00 171.86 350.64
  C 159.56 351.35 151.04 357.79 148.89 370.53
  C 146.56 384.37 147.96 394.97 160.57 402.61
  Z
  M 102.97 403.27
  Q 109.94 408.60 118.87 407.54
  C 130.41 406.17 139.32 402.40 139.75 389.24
  Q 140.08 378.73 140.34 351.65
  Q 140.34 351.29 139.97 351.30
  L 128.63 351.58
  Q 128.14 351.59 128.12 352.08
  Q 127.53 367.93 128.00 374.25
  C 128.67 383.12 129.84 394.44 119.76 396.23
  C 110.63 397.85 108.13 390.02 108.22 382.74
  Q 108.42 367.02 108.67 351.24
  Q 108.68 350.84 108.28 350.86
  L 96.94 351.36
  Q 96.48 351.38 96.48 351.83
  Q 96.27 368.90 96.03 385.97
  C 95.92 393.73 97.05 398.75 102.97 403.27
  Z
  M 299.85 401.65
  C 306.49 407.77 316.65 407.51 325.27 406.09
  C 340.65 403.57 339.46 382.17 339.47 371.08
  Q 339.48 361.24 339.19 351.41
  Q 339.18 350.96 338.73 350.98
  L 327.76 351.50
  Q 327.26 351.52 327.28 352.02
  Q 327.66 367.39 327.77 382.77
  Q 327.81 387.37 326.88 389.62
  C 323.01 398.96 306.74 397.47 306.22 387.48
  Q 305.49 373.74 306.38 351.61
  Q 306.41 350.96 305.76 350.98
  L 294.48 351.33
  Q 294.04 351.34 294.03 351.78
  Q 293.48 369.66 293.67 387.57
  Q 293.75 396.02 299.85 401.65
  Z
  M 55.21 387.91
  L 77.71 388.04
  Q 78.21 388.04 78.21 387.54
  L 78.19 377.47
  Q 78.19 377.00 77.72 377.00
  L 56.00 377.00
  A 0.50 0.50 0.0 0 1 55.50 376.50
  L 55.50 363.51
  Q 55.49 362.70 56.30 362.70
  L 83.49 362.85
  Q 83.85 362.86 83.87 362.50
  L 84.48 351.50
  Q 84.51 350.99 84.00 351.00
  L 43.21 351.33
  A 0.47 0.46 -0.6 0 0 42.75 351.79
  L 42.75 407.22
  Q 42.75 407.70 43.22 407.72
  L 54.67 408.34
  Q 55.22 408.36 55.24 407.82
  C 55.53 400.30 56.12 393.64 54.89 388.32
  Q 54.79 387.91 55.21 387.91
  Z
  M 249.89 387.82
  L 272.08 388.30
  Q 272.47 388.31 272.47 387.92
  L 272.44 377.74
  Q 272.44 377.28 271.99 377.28
  L 250.37 376.92
  A 0.87 0.86 90.0 0 1 249.52 376.06
  L 249.45 363.03
  Q 249.45 362.51 249.97 362.52
  L 278.52 363.09
  Q 279.19 363.10 279.18 362.43
  L 278.93 351.66
  Q 278.92 351.15 278.41 351.15
  L 237.22 351.29
  Q 236.75 351.30 236.75 351.77
  C 237.02 369.31 236.56 386.95 237.49 404.45
  Q 237.51 404.91 237.98 404.93
  L 248.34 405.29
  Q 248.99 405.32 249.01 404.66
  L 249.58 388.11
  Q 249.59 387.81 249.89 387.82
  Z
  M 362.97 363.13
  Q 362.05 385.47 363.03 407.79
  A 0.49 0.49 0.0 0 0 363.52 408.25
  L 374.47 408.25
  Q 374.93 408.25 374.94 407.78
  L 375.22 363.46
  Q 375.23 362.65 376.04 362.67
  L 391.37 363.01
  Q 391.88 363.02 391.91 362.51
  Q 391.93 362.14 391.70 361.76
  Q 391.47 361.38 391.47 360.93
  L 391.56 351.44
  Q 391.56 351.00 391.13 351.01
  L 344.55 351.33
  Q 343.95 351.34 343.97 351.94
  L 344.36 361.92
  A 0.57 0.57 0.0 0 0 344.92 362.46
  L 362.52 362.66
  Q 362.99 362.67 362.97 363.13
  Z
  M 407.89 405.35
  C 416.50 409.86 427.94 407.70 434.65 401.89
  C 442.12 395.43 445.87 380.82 443.15 371.29
  C 440.21 361.03 434.88 353.41 423.80 351.33
  C 411.79 349.07 398.85 354.60 396.28 367.51
  C 393.74 380.25 394.52 398.36 407.89 405.35
  Z
  M 280.38 406.45
  L 283.59 409.75
  A 0.17 0.17 0.0 0 0 283.83 409.75
  L 283.88 409.71
  A 2.33 1.86 45.8 0 0 283.59 406.74
  L 283.40 406.54
  A 2.33 1.86 45.8 0 0 280.44 406.16
  L 280.39 406.21
  A 0.17 0.17 0.0 0 0 280.38 406.45
  Z
  M 137.43 407.91
  L 137.43 409.95
  A 0.43 0.43 0.0 0 0 137.86 410.38
  L 138.19 410.38
  A 2.50 1.34 -0.1 0 0 140.69 409.04
  L 140.69 408.82
  A 2.50 1.34 -0.1 0 0 138.19 407.48
  L 137.86 407.48
  A 0.43 0.43 0.0 0 0 137.43 407.91
  Z
  M 132.54 420.83
  Q 130.55 420.35 129.43 421.97
  Q 128.98 422.63 129.75 422.80
  L 132.15 423.35
  A 0.87 0.86 5.7 0 1 132.82 424.16
  L 132.93 427.67
  A 0.94 0.93 -78.1 0 1 131.59 428.55
  L 127.34 426.50
  Q 126.98 426.33 127.00 426.72
  Q 127.00 426.97 127.27 427.24
  Q 129.49 429.53 131.80 430.08
  A 2.53 2.53 0.0 0 0 134.91 427.72
  C 135.05 424.27 136.14 416.38 134.78 413.25
  Q 134.52 412.66 133.87 412.61
  L 131.58 412.46
  Q 130.64 412.39 131.26 413.10
  Q 134.01 416.27 133.08 420.50
  Q 132.98 420.94 132.54 420.83
  Z
  M 299.70 414.68
  L 297.82 413.85
  A 0.24 0.24 0.0 0 0 297.50 413.97
  L 297.44 414.11
  A 14.63 1.27 -66.1 0 0 292.68 428.00
  L 292.68 428.00
  A 14.63 1.27 -66.1 0 0 299.77 415.14
  L 299.83 415.00
  A 0.24 0.24 0.0 0 0 299.70 414.68
  Z
  M 149.34 414.81
  A 0.42 0.42 0.0 0 0 148.71 414.34
  Q 147.32 415.21 148.34 416.78
  A 0.27 0.27 0.0 0 0 148.83 416.70
  L 149.34 414.81
  Z
  M 337.31 416.77
  A 1.89 1.88 53.4 0 1 339.24 417.06
  L 342.53 419.80
  A 0.57 0.57 0.0 0 0 343.40 419.11
  L 341.21 414.52
  A 1.13 1.13 0.0 0 0 339.73 413.98
  L 333.90 416.63
  A 0.86 0.85 -15.8 0 0 333.41 417.50
  C 333.74 420.48 339.08 422.62 341.30 423.26
  Q 343.63 423.93 342.05 425.76
  Q 339.35 428.89 335.20 428.51
  A 0.63 0.61 -75.5 0 0 334.58 428.89
  Q 334.22 429.71 334.99 429.95
  C 339.91 431.48 349.00 427.93 343.89 421.44
  Q 343.57 421.03 343.06 420.94
  Q 340.10 420.43 337.46 419.32
  Q 334.34 418.01 337.31 416.77
  Z
  M 143.84 418.87
  Q 146.12 417.86 146.13 415.41
  Q 146.14 414.75 145.47 414.79
  Q 141.39 415.02 140.01 418.68
  C 138.41 422.93 144.21 426.59 147.51 427.90
  A 0.46 0.41 -3.4 0 1 147.70 428.05
  L 148.58 429.35
  Q 148.87 429.78 149.40 429.74
  Q 150.64 429.62 150.56 428.13
  A 1.10 1.07 -79.6 0 0 149.94 427.21
  C 147.47 426.03 141.78 423.14 143.06 419.70
  A 1.45 1.44 -2.1 0 1 143.84 418.87
  Z
  M 176.3987 430.2117
  A 7.74 6.36 84.3 0 0 181.9586 421.8783
  A 7.74 6.36 84.3 0 0 174.8613 414.8083
  A 7.74 6.36 84.3 0 0 169.3014 423.1417
  A 7.74 6.36 84.3 0 0 176.3987 430.2117
  Z
  M 286.6073 415.1709
  A 0.28 0.28 0.0 0 0 286.2520 414.9961
  L 285.4189 415.2797
  A 0.28 0.28 0.0 0 0 285.2441 415.6350
  L 290.2327 430.2891
  A 0.28 0.28 0.0 0 0 290.5880 430.4639
  L 291.4211 430.1803
  A 0.28 0.28 0.0 0 0 291.5959 429.8250
  L 286.6073 415.1709
  Z
  M 306.75 426.66
  L 304.68 421.87
  Q 304.34 421.09 305.19 421.11
  C 307.25 421.15 313.59 421.26 312.73 417.75
  C 311.51 412.80 305.85 414.42 303.94 417.54
  C 302.13 420.52 303.93 425.05 305.11 428.16
  Q 305.31 428.68 305.80 428.92
  Q 308.65 430.35 311.76 429.40
  Q 312.31 429.23 312.28 428.65
  L 312.17 426.95
  Q 312.11 425.96 311.36 426.61
  Q 309.76 428.01 307.59 427.39
  Q 307.00 427.23 306.75 426.66
  Z
  M 161.89 417.89
  A 1.58 1.57 5.3 0 1 163.08 419.32
  L 163.78 429.88
  Q 163.80 430.21 164.13 430.26
  L 164.43 430.30
  Q 165.34 430.42 165.29 429.51
  L 164.56 416.15
  Q 164.53 415.49 163.87 415.58
  L 156.73 416.53
  Q 156.36 416.58 156.16 416.26
  L 155.83 415.70
  Q 155.19 414.65 155.09 415.88
  Q 154.57 422.67 155.19 429.46
  Q 155.24 430.00 155.78 430.00
  L 156.04 430.00
  A 0.56 0.56 0.0 0 0 156.60 429.47
  L 157.15 419.16
  A 0.95 0.93 -12.5 0 1 157.66 418.38
  Q 159.65 417.32 161.89 417.89
  Z
  M 203.2475 415.8437
  A 0.54 0.54 0.0 0 0 202.6990 415.3122
  L 201.5992 415.3295
  A 0.54 0.54 0.0 0 0 201.0677 415.8779
  L 201.2725 428.9163
  A 0.54 0.54 0.0 0 0 201.8210 429.4478
  L 202.9208 429.4305
  A 0.54 0.54 0.0 0 0 203.4523 428.8821
  L 203.2475 415.8437
  Z
  M 207.00 416.09
  A 0.56 0.56 0.0 0 0 206.27 415.50
  Q 205.40 415.78 204.83 416.34
  A 0.94 0.94 0.0 0 0 206.05 417.77
  Q 206.87 417.17 207.00 416.09
  Z
  M 233.97 427.51
  L 228.86 427.67
  A 1.56 1.56 0.0 0 1 227.25 426.11
  L 227.25 416.00
  Q 227.25 415.25 226.50 415.25
  L 226.04 415.25
  Q 225.48 415.25 225.48 415.80
  C 225.50 418.53 224.86 425.48 226.16 427.61
  C 227.62 429.98 231.96 429.46 234.00 428.38
  Q 234.38 428.18 234.73 428.43
  L 235.76 429.17
  Q 236.42 429.65 236.42 428.83
  Q 236.41 422.46 238.21 416.41
  Q 238.41 415.75 237.72 415.75
  L 235.43 415.75
  Q 234.86 415.75 234.84 416.32
  L 234.51 426.97
  Q 234.49 427.50 233.97 427.51
  Z
  M 185.96 416.06
  C 184.00 421.12 182.98 430.35 191.41 429.56
  C 192.91 429.42 193.79 428.48 195.50 428.46
  Q 196.05 428.46 196.20 427.93
  Q 197.89 422.18 197.44 416.18
  Q 197.41 415.75 196.99 415.75
  L 195.96 415.75
  A 0.55 0.54 86.7 0 0 195.42 416.36
  Q 195.92 421.21 194.85 425.93
  Q 194.76 426.30 194.44 426.49
  C 192.31 427.75 186.04 429.41 186.52 424.75
  Q 186.96 420.48 187.65 416.53
  A 0.88 0.88 0.0 0 0 185.96 416.06
  Z
  M 251.22 425.69
  L 251.99 429.73
  Q 252.03 429.90 252.15 430.02
  Q 252.24 430.11 252.33 430.21
  A 0.32 0.31 27.0 0 0 252.87 430.04
  Q 253.54 424.90 251.63 420.13
  A 0.57 0.57 0.0 0 0 250.53 420.30
  Q 250.42 421.82 251.45 422.91
  Q 251.66 423.14 251.37 423.25
  Q 251.18 423.32 251.06 423.15
  Q 248.96 420.17 245.68 420.35
  A 1.36 1.36 0.0 0 1 245.24 417.68
  Q 248.24 416.84 250.75 418.39
  Q 251.12 418.62 251.06 418.19
  L 250.79 416.21
  A 0.87 0.86 85.3 0 0 249.90 415.45
  L 244.18 415.64
  Q 243.63 415.66 243.39 416.16
  C 241.23 420.68 245.92 421.85 248.81 423.11
  A 1.81 1.80 -51.3 0 1 249.15 426.22
  Q 246.10 428.46 242.46 427.27
  Q 241.87 427.08 241.73 427.68
  L 241.45 428.90
  Q 241.31 429.48 241.90 429.57
  C 245.67 430.15 249.79 429.99 250.50 425.70
  A 0.37 0.37 0.0 0 1 251.22 425.69
  Z
  M 320.92 416.67
  A 0.40 0.40 0.0 0 1 320.57 416.59
  L 318.77 415.04
  A 0.40 0.40 0.0 0 0 318.11 415.33
  L 317.60 430.06
  A 0.40 0.40 0.0 0 0 318.19 430.42
  L 319.23 429.87
  A 0.40 0.40 0.0 0 0 319.44 429.52
  L 319.64 418.96
  A 0.40 0.40 0.0 0 1 319.97 418.57
  L 327.04 417.31
  A 0.40 0.40 0.0 0 0 327.29 416.68
  L 326.47 415.60
  A 0.40 0.40 0.0 0 0 326.06 415.45
  L 320.92 416.67
  Z
  M 217.60 418.49
  C 219.03 420.81 218.29 426.51 218.00 429.16
  A 0.76 0.76 0.0 0 0 218.71 430.00
  Q 219.58 430.05 219.70 428.99
  C 220.16 424.89 221.08 420.00 218.72 416.33
  A 1.21 1.20 75.2 0 0 217.79 415.78
  Q 213.93 415.47 210.26 416.71
  A 0.86 0.85 -8.4 0 0 209.67 417.49
  L 209.33 429.28
  Q 209.31 429.75 209.78 429.75
  L 210.11 429.75
  Q 210.50 429.75 210.54 429.37
  L 211.60 420.28
  Q 211.67 419.75 212.09 419.43
  Q 214.17 417.84 216.78 418.00
  A 1.03 1.02 -14.0 0 1 217.60 418.49
  Z
  M 273.91 427.79
  C 267.83 427.68 268.56 420.49 267.80 416.29
  Q 267.71 415.76 267.17 415.77
  L 258.69 416.04
  A 0.57 0.57 0.0 0 0 258.15 416.55
  L 256.97 429.32
  Q 256.92 429.88 257.41 430.14
  Q 258.38 430.65 258.47 429.75
  Q 258.98 424.39 259.56 418.96
  Q 259.62 418.39 260.16 418.57
  Q 262.55 419.35 265.00 418.50
  A 1.12 1.11 -14.8 0 1 266.47 419.35
  C 267.03 422.51 267.31 427.30 270.03 429.29
  Q 270.44 429.59 270.94 429.56
  L 275.22 429.29
  Q 275.99 429.25 276.10 428.48
  L 277.67 416.47
  Q 277.77 415.75 277.04 415.75
  L 275.46 415.75
  Q 274.85 415.75 274.93 416.35
  Q 275.60 421.84 274.52 427.30
  Q 274.42 427.80 273.91 427.79
  Z
  M 282.4374 416.8678
  A 0.54 0.54 0.0 0 0 281.8576 416.3709
  L 281.3590 416.4092
  A 0.54 0.54 0.0 0 0 280.8621 416.9891
  L 281.8226 429.4722
  A 0.54 0.54 0.0 0 0 282.4024 429.9691
  L 282.9010 429.9308
  A 0.54 0.54 0.0 0 0 283.3979 429.3509
  L 282.4374 416.8678
  Z
  M 329.8236 416.8713
  A 0.26 0.26 0.0 0 0 329.5710 416.6042
  L 328.0316 416.5612
  A 0.26 0.26 0.0 0 0 327.7644 416.8138
  L 327.3964 429.9887
  A 0.26 0.26 0.0 0 0 327.6490 430.2558
  L 329.1884 430.2988
  A 0.26 0.26 0.0 0 0 329.4556 430.0462
  L 329.8236 416.8713
  Z
  M 143.4341 428.9208
  A 0.53 0.53 0.0 0 0 142.8851 428.4105
  L 138.5280 428.5703
  A 0.53 0.53 0.0 0 0 138.0178 429.1194
  L 138.0259 429.3392
  A 0.53 0.53 0.0 0 0 138.5749 429.8495
  L 142.9320 429.6897
  A 0.53 0.53 0.0 0 0 143.4422 429.1406
  L 143.4341 428.9208
  Z"
/>
<path fill="#00c9c7" d="
  M 360.64 99.38
  Q 360.73 104.44 364.14 108.45
  C 365.67 110.24 365.98 111.88 366.93 113.90
  Q 367.13 114.32 366.72 114.53
  L 362.81 116.58
  Q 362.43 116.78 362.13 117.09
  Q 361.27 117.99 359.71 118.16
  Q 359.17 118.22 359.14 117.77
  Q 359.11 117.38 358.72 117.45
  Q 355.00 118.09 351.68 116.25
  Q 351.25 116.01 351.25 115.52
  L 351.25 113.42
  Q 351.25 112.96 350.92 113.29
  L 350.56 113.65
  Q 350.32 113.89 349.98 113.89
  Q 347.09 113.95 346.52 111.35
  Q 346.41 110.87 345.94 110.74
  Q 342.34 109.80 337.67 106.55
  Q 334.34 104.24 326.74 101.52
  Q 326.45 101.42 326.25 101.51
  Q 325.86 101.69 326.29 101.72
  Q 326.78 101.75 327.02 102.18
  Q 327.32 102.73 326.73 102.52
  L 291.64 90.06
  A 0.19 0.19 0.0 0 0 291.39 90.21
  L 291.33 90.53
  A 0.20 0.20 0.0 0 1 291.04 90.67
  C 280.87 85.62 270.31 82.69 260.63 76.43
  C 258.10 74.80 255.18 73.90 252.86 72.70
  Q 245.40 68.85 237.32 66.55
  C 235.23 65.95 233.91 64.30 231.78 63.44
  C 226.23 61.20 220.83 58.35 214.82 57.40
  C 206.92 56.17 201.32 52.49 193.88 51.21
  Q 193.44 51.13 193.04 51.36
  L 191.99 51.97
  Q 191.70 52.14 191.56 51.83
  Q 191.39 51.44 190.93 51.37
  C 185.10 50.43 179.10 51.09 173.57 49.67
  Q 170.04 48.77 166.73 47.84
  Q 171.18 44.81 176.81 42.35
  C 243.49 13.20 321.73 37.33 360.64 99.38
  Z"
/>
<path fill="#00b8b0" d="
  M 360.64 99.38
  Q 367.34 110.05 371.94 121.22
  Q 369.93 122.41 370.92 124.52
  Q 373.94 130.96 374.68 138.06
  Q 374.68 138.14 374.76 138.17
  Q 374.92 138.22 375.08 138.28
  Q 375.46 138.41 375.53 138.81
  C 378.23 154.23 360.28 156.89 349.27 156.44
  Q 346.53 156.33 344.00 157.58
  Q 343.79 157.68 344.02 157.71
  L 347.48 158.25
  A 0.26 0.26 0.0 0 1 347.52 158.76
  L 341.10 160.62
  Q 340.64 160.75 340.18 160.64
  L 337.09 159.88
  Q 336.59 159.76 336.28 160.16
  Q 334.98 161.84 332.65 162.25
  C 298.69 127.09 248.57 103.27 200.76 95.27
  C 176.02 91.13 146.58 89.45 119.68 93.54
  A 0.47 0.47 0.0 0 1 119.19 92.85
  C 124.71 82.56 134.62 72.88 143.05 64.87
  C 150.09 58.18 158.36 53.14 166.73 47.84
  Q 170.04 48.77 173.57 49.67
  C 179.10 51.09 185.10 50.43 190.93 51.37
  Q 191.39 51.44 191.56 51.83
  Q 191.70 52.14 191.99 51.97
  L 193.04 51.36
  Q 193.44 51.13 193.88 51.21
  C 201.32 52.49 206.92 56.17 214.82 57.40
  C 220.83 58.35 226.23 61.20 231.78 63.44
  C 233.91 64.30 235.23 65.95 237.32 66.55
  Q 245.40 68.85 252.86 72.70
  C 255.18 73.90 258.10 74.80 260.63 76.43
  C 270.31 82.69 280.87 85.62 291.04 90.67
  A 0.20 0.20 0.0 0 0 291.33 90.53
  L 291.39 90.21
  A 0.19 0.19 0.0 0 1 291.64 90.06
  L 326.73 102.52
  Q 327.32 102.73 327.02 102.18
  Q 326.78 101.75 326.29 101.72
  Q 325.86 101.69 326.25 101.51
  Q 326.45 101.42 326.74 101.52
  Q 334.34 104.24 337.67 106.55
  Q 342.34 109.80 345.94 110.74
  Q 346.41 110.87 346.52 111.35
  Q 347.09 113.95 349.98 113.89
  Q 350.32 113.89 350.56 113.65
  L 350.92 113.29
  Q 351.25 112.96 351.25 113.42
  L 351.25 115.52
  Q 351.25 116.01 351.68 116.25
  Q 355.00 118.09 358.72 117.45
  Q 359.11 117.38 359.14 117.77
  Q 359.17 118.22 359.71 118.16
  Q 361.27 117.99 362.13 117.09
  Q 362.43 116.78 362.81 116.58
  L 366.72 114.53
  Q 367.13 114.32 366.93 113.90
  C 365.98 111.88 365.67 110.24 364.14 108.45
  Q 360.73 104.44 360.64 99.38
  Z"
/>
<path fill="#009c95" d="
  M 306.90 164.93
  Q 304.34 168.16 300.90 169.29
  C 297.25 170.49 294.62 173.21 291.83 175.69
  Q 291.47 176.00 290.99 176.00
  L 287.50 176.00
  Q 287.25 176.00 287.25 176.25
  Q 287.25 176.40 287.25 176.56
  Q 287.26 176.82 286.99 176.80
  Q 283.65 176.55 280.46 175.51
  Q 279.69 175.25 280.51 175.25
  L 280.96 175.25
  A 0.23 0.23 0.0 0 0 281.01 174.80
  L 277.02 173.99
  Q 276.67 173.92 277.00 173.80
  L 277.74 173.52
  Q 278.33 173.31 277.71 173.19
  C 274.12 172.52 270.78 172.02 267.17 170.99
  C 261.47 169.37 255.64 168.65 250.07 166.66
  Q 246.89 165.52 243.68 164.52
  C 236.74 162.37 231.87 159.23 223.75 159.75
  Q 223.50 159.77 223.50 159.52
  Q 223.50 159.36 223.50 159.22
  Q 223.52 158.86 223.18 158.76
  L 215.86 156.40
  Q 215.48 156.28 215.09 156.39
  Q 213.24 156.93 212.60 155.24
  Q 212.45 154.84 212.05 154.70
  C 205.31 152.36 198.88 149.18 191.95 147.54
  C 188.02 146.61 183.84 147.68 180.07 146.66
  Q 175.74 145.48 162.16 139.85
  A 1.89 1.87 52.8 0 0 161.25 139.72
  Q 159.97 139.86 159.44 138.84
  A 1.24 1.17 -2.9 0 0 158.81 138.30
  Q 143.12 132.53 128.84 123.90
  C 125.97 122.16 123.22 121.06 120.22 119.77
  A 1.38 1.38 0.0 0 1 119.54 119.15
  Q 118.67 117.53 117.29 116.53
  C 159.56 107.70 200.50 112.92 241.25 127.49
  C 265.68 136.23 286.83 148.59 306.90 164.93
  Z"
/>
<path fill="#007986" d="
  M 117.29 116.53
  Q 118.67 117.53 119.54 119.15
  A 1.38 1.38 0.0 0 0 120.22 119.77
  C 123.22 121.06 125.97 122.16 128.84 123.90
  Q 143.12 132.53 158.81 138.30
  A 1.24 1.17 -2.9 0 1 159.44 138.84
  Q 159.97 139.86 161.25 139.72
  A 1.89 1.87 52.8 0 1 162.16 139.85
  Q 175.74 145.48 180.07 146.66
  C 183.84 147.68 188.02 146.61 191.95 147.54
  C 198.88 149.18 205.31 152.36 212.05 154.70
  Q 212.45 154.84 212.60 155.24
  Q 213.24 156.93 215.09 156.39
  Q 215.48 156.28 215.86 156.40
  L 223.18 158.76
  Q 223.52 158.86 223.50 159.22
  Q 223.50 159.36 223.50 159.52
  Q 223.50 159.77 223.75 159.75
  C 231.87 159.23 236.74 162.37 243.68 164.52
  Q 246.89 165.52 250.07 166.66
  C 255.64 168.65 261.47 169.37 267.17 170.99
  C 270.78 172.02 274.12 172.52 277.71 173.19
  Q 278.33 173.31 277.74 173.52
  L 277.00 173.80
  Q 276.67 173.92 277.02 173.99
  L 281.01 174.80
  A 0.23 0.23 0.0 0 1 280.96 175.25
  L 280.51 175.25
  Q 279.69 175.25 280.46 175.51
  Q 283.65 176.55 286.99 176.80
  Q 287.26 176.82 287.25 176.56
  Q 287.25 176.40 287.25 176.25
  Q 287.25 176.00 287.50 176.00
  L 290.99 176.00
  Q 291.47 176.00 291.83 175.69
  C 294.62 173.21 297.25 170.49 300.90 169.29
  Q 304.34 168.16 306.90 164.93
  C 326.12 181.74 344.89 205.54 348.04 231.61
  Q 346.52 236.90 347.34 244.05
  A 0.94 0.94 0.0 0 1 346.19 245.07
  Q 335.38 242.49 325.19 237.27
  C 320.84 235.04 314.41 235.13 309.50 233.55
  C 302.41 231.27 295.22 230.71 288.00 229.47
  Q 287.46 229.38 287.21 228.97
  Q 287.02 228.65 286.65 228.61
  C 280.70 228.00 274.88 226.20 267.96 225.65
  C 266.25 225.52 265.41 226.23 264.29 227.32
  Q 263.91 227.69 263.80 228.21
  Q 263.27 230.68 261.65 232.61
  Q 261.36 232.95 261.46 233.39
  Q 261.68 234.32 261.14 235.08
  Q 247.22 219.54 229.59 208.46
  C 221.86 203.60 214.08 198.29 206.07 194.45
  Q 173.95 179.01 139.27 170.86
  C 124.53 167.39 109.05 166.06 93.85 165.16
  A 0.91 0.91 0.0 0 1 93.00 164.22
  C 93.56 148.13 98.41 135.73 103.31 120.20
  Q 103.46 119.73 103.95 119.61
  L 117.29 116.53
  Z"
/>
<path fill="#009094" d="
  M 371.94 121.22
  C 380.05 140.90 381.57 161.34 380.17 182.29
  C 379.12 197.83 375.04 212.22 369.02 226.44
  Q 368.38 227.96 368.13 226.33
  C 364.42 201.89 348.71 179.45 332.65 162.25
  Q 334.98 161.84 336.28 160.16
  Q 336.59 159.76 337.09 159.88
  L 340.18 160.64
  Q 340.64 160.75 341.10 160.62
  L 347.52 158.76
  A 0.26 0.26 0.0 0 0 347.48 158.25
  L 344.02 157.71
  Q 343.79 157.68 344.00 157.58
  Q 346.53 156.33 349.27 156.44
  C 360.28 156.89 378.23 154.23 375.53 138.81
  Q 375.46 138.41 375.08 138.28
  Q 374.92 138.22 374.76 138.17
  Q 374.68 138.14 374.68 138.06
  Q 373.94 130.96 370.92 124.52
  Q 369.93 122.41 371.94 121.22
  Z"
/>
<path fill="#ffa26c" d="
  M 216.63 223.04
  C 213.09 224.62 207.27 224.87 203.01 225.46
  C 200.18 225.86 197.33 227.31 194.20 227.72
  C 192.25 227.98 190.96 226.77 188.97 227.88
  Q 188.47 228.15 187.94 227.99
  Q 186.66 227.59 185.31 227.79
  A 0.06 0.06 0.0 0 1 185.26 227.69
  L 185.49 227.48
  A 0.12 0.12 0.0 0 0 185.41 227.27
  C 178.71 227.49 173.47 229.64 167.01 227.38
  C 164.81 226.61 161.25 227.57 158.61 227.15
  Q 151.82 226.07 145.01 225.15
  Q 144.33 225.06 144.96 224.80
  Q 145.39 224.62 145.91 224.72
  Q 145.95 224.72 145.94 224.68
  Q 145.93 224.66 145.93 224.64
  Q 145.92 224.56 145.85 224.55
  C 142.70 224.03 140.23 223.26 136.95 223.71
  Q 128.41 224.87 120.00 224.06
  A 0.02 0.02 0.0 0 1 119.99 224.02
  Q 122.40 223.66 125.14 223.44
  Q 125.19 223.44 125.19 223.40
  Q 125.18 223.38 125.18 223.36
  Q 125.19 223.27 125.10 223.27
  C 117.61 223.31 111.24 222.54 104.16 227.14
  Q 95.08 208.21 92.95 186.67
  A 0.69 0.69 0.0 0 1 93.66 185.91
  C 117.46 186.85 139.63 191.07 163.56 198.58
  C 182.16 204.41 200.01 213.11 216.63 223.04
  Z"
/>
<path fill="#f57a37" d="
  M 216.63 223.04
  Q 232.89 233.00 245.46 246.15
  Q 244.08 246.31 242.87 245.81
  Q 242.42 245.62 242.11 245.98
  C 237.51 251.23 234.89 251.14 228.24 251.70
  Q 227.73 251.74 227.53 252.22
  Q 227.17 253.07 226.32 252.88
  Q 225.93 252.80 225.55 252.86
  Q 223.30 253.26 221.11 253.96
  C 218.21 254.89 215.20 254.55 212.30 255.58
  Q 209.73 256.50 208.04 256.55
  C 205.01 256.65 201.19 256.18 198.41 257.46
  C 195.45 258.83 193.63 259.55 190.04 259.73
  Q 186.02 259.93 181.57 261.10
  C 177.18 262.25 171.66 262.21 167.81 262.74
  C 159.80 263.84 150.58 264.22 142.88 266.45
  C 138.79 267.64 135.12 265.42 132.97 270.59
  Q 114.46 251.85 104.16 227.14
  C 111.24 222.54 117.61 223.31 125.10 223.27
  Q 125.19 223.27 125.18 223.36
  Q 125.18 223.38 125.19 223.40
  Q 125.19 223.44 125.14 223.44
  Q 122.40 223.66 119.99 224.02
  A 0.02 0.02 0.0 0 0 120.00 224.06
  Q 128.41 224.87 136.95 223.71
  C 140.23 223.26 142.70 224.03 145.85 224.55
  Q 145.92 224.56 145.93 224.64
  Q 145.93 224.66 145.94 224.68
  Q 145.95 224.72 145.91 224.72
  Q 145.39 224.62 144.96 224.80
  Q 144.33 225.06 145.01 225.15
  Q 151.82 226.07 158.61 227.15
  C 161.25 227.57 164.81 226.61 167.01 227.38
  C 173.47 229.64 178.71 227.49 185.41 227.27
  A 0.12 0.12 0.0 0 1 185.49 227.48
  L 185.26 227.69
  A 0.06 0.06 0.0 0 0 185.31 227.79
  Q 186.66 227.59 187.94 227.99
  Q 188.47 228.15 188.97 227.88
  C 190.96 226.77 192.25 227.98 194.20 227.72
  C 197.33 227.31 200.18 225.86 203.01 225.46
  C 207.27 224.87 213.09 224.62 216.63 223.04
  Z"
/>
<path fill="#005d71" d="
  M 348.04 231.61
  C 350.52 245.68 345.66 256.39 335.65 266.73
  Q 315.30 287.75 287.83 299.18
  Q 287.27 299.41 287.33 298.81
  C 289.97 273.58 277.94 253.07 261.14 235.08
  Q 261.68 234.32 261.46 233.39
  Q 261.36 232.95 261.65 232.61
  Q 263.27 230.68 263.80 228.21
  Q 263.91 227.69 264.29 227.32
  C 265.41 226.23 266.25 225.52 267.96 225.65
  C 274.88 226.20 280.70 228.00 286.65 228.61
  Q 287.02 228.65 287.21 228.97
  Q 287.46 229.38 288.00 229.47
  C 295.22 230.71 302.41 231.27 309.50 233.55
  C 314.41 235.13 320.84 235.04 325.19 237.27
  Q 335.38 242.49 346.19 245.07
  A 0.94 0.94 0.0 0 0 347.34 244.05
  Q 346.52 236.90 348.04 231.61
  Z"
/>
<path fill="#e16424" d="
  M 245.46 246.15
  C 255.71 255.68 265.74 269.66 267.73 283.68
  C 268.64 290.13 268.29 297.24 268.23 303.85
  A 1.07 1.07 0.0 0 1 267.42 304.89
  C 218.45 317.26 169.36 306.32 132.97 270.59
  C 135.12 265.42 138.79 267.64 142.88 266.45
  C 150.58 264.22 159.80 263.84 167.81 262.74
  C 171.66 262.21 177.18 262.25 181.57 261.10
  Q 186.02 259.93 190.04 259.73
  C 193.63 259.55 195.45 258.83 198.41 257.46
  C 201.19 256.18 205.01 256.65 208.04 256.55
  Q 209.73 256.50 212.30 255.58
  C 215.20 254.55 218.21 254.89 221.11 253.96
  Q 223.30 253.26 225.55 252.86
  Q 225.93 252.80 226.32 252.88
  Q 227.17 253.07 227.53 252.22
  Q 227.73 251.74 228.24 251.70
  C 234.89 251.14 237.51 251.23 242.11 245.98
  Q 242.42 245.62 242.87 245.81
  Q 244.08 246.31 245.46 246.15
  Z"
/>
<path fill="#07282d" d="
  M 160.57 402.61
  C 147.96 394.97 146.56 384.37 148.89 370.53
  C 151.04 357.79 159.56 351.35 171.86 350.64
  C 182.88 350.00 190.12 352.13 196.33 361.58
  C 202.62 371.14 200.07 385.15 194.59 394.31
  C 187.75 405.77 171.68 409.34 160.57 402.61
  Z
  M 167.24 392.75
  C 172.73 397.33 180.73 393.68 184.30 388.52
  Q 188.69 382.17 187.50 374.41
  C 185.24 359.65 164.86 357.62 160.52 372.33
  Q 157.02 384.21 167.24 392.75
  Z"
/>
<path fill="#07282d" d="
  M 102.97 403.27
  C 97.05 398.75 95.92 393.73 96.03 385.97
  Q 96.27 368.90 96.48 351.83
  Q 96.48 351.38 96.94 351.36
  L 108.28 350.86
  Q 108.68 350.84 108.67 351.24
  Q 108.42 367.02 108.22 382.74
  C 108.13 390.02 110.63 397.85 119.76 396.23
  C 129.84 394.44 128.67 383.12 128.00 374.25
  Q 127.53 367.93 128.12 352.08
  Q 128.14 351.59 128.63 351.58
  L 139.97 351.30
  Q 140.34 351.29 140.34 351.65
  Q 140.08 378.73 139.75 389.24
  C 139.32 402.40 130.41 406.17 118.87 407.54
  Q 109.94 408.60 102.97 403.27
  Z"
/>
<path fill="#07282d" d="
  M 299.85 401.65
  Q 293.75 396.02 293.67 387.57
  Q 293.48 369.66 294.03 351.78
  Q 294.04 351.34 294.48 351.33
  L 305.76 350.98
  Q 306.41 350.96 306.38 351.61
  Q 305.49 373.74 306.22 387.48
  C 306.74 397.47 323.01 398.96 326.88 389.62
  Q 327.81 387.37 327.77 382.77
  Q 327.66 367.39 327.28 352.02
  Q 327.26 351.52 327.76 351.50
  L 338.73 350.98
  Q 339.18 350.96 339.19 351.41
  Q 339.48 361.24 339.47 371.08
  C 339.46 382.17 340.65 403.57 325.27 406.09
  C 316.65 407.51 306.49 407.77 299.85 401.65
  Z"
/>
<path fill="#07282d" d="
  M 54.89 388.32
  C 56.12 393.64 55.53 400.30 55.24 407.82
  Q 55.22 408.36 54.67 408.34
  L 43.22 407.72
  Q 42.75 407.70 42.75 407.22
  L 42.75 351.79
  A 0.47 0.46 -0.6 0 1 43.21 351.33
  L 84.00 351.00
  Q 84.51 350.99 84.48 351.50
  L 83.87 362.50
  Q 83.85 362.86 83.49 362.85
  L 56.30 362.70
  Q 55.49 362.70 55.50 363.51
  L 55.50 376.50
  A 0.50 0.50 0.0 0 0 56.00 377.00
  L 77.72 377.00
  Q 78.19 377.00 78.19 377.47
  L 78.21 387.54
  Q 78.21 388.04 77.71 388.04
  L 55.21 387.91
  Q 54.79 387.91 54.89 388.32
  Z"
/>
<path fill="#07282d" d="
  M 249.58 388.11
  L 249.01 404.66
  Q 248.99 405.32 248.34 405.29
  L 237.98 404.93
  Q 237.51 404.91 237.49 404.45
  C 236.56 386.95 237.02 369.31 236.75 351.77
  Q 236.75 351.30 237.22 351.29
  L 278.41 351.15
  Q 278.92 351.15 278.93 351.66
  L 279.18 362.43
  Q 279.19 363.10 278.52 363.09
  L 249.97 362.52
  Q 249.45 362.51 249.45 363.03
  L 249.52 376.06
  A 0.87 0.86 90.0 0 0 250.37 376.92
  L 271.99 377.28
  Q 272.44 377.28 272.44 377.74
  L 272.47 387.92
  Q 272.47 388.31 272.08 388.30
  L 249.89 387.82
  Q 249.59 387.81 249.58 388.11
  Z"
/>
<path fill="#07282d" d="
  M 362.52 362.66
  L 344.92 362.46
  A 0.57 0.57 0.0 0 1 344.36 361.92
  L 343.97 351.94
  Q 343.95 351.34 344.55 351.33
  L 391.13 351.01
  Q 391.56 351.00 391.56 351.44
  L 391.47 360.93
  Q 391.47 361.38 391.70 361.76
  Q 391.93 362.14 391.91 362.51
  Q 391.88 363.02 391.37 363.01
  L 376.04 362.67
  Q 375.23 362.65 375.22 363.46
  L 374.94 407.78
  Q 374.93 408.25 374.47 408.25
  L 363.52 408.25
  A 0.49 0.49 0.0 0 1 363.03 407.79
  Q 362.05 385.47 362.97 363.13
  Q 362.99 362.67 362.52 362.66
  Z"
/>
<path fill="#07282d" d="
  M 407.89 405.35
  C 394.52 398.36 393.74 380.25 396.28 367.51
  C 398.85 354.60 411.79 349.07 423.80 351.33
  C 434.88 353.41 440.21 361.03 443.15 371.29
  C 445.87 380.82 442.12 395.43 434.65 401.89
  C 427.94 407.70 416.50 409.86 407.89 405.35
  Z
  M 413.19 393.31
  Q 419.15 397.78 425.23 394.10
  C 437.60 386.61 431.80 356.81 414.18 363.49
  C 403.94 367.37 405.79 387.77 413.19 393.31
  Z"
/>
<path fill="#fdfeff" d="
  M 167.24 392.75
  Q 157.02 384.21 160.52 372.33
  C 164.86 357.62 185.24 359.65 187.50 374.41
  Q 188.69 382.17 184.30 388.52
  C 180.73 393.68 172.73 397.33 167.24 392.75
  Z"
/>
<path fill="#fdfeff" d="
  M 413.19 393.31
  C 405.79 387.77 403.94 367.37 414.18 363.49
  C 431.80 356.81 437.60 386.61 425.23 394.10
  Q 419.15 397.78 413.19 393.31
  Z"
/>
<path fill="#000000" d="
  M 280.38 406.45
  A 0.17 0.17 0.0 0 1 280.39 406.21
  L 280.44 406.16
  A 2.33 1.86 45.8 0 1 283.40 406.54
  L 283.59 406.74
  A 2.33 1.86 45.8 0 1 283.88 409.71
  L 283.83 409.75
  A 0.17 0.17 0.0 0 1 283.59 409.75
  L 280.38 406.45
  Z"
/>
<path fill="#000000" d="
  M 137.43 407.91
  A 0.43 0.43 0.0 0 1 137.86 407.48
  L 138.19 407.48
  A 2.50 1.34 -0.1 0 1 140.69 408.82
  L 140.69 409.04
  A 2.50 1.34 -0.1 0 1 138.19 410.38
  L 137.86 410.38
  A 0.43 0.43 0.0 0 1 137.43 409.95
  L 137.43 407.91
  Z"
/>
<path fill="#000000" d="
  M 133.08 420.50
  Q 134.01 416.27 131.26 413.10
  Q 130.64 412.39 131.58 412.46
  L 133.87 412.61
  Q 134.52 412.66 134.78 413.25
  C 136.14 416.38 135.05 424.27 134.91 427.72
  A 2.53 2.53 0.0 0 1 131.80 430.08
  Q 129.49 429.53 127.27 427.24
  Q 127.00 426.97 127.00 426.72
  Q 126.98 426.33 127.34 426.50
  L 131.59 428.55
  A 0.94 0.93 -78.1 0 0 132.93 427.67
  L 132.82 424.16
  A 0.87 0.86 5.7 0 0 132.15 423.35
  L 129.75 422.80
  Q 128.98 422.63 129.43 421.97
  Q 130.55 420.35 132.54 420.83
  Q 132.98 420.94 133.08 420.50
  Z"
/>
<path fill="#000000" d="
  M 299.70 414.68
  A 0.24 0.24 0.0 0 1 299.83 415.00
  L 299.77 415.14
  A 14.63 1.27 -66.1 0 1 292.68 428.00
  L 292.68 428.00
  A 14.63 1.27 -66.1 0 1 297.44 414.11
  L 297.50 413.97
  A 0.24 0.24 0.0 0 1 297.82 413.85
  L 299.70 414.68
  Z"
/>
<path fill="#07282d" d="
  M 149.34 414.81
  L 148.83 416.70
  A 0.27 0.27 0.0 0 1 148.34 416.78
  Q 147.32 415.21 148.71 414.34
  A 0.42 0.42 0.0 0 1 149.34 414.81
  Z"
/>
<path fill="#000000" d="
  M 337.31 416.77
  Q 334.34 418.01 337.46 419.32
  Q 340.10 420.43 343.06 420.94
  Q 343.57 421.03 343.89 421.44
  C 349.00 427.93 339.91 431.48 334.99 429.95
  Q 334.22 429.71 334.58 428.89
  A 0.63 0.61 -75.5 0 1 335.20 428.51
  Q 339.35 428.89 342.05 425.76
  Q 343.63 423.93 341.30 423.26
  C 339.08 422.62 333.74 420.48 333.41 417.50
  A 0.86 0.85 -15.8 0 1 333.90 416.63
  L 339.73 413.98
  A 1.13 1.13 0.0 0 1 341.21 414.52
  L 343.40 419.11
  A 0.57 0.57 0.0 0 1 342.53 419.80
  L 339.24 417.06
  A 1.89 1.88 53.4 0 0 337.31 416.77
  Z"
/>
<path fill="#000000" d="
  M 143.06 419.70
  C 141.78 423.14 147.47 426.03 149.94 427.21
  A 1.10 1.07 -79.6 0 1 150.56 428.13
  Q 150.64 429.62 149.40 429.74
  Q 148.87 429.78 148.58 429.35
  L 147.70 428.05
  A 0.46 0.41 -3.4 0 0 147.51 427.90
  C 144.21 426.59 138.41 422.93 140.01 418.68
  Q 141.39 415.02 145.47 414.79
  Q 146.14 414.75 146.13 415.41
  Q 146.12 417.86 143.84 418.87
  A 1.45 1.44 -2.1 0 0 143.06 419.70
  Z"
/>
<path fill="#000000" d="
  M 176.3987 430.2117
  A 7.74 6.36 84.3 0 1 169.3014 423.1417
  A 7.74 6.36 84.3 0 1 174.8613 414.8083
  A 7.74 6.36 84.3 0 1 181.9586 421.8783
  A 7.74 6.36 84.3 0 1 176.3987 430.2117
  Z
  M 172.58 427.17
  C 175.63 432.35 185.06 422.72 178.65 418.10
  C 171.50 412.93 169.99 422.78 172.58 427.17
  Z"
/>
<rect fill="#000000" x="-0.72" y="-8.02" transform="translate(288.42,422.73) rotate(-18.8)" width="1.44" height="16.04" rx="0.28"/>
<path fill="#000000" d="
  M 307.59 427.39
  Q 309.76 428.01 311.36 426.61
  Q 312.11 425.96 312.17 426.95
  L 312.28 428.65
  Q 312.31 429.23 311.76 429.40
  Q 308.65 430.35 305.80 428.92
  Q 305.31 428.68 305.11 428.16
  C 303.93 425.05 302.13 420.52 303.94 417.54
  C 305.85 414.42 311.51 412.80 312.73 417.75
  C 313.59 421.26 307.25 421.15 305.19 421.11
  Q 304.34 421.09 304.68 421.87
  L 306.75 426.66
  Q 307.00 427.23 307.59 427.39
  Z
  M 305.31 420.29
  L 311.44 419.68
  A 0.47 0.47 0.0 0 0 311.86 419.16
  L 311.84 419.00
  A 3.03 2.87 -5.7 0 0 308.54 416.45
  L 307.51 416.55
  A 3.03 2.87 -5.7 0 0 304.78 419.71
  L 304.79 419.87
  A 0.47 0.47 0.0 0 0 305.31 420.29
  Z"
/>
<path fill="#000000" d="
  M 161.89 417.89
  Q 159.65 417.32 157.66 418.38
  A 0.95 0.93 -12.5 0 0 157.15 419.16
  L 156.60 429.47
  A 0.56 0.56 0.0 0 1 156.04 430.00
  L 155.78 430.00
  Q 155.24 430.00 155.19 429.46
  Q 154.57 422.67 155.09 415.88
  Q 155.19 414.65 155.83 415.70
  L 156.16 416.26
  Q 156.36 416.58 156.73 416.53
  L 163.87 415.58
  Q 164.53 415.49 164.56 416.15
  L 165.29 429.51
  Q 165.34 430.42 164.43 430.30
  L 164.13 430.26
  Q 163.80 430.21 163.78 429.88
  L 163.08 419.32
  A 1.58 1.57 5.3 0 0 161.89 417.89
  Z"
/>
<rect fill="#000000" x="-1.09" y="-7.06" transform="translate(202.26,422.38) rotate(-0.9)" width="2.18" height="14.12" rx="0.54"/>
<path fill="#000000" d="
  M 207.00 416.09
  Q 206.87 417.17 206.05 417.77
  A 0.94 0.94 0.0 0 1 204.83 416.34
  Q 205.40 415.78 206.27 415.50
  A 0.56 0.56 0.0 0 1 207.00 416.09
  Z"
/>
<path fill="#000000" d="
  M 234.51 426.97
  L 234.84 416.32
  Q 234.86 415.75 235.43 415.75
  L 237.72 415.75
  Q 238.41 415.75 238.21 416.41
  Q 236.41 422.46 236.42 428.83
  Q 236.42 429.65 235.76 429.17
  L 234.73 428.43
  Q 234.38 428.18 234.00 428.38
  C 231.96 429.46 227.62 429.98 226.16 427.61
  C 224.86 425.48 225.50 418.53 225.48 415.80
  Q 225.48 415.25 226.04 415.25
  L 226.50 415.25
  Q 227.25 415.25 227.25 416.00
  L 227.25 426.11
  A 1.56 1.56 0.0 0 0 228.86 427.67
  L 233.97 427.51
  Q 234.49 427.50 234.51 426.97
  Z"
/>
<path fill="#000000" d="
  M 191.41 429.56
  C 182.98 430.35 184.00 421.12 185.96 416.06
  A 0.88 0.88 0.0 0 1 187.65 416.53
  Q 186.96 420.48 186.52 424.75
  C 186.04 429.41 192.31 427.75 194.44 426.49
  Q 194.76 426.30 194.85 425.93
  Q 195.92 421.21 195.42 416.36
  A 0.55 0.54 86.7 0 1 195.96 415.75
  L 196.99 415.75
  Q 197.41 415.75 197.44 416.18
  Q 197.89 422.18 196.20 427.93
  Q 196.05 428.46 195.50 428.46
  C 193.79 428.48 192.91 429.42 191.41 429.56
  Z"
/>
<path fill="#000000" d="
  M 250.50 425.70
  C 249.79 429.99 245.67 430.15 241.90 429.57
  Q 241.31 429.48 241.45 428.90
  L 241.73 427.68
  Q 241.87 427.08 242.46 427.27
  Q 246.10 428.46 249.15 426.22
  A 1.81 1.80 -51.3 0 0 248.81 423.11
  C 245.92 421.85 241.23 420.68 243.39 416.16
  Q 243.63 415.66 244.18 415.64
  L 249.90 415.45
  A 0.87 0.86 85.3 0 1 250.79 416.21
  L 251.06 418.19
  Q 251.12 418.62 250.75 418.39
  Q 248.24 416.84 245.24 417.68
  A 1.36 1.36 0.0 0 0 245.68 420.35
  Q 248.96 420.17 251.06 423.15
  Q 251.18 423.32 251.37 423.25
  Q 251.66 423.14 251.45 422.91
  Q 250.42 421.82 250.53 420.30
  A 0.57 0.57 0.0 0 1 251.63 420.13
  Q 253.54 424.90 252.87 430.04
  A 0.32 0.31 27.0 0 1 252.33 430.21
  Q 252.24 430.11 252.15 430.02
  Q 252.03 429.90 251.99 429.73
  L 251.22 425.69
  A 0.37 0.37 0.0 0 0 250.50 425.70
  Z"
/>
<path fill="#000000" d="
  M 320.92 416.67
  L 326.06 415.45
  A 0.40 0.40 0.0 0 1 326.47 415.60
  L 327.29 416.68
  A 0.40 0.40 0.0 0 1 327.04 417.31
  L 319.97 418.57
  A 0.40 0.40 0.0 0 0 319.64 418.96
  L 319.44 429.52
  A 0.40 0.40 0.0 0 1 319.23 429.87
  L 318.19 430.42
  A 0.40 0.40 0.0 0 1 317.60 430.06
  L 318.11 415.33
  A 0.40 0.40 0.0 0 1 318.77 415.04
  L 320.57 416.59
  A 0.40 0.40 0.0 0 0 320.92 416.67
  Z"
/>
<path fill="#000000" d="
  M 216.78 418.00
  Q 214.17 417.84 212.09 419.43
  Q 211.67 419.75 211.60 420.28
  L 210.54 429.37
  Q 210.50 429.75 210.11 429.75
  L 209.78 429.75
  Q 209.31 429.75 209.33 429.28
  L 209.67 417.49
  A 0.86 0.85 -8.4 0 1 210.26 416.71
  Q 213.93 415.47 217.79 415.78
  A 1.21 1.20 75.2 0 1 218.72 416.33
  C 221.08 420.00 220.16 424.89 219.70 428.99
  Q 219.58 430.05 218.71 430.00
  A 0.76 0.76 0.0 0 1 218.00 429.16
  C 218.29 426.51 219.03 420.81 217.60 418.49
  A 1.03 1.02 -14.0 0 0 216.78 418.00
  Z"
/>
<path fill="#000000" d="
  M 267.80 416.29
  C 268.56 420.49 267.83 427.68 273.91 427.79
  Q 274.42 427.80 274.52 427.30
  Q 275.60 421.84 274.93 416.35
  Q 274.85 415.75 275.46 415.75
  L 277.04 415.75
  Q 277.77 415.75 277.67 416.47
  L 276.10 428.48
  Q 275.99 429.25 275.22 429.29
  L 270.94 429.56
  Q 270.44 429.59 270.03 429.29
  C 267.31 427.30 267.03 422.51 266.47 419.35
  A 1.12 1.11 -14.8 0 0 265.00 418.50
  Q 262.55 419.35 260.16 418.57
  Q 259.62 418.39 259.56 418.96
  Q 258.98 424.39 258.47 429.75
  Q 258.38 430.65 257.41 430.14
  Q 256.92 429.88 256.97 429.32
  L 258.15 416.55
  A 0.57 0.57 0.0 0 1 258.69 416.04
  L 267.17 415.77
  Q 267.71 415.76 267.80 416.29
  Z"
/>
<rect fill="#000000" x="-0.79" y="-6.80" transform="translate(282.13,423.17) rotate(-4.4)" width="1.58" height="13.60" rx="0.54"/>
<path fill="#fdfeff" d="
  M 305.31 420.29
  A 0.47 0.47 0.0 0 1 304.79 419.87
  L 304.78 419.71
  A 3.03 2.87 -5.7 0 1 307.51 416.55
  L 308.54 416.45
  A 3.03 2.87 -5.7 0 1 311.84 419.00
  L 311.86 419.16
  A 0.47 0.47 0.0 0 1 311.44 419.68
  L 305.31 420.29
  Z"
/>
<rect fill="#000000" x="-1.03" y="-6.85" transform="translate(328.61,423.43) rotate(1.6)" width="2.06" height="13.70" rx="0.26"/>
<path fill="#fdfeff" d="
  M 178.65 418.10
  C 185.06 422.72 175.63 432.35 172.58 427.17
  C 169.99 422.78 171.50 412.93 178.65 418.10
  Z"
/>
<rect fill="#000000" x="-2.71" y="-0.64" transform="translate(140.73,429.13) rotate(-2.1)" width="5.42" height="1.28" rx="0.53"/>
</svg>
