<?xml version="1.0" encoding="UTF-8" standalone="no"?>
<!DOCTYPE svg PUBLIC "-//W3C//DTD SVG 1.1//EN" "http://www.w3.org/Graphics/SVG/1.1/DTD/svg11.dtd">
<svg xmlns="http://www.w3.org/2000/svg" version="1.1" viewBox="0.00 0.00 512.00 512.00">
<g stroke-width="2.00" fill="none" stroke-linecap="butt">
<path stroke="#8c9ba8" vector-effect="non-scaling-stroke" d="
  M 237.27 271.68
  L 211.61 246.80
  Q 211.24 246.45 210.74 246.51
  L 187.09 249.53
  Q 186.54 249.60 186.24 249.13
  L 136.61 171.11
  Q 136.35 170.71 136.69 170.38
  L 171.00 136.87
  Q 171.39 136.49 171.86 136.78
  L 250.62 185.57
  Q 251.10 185.88 251.05 186.45
  L 248.75 209.28
  Q 248.70 209.80 249.07 210.17
  L 273.17 234.24"
/>
<path stroke="#8b7b58" vector-effect="non-scaling-stroke" d="
  M 273.17 234.24
  Q 274.01 235.52 275.44 236.40
  Q 275.92 236.70 276.33 236.30
  L 322.43 190.20
  Q 322.80 189.82 322.68 189.30
  Q 311.96 142.29 341.54 105.22
  A 0.30 0.30 0.0 0 0 341.23 104.75
  L 312.19 112.41
  Q 311.69 112.54 311.40 112.11
  Q 294.46 86.92 268.61 71.01
  Q 267.76 70.48 267.97 69.51
  L 275.66 33.39
  Q 275.78 32.82 275.24 32.62
  L 241.30 19.51
  Q 240.73 19.30 240.42 19.82
  L 222.27 50.77
  Q 221.46 52.15 219.89 51.85
  C 199.44 47.86 181.46 49.24 160.84 52.73
  Q 160.26 52.83 159.93 52.33
  L 139.82 21.34
  Q 139.51 20.87 139.00 21.09
  L 104.92 35.80
  A 0.67 0.66 71.6 0 0 104.54 36.58
  L 113.85 72.19
  Q 113.96 72.63 113.58 72.88
  Q 88.50 89.73 72.67 115.46
  A 1.84 1.84 0.0 0 1 70.72 116.29
  L 34.83 108.66
  Q 34.29 108.55 34.09 109.06
  L 20.96 142.98
  Q 20.71 143.62 21.31 143.97
  L 53.02 162.50
  A 0.95 0.95 0.0 0 1 53.47 163.50
  C 49.28 184.09 50.73 202.98 54.18 223.54
  A 0.81 0.78 69.3 0 1 53.83 224.35
  L 22.91 244.46
  A 0.81 0.81 0.0 0 0 22.60 245.46
  L 37.24 279.34
  Q 37.48 279.89 38.05 279.74
  L 73.30 270.56
  A 1.48 1.47 66.5 0 1 74.93 271.21
  Q 89.36 294.47 113.51 307.77
  Q 116.62 309.48 118.38 310.75
  Q 118.77 311.03 118.66 311.51
  L 114.10 332.01
  A 0.27 0.27 0.0 0 0 114.51 332.30
  Q 149.74 309.98 190.75 319.79
  A 0.89 0.88 -60.3 0 0 191.57 319.56
  L 237.70 273.42
  A 0.99 0.98 42.0 0 0 237.62 271.96
  L 237.27 271.68"
/>
<path stroke="#fedfaf" vector-effect="non-scaling-stroke" d="
  M 273.17 234.24
  C 302.48 176.49 266.43 106.79 201.62 99.70
  C 138.41 92.78 87.46 149.79 101.15 211.61
  C 114.73 272.92 183.13 301.58 237.27 271.68"
/>
<path stroke="#8c9ba8" vector-effect="non-scaling-stroke" d="
  M 430.82 221.18
  L 360.61 151.03
  A 0.37 0.37 0.0 0 1 360.61 150.51
  L 424.21 86.91
  Q 424.71 86.41 424.02 86.24
  Q 421.14 85.53 417.50 85.50
  C 359.71 84.94 319.16 139.64 338.64 194.80
  Q 338.82 195.30 338.44 195.68
  L 285.75 248.38
  Q 285.37 248.75 285.75 249.13
  L 333.06 296.44
  A 0.27 0.27 0.0 0 0 333.44 296.44
  L 386.21 243.67
  Q 386.60 243.27 387.13 243.45
  C 420.76 254.72 457.42 244.41 479.17 216.56
  C 491.84 200.32 498.47 178.82 495.68 158.00
  Q 495.58 157.30 495.08 157.80
  L 431.69 221.18
  Q 431.25 221.62 430.82 221.18"
/>
<path stroke="#8c9ba8" vector-effect="non-scaling-stroke" d="
  M 232.72 194.80
  A 0.32 0.32 0.0 0 0 232.57 194.49
  L 173.18 157.30
  A 0.32 0.32 0.0 0 0 172.78 157.34
  L 157.20 172.92
  A 0.32 0.32 0.0 0 0 157.16 173.32
  L 194.38 232.69
  A 0.32 0.32 0.0 0 0 194.70 232.84
  L 216.65 229.71
  A 0.32 0.32 0.0 0 1 216.92 229.80
  L 339.27 352.14
  A 0.32 0.32 0.0 0 0 339.73 352.14
  L 352.78 339.11
  A 0.32 0.32 0.0 0 0 352.78 338.65
  L 230.47 216.34
  A 0.32 0.32 0.0 0 1 230.38 216.08
  L 232.72 194.80"
/>
<path stroke="#8c9ba8" vector-effect="non-scaling-stroke" d="
  M 242.74 386.30
  L 296.99 332.85
  Q 297.36 332.48 296.99 332.12
  L 250.06 285.19
  A 0.79 0.79 0.0 0 0 248.94 285.19
  L 195.67 338.45
  Q 195.28 338.85 194.75 338.67
  C 137.02 319.57 80.98 363.53 85.94 423.83
  Q 86.05 425.08 86.93 424.19
  L 150.32 360.81
  Q 150.64 360.49 150.96 360.81
  L 221.17 430.85
  Q 221.60 431.28 221.17 431.70
  L 158.07 494.81
  A 1.01 1.01 0.0 0 0 158.74 496.53
  Q 192.16 498.24 216.81 478.75
  C 240.37 460.11 250.98 429.95 245.98 400.49
  Q 245.31 396.52 242.51 387.22
  Q 242.34 386.69 242.74 386.30"
/>
<path stroke="#854b51" vector-effect="non-scaling-stroke" d="
  M 331.20 386.69
  C 343.64 386.90 354.35 386.21 365.92 392.09
  C 378.84 398.65 386.76 414.75 387.31 428.41
  Q 387.33 428.92 387.69 429.27
  Q 409.02 450.73 430.46 472.06
  C 441.53 483.08 448.60 490.34 463.18 488.93
  C 483.86 486.92 497.01 465.16 487.04 446.10
  Q 484.98 442.16 477.00 434.15
  Q 453.83 410.89 430.56 387.71
  A 1.23 1.23 0.0 0 0 429.74 387.35
  Q 410.65 386.33 398.82 373.41
  C 387.62 361.19 386.82 346.97 387.29 331.68
  A 1.88 1.88 0.0 0 0 384.08 330.30
  L 330.19 384.19
  A 1.46 1.46 0.0 0 0 331.20 386.69"
/>
<path stroke="#8c9ba8" vector-effect="non-scaling-stroke" d="
  M 344.5046 226.3916
  A 0.36 0.36 0.0 0 0 343.9954 226.3916
  L 333.2616 237.1254
  A 0.36 0.36 0.0 0 0 333.2616 237.6346
  L 343.9954 248.3684
  A 0.36 0.36 0.0 0 0 344.5046 248.3684
  L 355.2384 237.6346
  A 0.36 0.36 0.0 0 0 355.2384 237.1254
  L 344.5046 226.3916"
/>
<path stroke="#8c9ba8" vector-effect="non-scaling-stroke" d="
  M 248.5626 343.8173
  A 0.27 0.27 0.0 0 0 248.5626 343.4354
  L 237.8146 332.6874
  A 0.27 0.27 0.0 0 0 237.4327 332.6874
  L 226.5574 343.5627
  A 0.27 0.27 0.0 0 0 226.5574 343.9446
  L 237.3054 354.6926
  A 0.27 0.27 0.0 0 0 237.6873 354.6926
  L 248.5626 343.8173"
/>
</g>
<path fill="#193651" d="
  M 0.00 151.50
  Q 0.00 151.39 0.00 151.28
  L 23.59 91.73
  A 0.94 0.93 16.9 0 1 24.66 91.17
  L 63.26 99.69
  A 0.85 0.85 0.0 0 0 64.10 99.39
  C 72.90 88.27 81.86 78.39 94.46 68.42
  Q 94.91 68.07 94.77 67.51
  L 84.69 28.82
  A 0.94 0.94 0.0 0 1 85.23 27.72
  L 143.40 2.10
  Q 144.28 1.72 144.82 2.52
  L 167.11 35.61
  Q 167.41 36.06 167.94 35.98
  Q 189.62 32.82 211.40 35.25
  A 0.87 0.86 -71.0 0 0 212.25 34.83
  L 232.52 0.54
  A 0.54 0.53 25.7 0 1 233.19 0.31
  L 292.54 23.76
  Q 293.31 24.06 293.13 24.87
  L 284.67 63.36
  A 0.93 0.93 0.0 0 0 285.01 64.30
  Q 302.40 77.48 315.96 94.59
  Q 316.32 95.03 316.86 94.89
  L 355.33 84.88
  Q 356.30 84.62 356.65 85.57
  L 357.58 88.05
  Q 357.82 88.70 358.38 88.29
  Q 386.34 68.01 420.25 69.76
  C 431.83 70.36 443.98 73.47 455.29 77.30
  A 0.39 0.39 0.0 0 1 455.44 77.94
  L 382.81 150.56
  A 0.27 0.27 0.0 0 0 382.81 150.94
  L 430.31 198.44
  A 0.28 0.28 0.0 0 0 430.69 198.44
  L 503.19 125.93
  Q 503.72 125.40 503.97 126.11
  C 507.34 136.06 510.27 146.62 511.26 156.83
  C 516.79 214.03 474.17 261.95 416.69 263.95
  Q 407.64 264.27 392.09 260.75
  Q 391.51 260.62 391.10 261.03
  L 344.81 307.31
  Q 344.38 307.74 344.81 308.18
  L 363.96 327.36
  Q 364.38 327.77 364.77 327.34
  C 368.03 323.67 372.56 318.40 375.12 316.19
  C 383.51 308.95 397.95 312.54 401.86 322.71
  C 405.09 331.08 401.81 341.92 404.41 351.21
  Q 408.75 366.74 424.88 370.31
  C 428.02 371.01 431.98 370.59 435.59 370.81
  A 1.38 1.34 -20.6 0 1 436.46 371.19
  Q 465.30 399.30 494.15 427.34
  C 506.75 439.59 511.03 459.44 504.42 475.93
  C 491.77 507.50 452.91 514.93 428.87 491.12
  Q 400.62 463.14 372.59 434.91
  A 1.16 1.15 22.8 0 1 372.24 434.06
  Q 372.28 430.44 372.21 427.02
  C 371.97 415.10 364.06 406.23 352.97 403.07
  C 347.01 401.36 338.52 402.05 331.51 401.74
  C 321.40 401.29 313.84 394.36 313.95 384.19
  C 314.06 374.76 320.87 369.38 327.06 363.29
  A 0.77 0.77 0.0 0 0 327.06 362.19
  L 308.12 343.25
  Q 307.75 342.87 307.37 343.25
  L 260.43 390.18
  Q 259.76 390.86 259.96 391.80
  C 268.67 431.51 253.67 471.58 220.26 494.73
  C 191.42 514.72 158.37 515.75 125.94 503.99
  Q 125.35 503.78 125.80 503.33
  L 198.19 430.94
  A 0.45 0.45 0.0 0 0 198.19 430.31
  L 150.94 383.06
  A 0.45 0.45 0.0 0 0 150.31 383.06
  L 77.69 455.68
  A 0.20 0.19 56.7 0 1 77.37 455.61
  C 63.97 420.20 67.10 384.06 91.10 354.17
  Q 92.51 352.42 92.96 350.32
  Q 96.25 335.28 99.51 320.27
  Q 99.63 319.73 99.19 319.39
  Q 81.83 306.15 68.20 289.09
  A 0.89 0.88 -26.8 0 0 67.28 288.79
  L 28.76 298.81
  A 1.03 1.03 0.0 0 1 27.56 298.22
  L 1.95 240.03
  Q 1.60 239.24 2.32 238.78
  L 35.47 217.23
  Q 35.94 216.92 35.86 216.37
  Q 32.64 194.98 35.08 173.47
  A 1.75 1.74 18.8 0 0 34.24 171.77
  L 0.00 151.50
  Z
  M 237.27 271.68
  L 211.61 246.80
  Q 211.24 246.45 210.74 246.51
  L 187.09 249.53
  Q 186.54 249.60 186.24 249.13
  L 136.61 171.11
  Q 136.35 170.71 136.69 170.38
  L 171.00 136.87
  Q 171.39 136.49 171.86 136.78
  L 250.62 185.57
  Q 251.10 185.88 251.05 186.45
  L 248.75 209.28
  Q 248.70 209.80 249.07 210.17
  L 273.17 234.24
  Q 274.01 235.52 275.44 236.40
  Q 275.92 236.70 276.33 236.30
  L 322.43 190.20
  Q 322.80 189.82 322.68 189.30
  Q 311.96 142.29 341.54 105.22
  A 0.30 0.30 0.0 0 0 341.23 104.75
  L 312.19 112.41
  Q 311.69 112.54 311.40 112.11
  Q 294.46 86.92 268.61 71.01
  Q 267.76 70.48 267.97 69.51
  L 275.66 33.39
  Q 275.78 32.82 275.24 32.62
  L 241.30 19.51
  Q 240.73 19.30 240.42 19.82
  L 222.27 50.77
  Q 221.46 52.15 219.89 51.85
  C 199.44 47.86 181.46 49.24 160.84 52.73
  Q 160.26 52.83 159.93 52.33
  L 139.82 21.34
  Q 139.51 20.87 139.00 21.09
  L 104.92 35.80
  A 0.67 0.66 71.6 0 0 104.54 36.58
  L 113.85 72.19
  Q 113.96 72.63 113.58 72.88
  Q 88.50 89.73 72.67 115.46
  A 1.84 1.84 0.0 0 1 70.72 116.29
  L 34.83 108.66
  Q 34.29 108.55 34.09 109.06
  L 20.96 142.98
  Q 20.71 143.62 21.31 143.97
  L 53.02 162.50
  A 0.95 0.95 0.0 0 1 53.47 163.50
  C 49.28 184.09 50.73 202.98 54.18 223.54
  A 0.81 0.78 69.3 0 1 53.83 224.35
  L 22.91 244.46
  A 0.81 0.81 0.0 0 0 22.60 245.46
  L 37.24 279.34
  Q 37.48 279.89 38.05 279.74
  L 73.30 270.56
  A 1.48 1.47 66.5 0 1 74.93 271.21
  Q 89.36 294.47 113.51 307.77
  Q 116.62 309.48 118.38 310.75
  Q 118.77 311.03 118.66 311.51
  L 114.10 332.01
  A 0.27 0.27 0.0 0 0 114.51 332.30
  Q 149.74 309.98 190.75 319.79
  A 0.89 0.88 -60.3 0 0 191.57 319.56
  L 237.70 273.42
  A 0.99 0.98 42.0 0 0 237.62 271.96
  L 237.27 271.68
  Z
  M 430.82 221.18
  L 360.61 151.03
  A 0.37 0.37 0.0 0 1 360.61 150.51
  L 424.21 86.91
  Q 424.71 86.41 424.02 86.24
  Q 421.14 85.53 417.50 85.50
  C 359.71 84.94 319.16 139.64 338.64 194.80
  Q 338.82 195.30 338.44 195.68
  L 285.75 248.38
  Q 285.37 248.75 285.75 249.13
  L 333.06 296.44
  A 0.27 0.27 0.0 0 0 333.44 296.44
  L 386.21 243.67
  Q 386.60 243.27 387.13 243.45
  C 420.76 254.72 457.42 244.41 479.17 216.56
  C 491.84 200.32 498.47 178.82 495.68 158.00
  Q 495.58 157.30 495.08 157.80
  L 431.69 221.18
  Q 431.25 221.62 430.82 221.18
  Z
  M 232.72 194.80
  A 0.32 0.32 0.0 0 0 232.57 194.49
  L 173.18 157.30
  A 0.32 0.32 0.0 0 0 172.78 157.34
  L 157.20 172.92
  A 0.32 0.32 0.0 0 0 157.16 173.32
  L 194.38 232.69
  A 0.32 0.32 0.0 0 0 194.70 232.84
  L 216.65 229.71
  A 0.32 0.32 0.0 0 1 216.92 229.80
  L 339.27 352.14
  A 0.32 0.32 0.0 0 0 339.73 352.14
  L 352.78 339.11
  A 0.32 0.32 0.0 0 0 352.78 338.65
  L 230.47 216.34
  A 0.32 0.32 0.0 0 1 230.38 216.08
  L 232.72 194.80
  Z
  M 242.74 386.30
  L 296.99 332.85
  Q 297.36 332.48 296.99 332.12
  L 250.06 285.19
  A 0.79 0.79 0.0 0 0 248.94 285.19
  L 195.67 338.45
  Q 195.28 338.85 194.75 338.67
  C 137.02 319.57 80.98 363.53 85.94 423.83
  Q 86.05 425.08 86.93 424.19
  L 150.32 360.81
  Q 150.64 360.49 150.96 360.81
  L 221.17 430.85
  Q 221.60 431.28 221.17 431.70
  L 158.07 494.81
  A 1.01 1.01 0.0 0 0 158.74 496.53
  Q 192.16 498.24 216.81 478.75
  C 240.37 460.11 250.98 429.95 245.98 400.49
  Q 245.31 396.52 242.51 387.22
  Q 242.34 386.69 242.74 386.30
  Z
  M 331.20 386.69
  C 343.64 386.90 354.35 386.21 365.92 392.09
  C 378.84 398.65 386.76 414.75 387.31 428.41
  Q 387.33 428.92 387.69 429.27
  Q 409.02 450.73 430.46 472.06
  C 441.53 483.08 448.60 490.34 463.18 488.93
  C 483.86 486.92 497.01 465.16 487.04 446.10
  Q 484.98 442.16 477.00 434.15
  Q 453.83 410.89 430.56 387.71
  A 1.23 1.23 0.0 0 0 429.74 387.35
  Q 410.65 386.33 398.82 373.41
  C 387.62 361.19 386.82 346.97 387.29 331.68
  A 1.88 1.88 0.0 0 0 384.08 330.30
  L 330.19 384.19
  A 1.46 1.46 0.0 0 0 331.20 386.69
  Z"
/>
<path fill="#fdbf5e" d="
  M 273.17 234.24
  C 302.48 176.49 266.43 106.79 201.62 99.70
  C 138.41 92.78 87.46 149.79 101.15 211.61
  C 114.73 272.92 183.13 301.58 237.27 271.68
  L 237.62 271.96
  A 0.99 0.98 42.0 0 1 237.70 273.42
  L 191.57 319.56
  A 0.89 0.88 -60.3 0 1 190.75 319.79
  Q 149.74 309.98 114.51 332.30
  A 0.27 0.27 0.0 0 1 114.10 332.01
  L 118.66 311.51
  Q 118.77 311.03 118.38 310.75
  Q 116.62 309.48 113.51 307.77
  Q 89.36 294.47 74.93 271.21
  A 1.48 1.47 66.5 0 0 73.30 270.56
  L 38.05 279.74
  Q 37.48 279.89 37.24 279.34
  L 22.60 245.46
  A 0.81 0.81 0.0 0 1 22.91 244.46
  L 53.83 224.35
  A 0.81 0.78 69.3 0 0 54.18 223.54
  C 50.73 202.98 49.28 184.09 53.47 163.50
  A 0.95 0.95 0.0 0 0 53.02 162.50
  L 21.31 143.97
  Q 20.71 143.62 20.96 142.98
  L 34.09 109.06
  Q 34.29 108.55 34.83 108.66
  L 70.72 116.29
  A 1.84 1.84 0.0 0 0 72.67 115.46
  Q 88.50 89.73 113.58 72.88
  Q 113.96 72.63 113.85 72.19
  L 104.54 36.58
  A 0.67 0.66 71.6 0 1 104.92 35.80
  L 139.00 21.09
  Q 139.51 20.87 139.82 21.34
  L 159.93 52.33
  Q 160.26 52.83 160.84 52.73
  C 181.46 49.24 199.44 47.86 219.89 51.85
  Q 221.46 52.15 222.27 50.77
  L 240.42 19.82
  Q 240.73 19.30 241.30 19.51
  L 275.24 32.62
  Q 275.78 32.82 275.66 33.39
  L 267.97 69.51
  Q 267.76 70.48 268.61 71.01
  Q 294.46 86.92 311.40 112.11
  Q 311.69 112.54 312.19 112.41
  L 341.23 104.75
  A 0.30 0.30 0.0 0 1 341.54 105.22
  Q 311.96 142.29 322.68 189.30
  Q 322.80 189.82 322.43 190.20
  L 276.33 236.30
  Q 275.92 236.70 275.44 236.40
  Q 274.01 235.52 273.17 234.24
  Z"
/>
<path fill="#ffffff" d="
  M 360.61 151.03
  L 430.82 221.18
  Q 431.25 221.62 431.69 221.18
  L 495.08 157.80
  Q 495.58 157.30 495.68 158.00
  C 498.47 178.82 491.84 200.32 479.17 216.56
  C 457.42 244.41 420.76 254.72 387.13 243.45
  Q 386.60 243.27 386.21 243.67
  L 333.44 296.44
  A 0.27 0.27 0.0 0 1 333.06 296.44
  L 285.75 249.13
  Q 285.37 248.75 285.75 248.38
  L 338.44 195.68
  Q 338.82 195.30 338.64 194.80
  C 319.16 139.64 359.71 84.94 417.50 85.50
  Q 421.14 85.53 424.02 86.24
  Q 424.71 86.41 424.21 86.91
  L 360.61 150.51
  A 0.37 0.37 0.0 0 0 360.61 151.03
  Z
  M 344.5046 226.3916
  A 0.36 0.36 0.0 0 0 343.9954 226.3916
  L 333.2616 237.1254
  A 0.36 0.36 0.0 0 0 333.2616 237.6346
  L 343.9954 248.3684
  A 0.36 0.36 0.0 0 0 344.5046 248.3684
  L 355.2384 237.6346
  A 0.36 0.36 0.0 0 0 355.2384 237.1254
  L 344.5046 226.3916
  Z"
/>
<path fill="#ffffff" d="
  M 273.17 234.24
  L 249.07 210.17
  Q 248.70 209.80 248.75 209.28
  L 251.05 186.45
  Q 251.10 185.88 250.62 185.57
  L 171.86 136.78
  Q 171.39 136.49 171.00 136.87
  L 136.69 170.38
  Q 136.35 170.71 136.61 171.11
  L 186.24 249.13
  Q 186.54 249.60 187.09 249.53
  L 210.74 246.51
  Q 211.24 246.45 211.61 246.80
  L 237.27 271.68
  C 183.13 301.58 114.73 272.92 101.15 211.61
  C 87.46 149.79 138.41 92.78 201.62 99.70
  C 266.43 106.79 302.48 176.49 273.17 234.24
  Z"
/>
<path fill="#ffffff" d="
  M 232.72 194.80
  L 230.38 216.08
  A 0.32 0.32 0.0 0 0 230.47 216.34
  L 352.78 338.65
  A 0.32 0.32 0.0 0 1 352.78 339.11
  L 339.73 352.14
  A 0.32 0.32 0.0 0 1 339.27 352.14
  L 216.92 229.80
  A 0.32 0.32 0.0 0 0 216.65 229.71
  L 194.70 232.84
  A 0.32 0.32 0.0 0 1 194.38 232.69
  L 157.16 173.32
  A 0.32 0.32 0.0 0 1 157.20 172.92
  L 172.78 157.34
  A 0.32 0.32 0.0 0 1 173.18 157.30
  L 232.57 194.49
  A 0.32 0.32 0.0 0 1 232.72 194.80
  Z"
/>
<rect fill="#193651" x="-7.95" y="-7.95" transform="translate(344.25,237.38) rotate(-45.0)" width="15.90" height="15.90" rx="0.36"/>
<path fill="#ffffff" d="
  M 296.99 332.85
  L 242.74 386.30
  Q 242.34 386.69 242.51 387.22
  Q 245.31 396.52 245.98 400.49
  C 250.98 429.95 240.37 460.11 216.81 478.75
  Q 192.16 498.24 158.74 496.53
  A 1.01 1.01 0.0 0 1 158.07 494.81
  L 221.17 431.70
  Q 221.60 431.28 221.17 430.85
  L 150.96 360.81
  Q 150.64 360.49 150.32 360.81
  L 86.93 424.19
  Q 86.05 425.08 85.94 423.83
  C 80.98 363.53 137.02 319.57 194.75 338.67
  Q 195.28 338.85 195.67 338.45
  L 248.94 285.19
  A 0.79 0.79 0.0 0 1 250.06 285.19
  L 296.99 332.12
  Q 297.36 332.48 296.99 332.85
  Z
  M 248.5626 343.8173
  A 0.27 0.27 0.0 0 0 248.5626 343.4354
  L 237.8146 332.6874
  A 0.27 0.27 0.0 0 0 237.4327 332.6874
  L 226.5574 343.5627
  A 0.27 0.27 0.0 0 0 226.5574 343.9446
  L 237.3054 354.6926
  A 0.27 0.27 0.0 0 0 237.6873 354.6926
  L 248.5626 343.8173
  Z"
/>
<path fill="#f16051" d="
  M 331.20 386.69
  A 1.46 1.46 0.0 0 1 330.19 384.19
  L 384.08 330.30
  A 1.88 1.88 0.0 0 1 387.29 331.68
  C 386.82 346.97 387.62 361.19 398.82 373.41
  Q 410.65 386.33 429.74 387.35
  A 1.23 1.23 0.0 0 1 430.56 387.71
  Q 453.83 410.89 477.00 434.15
  Q 484.98 442.16 487.04 446.10
  C 497.01 465.16 483.86 486.92 463.18 488.93
  C 448.60 490.34 441.53 483.08 430.46 472.06
  Q 409.02 450.73 387.69 429.27
  Q 387.33 428.92 387.31 428.41
  C 386.76 414.75 378.84 398.65 365.92 392.09
  C 354.35 386.21 343.64 386.90 331.20 386.69
  Z"
/>
<rect fill="#193651" x="-7.87" y="-7.96" transform="translate(237.56,343.69) rotate(45.0)" width="15.74" height="15.92" rx="0.27"/>
</svg>
