<svg xmlns="http://www.w3.org/2000/svg" xmlns:xlink="http://www.w3.org/1999/xlink" viewBox="0 0 360 357.56"><defs><style>.a{fill:#c67b88;}.b,.c,.j,.k{stroke:#000;}.b,.c,.g,.h,.i,.j,.k{stroke-miterlimit:10;}.c,.g,.i{fill:none;}.d{fill:#1a1a1a;}.e{fill:#333;}.f{fill:#e69988;}.g{stroke:url(#a);}.h{fill:#a67c52;stroke-width:2px;stroke:url(#b);}.i{stroke:url(#c);}.j{fill:#fff;}.k{fill:#006837;}</style><linearGradient id="a" x1="189.14" y1="177.46" x2="275.77" y2="177.46" gradientUnits="userSpaceOnUse"><stop offset="0" stop-color="#fff"/><stop offset="1"/></linearGradient><linearGradient id="b" x1="162.72" y1="154.48" x2="193.23" y2="154.48" xlink:href="#a"/><linearGradient id="c" x1="81.87" y1="178.67" x2="168.49" y2="178.67" xlink:href="#a"/></defs><path class="a" d="M95.39,171.81c-1.49-2.25-5.26-8-9.39-7.46-2.2.27-3.82,2.14-4.53,3.19A16.78,16.78,0,0,0,78.68,178c.38,5.48,3.42,10.43,4.39,15.84.17.94.27,1.89.35,2.84.2,2.64.27,4.56.27,4.77.08,3.86,8.35,34.24,14.74,33.44C106.22,233.92,105.65,187.35,95.39,171.81Z" transform="translate(0 -3)"/><path d="M96.69,171.06c-1.73-2.62-3.65-5.33-6.34-7a6.93,6.93,0,0,0-9.15,1.44,17.41,17.41,0,0,0-4.06,11.68c.08,4.61,2,8.81,3.44,13.1,1.21,3.71,1.38,7.41,1.61,11.27a27.34,27.34,0,0,0,.73,4.2,123.52,123.52,0,0,0,4.33,14.6c1.67,4.63,3.5,9.65,6.65,13.51,1.94,2.36,5.1,3.71,7.37,1s2.86-7.07,3.32-10.56a97,97,0,0,0,.55-16.43,124.86,124.86,0,0,0-2.06-18.39,60.37,60.37,0,0,0-4.82-15.59,27,27,0,0,0-1.57-2.77c-1-1.61-3.65-.11-2.59,1.51a41.46,41.46,0,0,1,5,12.63,105.58,105.58,0,0,1,2.66,16.48,120.35,120.35,0,0,1,.37,16.44,45.54,45.54,0,0,1-1.83,12.12,8.93,8.93,0,0,1-.71,1.7,7.85,7.85,0,0,1-.44.73c-.19.29.11-.1-.06.09l-.27.3-.25.23s.23-.17,0,0c-.06,0-.36.18-.12.08s-.11,0-.18,0c-.33,0,.29,0,0,0s0,0-.07,0a1.61,1.61,0,0,1-.36-.1c.35.14-.08,0-.16-.09a10.53,10.53,0,0,1-2.82-3.31,44.05,44.05,0,0,1-3-6.08A120.09,120.09,0,0,1,87,209.51c-.52-1.9-1-3.81-1.41-5.74-.13-.63-.26-1.26-.34-1.89.06.42,0-.15,0-.29,0-.31,0-.62,0-.93a42,42,0,0,0-2-12.24c-1.35-3.92-3.12-7.87-3-12.11.11-3.36,1.4-7.75,4.32-9.77s5.68.86,7.45,3a36.34,36.34,0,0,1,2.18,3C95.16,174.17,97.76,172.67,96.69,171.06Z" transform="translate(0 -3)"/><path class="a" d="M257.33,175.51a18.78,18.78,0,0,1,5.9-4.24c1.47-.67,5.31-2.55,6.46-.91a4.64,4.64,0,0,1,.64,2.44c.92,14.32-6.16,27.92-7.82,42.18-.42,3.59.3,7.39-1.63,12.26-1.81,4.56-5.53,9.84-7.39,9.39C250.84,236,250.19,223.37,257.33,175.51Z" transform="translate(0 -3)"/><path d="M258.39,176.57a20.13,20.13,0,0,1,6.67-4.49c.76-.33,2.36-1.17,3.22-.87s.61,2.63.63,3.37c.13,7.2-1.67,14.22-3.56,21.11-1.81,6.63-4,13.41-4.43,20.3-.2,3.06,0,6.09-.88,9.07a23.65,23.65,0,0,1-4.43,8.36,9.05,9.05,0,0,1-1.25,1.3c-.19.16-.57.42-.57.43s.47.19.14,0c.51.22.17,0,0,0,.56.2.06.32.07.08,0,0-.12-.23-.15-.27-.2-.32.1.3,0,0,0-.1-.07-.19-.1-.29-.08-.27-.16-.55-.22-.83s-.11-.57-.16-.86c-.08-.5,0,.18,0-.22,0-.2-.05-.39-.06-.59-.53-5.55,0-11.26.5-16.8,1.14-13.22,3-26.39,5-39.51.28-1.89-2.61-2.7-2.9-.8-1.93,13-3.77,25.95-5,39-.55,6-1.23,12.33-.58,18.4a10.25,10.25,0,0,0,1,4.11c1.2,2.09,3.45,1.66,5.12.22a22.57,22.57,0,0,0,5.25-7.8,25.8,25.8,0,0,0,2.1-10.26c.17-7.49,2.32-14.69,4.29-21.86,2-7.42,4-15,3.77-22.79,0-1.61,0-3.55-1.14-4.84a3.63,3.63,0,0,0-3.29-1,18.43,18.43,0,0,0-7,2.81,22.41,22.41,0,0,0-4.14,3.38C254.92,175.84,257,178,258.39,176.57Z" transform="translate(0 -3)"/><path d="M64.38,248.27a24.8,24.8,0,0,1,3.89-11.9A40,40,0,0,0,66,242.14C65.32,244.15,64.85,246.21,64.38,248.27Z" transform="translate(0 -3)"/><path d="M65.88,248.27a23.52,23.52,0,0,1,3.69-11.14L67,235.61a55.6,55.6,0,0,0-4,12.26,1.5,1.5,0,1,0,2.9.8,51.21,51.21,0,0,1,3.74-11.54,1.56,1.56,0,0,0-.54-2.06,1.54,1.54,0,0,0-2.06.54,26.73,26.73,0,0,0-4.09,12.66,1.5,1.5,0,0,0,3,0Z" transform="translate(0 -3)"/><path d="M89.26,216.72c-.55.32-14.13,8.3-21,19.65A41.12,41.12,0,0,1,89.26,216.72Z" transform="translate(0 -3)"/><path d="M88.5,215.42a69.75,69.75,0,0,0-16.09,13A47.89,47.89,0,0,0,67,235.61l2.6,1.52a39.74,39.74,0,0,1,20.09-19,1.57,1.57,0,0,0,1-1.85,1.51,1.51,0,0,0-1.85-1A43,43,0,0,0,67,235.61a1.51,1.51,0,0,0,2.6,1.52,53.63,53.63,0,0,1,12.62-13.66A64.82,64.82,0,0,1,90,218,1.51,1.51,0,0,0,88.5,215.42Z" transform="translate(0 -3)"/><path d="M121.24,244l9.29,65.55c-.33-2.08-.75-4.15-1.24-6.2-.34-1.42-.84-3-2.15-3.66l-37.86-83Z" transform="translate(0 -3)"/><path d="M119.79,244.42l3.15,22.2,5,35.24,1.15,8.11,2.9-.8c-.36-2.19-.77-4.38-1.33-6.53a9.86,9.86,0,0,0-.85-2.29c-.22-.39-1.1-1.82-1.61-1.77.3,0,.29.61.17.21a3.23,3.23,0,0,0-.21-.47L126,293.64l-8.74-19.15-11.37-25L95.7,227.18l-3.43-7.51a30.09,30.09,0,0,0-1.62-3.56,1.11,1.11,0,0,1-.07-.16l-2.36,1.82,28,23.89,4,3.42c1.46,1.25,3.59-.86,2.12-2.12l-28-23.89-4-3.42A1.51,1.51,0,0,0,88,217.47l4.1,9,9.66,21.17,11.44,25.08,9.28,20.35,2.66,5.83c.21.45.39.92.62,1.35,0,.07.06.16.1.23.27.41.7.56,1,.9a4.63,4.63,0,0,1,.9,2.08c.56,2.14,1,4.34,1.32,6.53.31,1.91,3.16,1.08,2.9-.8L128.83,287l-5-35.24-1.15-8.11C122.42,241.72,119.53,242.53,119.79,244.42Z" transform="translate(0 -3)"/><path d="M130.55,309.66c.18,1.1.34,2.2.46,3.3Z" transform="translate(0 -3)"/><path d="M129.1,310.06c.11.67.21,1.33.31,2l-.06-.39c.06.43.11.86.16,1.29l3-.4-.41-2.89-.05-.41a1.55,1.55,0,0,0-.69-.9,1.61,1.61,0,0,0-1.16-.15,1.59,1.59,0,0,0-.9.69l-.15.36a1.55,1.55,0,0,0,0,.8l.41,2.89.05.41a1.55,1.55,0,0,0,.69.9,1.53,1.53,0,0,0,1,.17,1.42,1.42,0,0,0,.86-.41,1.46,1.46,0,0,0,.44-1.06c-.14-1.24-.31-2.47-.51-3.7a1.55,1.55,0,0,0-.69-.9,1.61,1.61,0,0,0-1.16-.15,1.59,1.59,0,0,0-.9.69l-.15.36A1.55,1.55,0,0,0,129.1,310.06Z" transform="translate(0 -3)"/><path class="b" d="M288,211.48" transform="translate(0 -3)"/><path class="b" d="M290,105" transform="translate(0 -3)"/><path class="c" d="M187.67,360" transform="translate(0 -3)"/><path class="d" d="M0,242.32V360l360,.56V274s-80.26-26-99-9.24-198.72-26.4-198.72-26.4A209.77,209.77,0,0,0,0,242.32Z" transform="translate(0 -3)"/><path class="a" d="M159.45,319.65c-2,5.07-28.4-11.53-28.9-2.33-1.58,29.1,7.84,38,43.74,42.33,32,3.88,41.69-23,62.31-48,10.67-12.94-28.17,6.77-31.62,7.36C170,325,200.81,304.18,159.45,319.65Z" transform="translate(0 -3)"/><path class="e" d="M256.36,224.65l-34,75.33-1.57,17.84L214.41,333l-36.1,25.07-19.22-16.73-16.85-28.53-21-26.65L97.52,237.38l-2.25-29.9L82,211.12l-41.7,57.8-26.56,44.4L105,352l27,8c27.66-2.66,63.84,2.11,95.67,0l13,.18,71.38-24.29-26.26-67,2.36-20.09s-17.23-29.13-24.37-27.66-2.76,2.36-2.76,2.36" transform="translate(0 -3)"/><path class="e" d="M185.47,376.13Z" transform="translate(0 -3)"/><path class="f" d="M102.22,92l-10.5,43.5v26l6,79.5s18.5,52.5,56,83.5c0,0,38,7,61-3,0,0,48-54.5,44.5-100l3.5-55v-60L240.22,69l-79-21.5Z" transform="translate(0 -3)"/><path class="g" d="M272,155.1s-67-6.33-79.66,2.34c0,0-9,8.66,6,40,0,0,34.33,13,57.66-4.67,0,0,10-26.67,6.34-36Z" transform="translate(0 -3)"/><line class="h" x1="162.72" y1="154.48" x2="193.23" y2="154.48"/><path class="i" d="M85.65,156.32s67-6.34,79.67,2.33c0,0,9,8.67-6,40,0,0-34.34,13-57.67-4.67,0,0-10-26.66-6.33-36Z" transform="translate(0 -3)"/><path class="j" d="M120.5,17.5" transform="translate(0 -3)"/><path class="d" d="M112.5,24c-6-4-3.5-7.89-9-2.2s-2-7.3-7,9.7-3.5,14.5-7,20S86.5,50,80,63s-7,17.5-7,20-2.5,10.5,0,12.5S76.5,121,79,126s4,14,7,19.5,2,8,1.5,13.5,1.5,3,2,10.5,4.5-5.5,4.5-7-.5-26-.5-26,2.39-5,3.19-7.5,4.81-8,5.31-10,2.5-10.5,2-12.5-3.5-9.5-3.5-9.5,4-1.35,4-2.85,4-2.17,4-2.17l5-5.83,8-1.15,4-1a11,11,0,0,0,2-4c1-3,5-7,5-7l8-5.5,13,.5,8,4s7-3,7.5-4.5,7-3.5,7-3.5l11.5,6.5,7,1.5L209,75.5a58,58,0,0,0,7.5,3.5c3,1,19,5.5,19,5.5l6.5,3s3,5.31,4,7.41,11.5,9.59,11.5,9.59v9l-2,10.5,2,10.5v7s3.5,6,3.5,7.5v8l3.5,10,4-13s-3.5-7.5-2.5-10,5.5-14,6-15.5,1.5-10.5,2-13.5.5-11,2.5-13S279,87.5,279,87.5s-3.5-11-4.5-12.5-8-13-8-13L261,52l-9.5-12-7-8L234,28.5l-2-7L225.5,18,213,10.5,205.5,7,191,9l-6-6L170,6.5l-5,3-3,3-11.5.5L145,8l-9.5.5-6,2.5S118.5,28,112.5,24Z" transform="translate(0 -3)"/><path class="j" d="M111,173.5s19.5-21,44,0C155,173.5,130.5,187,111,173.5Z" transform="translate(0 -3)"/><path class="j" d="M242.75,172.12s-19.5-21-44,0C198.75,172.12,223.25,185.62,242.75,172.12Z" transform="translate(0 -3)"/><circle class="k" cx="133" cy="168.83" r="7"/><path d="M132.86,173.48a1.5,1.5,0,0,0,0-3,1.5,1.5,0,0,0,0,3Z" transform="translate(0 -3)"/><circle class="k" cx="220.75" cy="167.46" r="7"/><path d="M220.89,172.11a1.5,1.5,0,0,0,0-3,1.5,1.5,0,0,0,0,3Z" transform="translate(0 -3)"/><path class="d" d="M170.39,238.84s-.4-.16-.18,0c0,0-.38-.25-.17-.09a4.39,4.39,0,0,1-.57-.57c-.38-.43-.71-.9-1.13-1.29a6.68,6.68,0,0,0-3.19-1.69,7.26,7.26,0,0,0-6.77,1.92,1.52,1.52,0,0,0,.67,2.51,20,20,0,0,0,6.18.34,1.54,1.54,0,0,0,1.5-1.5,1.52,1.52,0,0,0-1.5-1.5,17.73,17.73,0,0,1-5.39-.23l.67,2.5a4,4,0,0,1,.29-.29l.17-.14c-.14.1.18-.13.18-.12a2.82,2.82,0,0,1,.29-.18l.31-.16c.36-.18-.25.06.14-.05.22-.07.44-.14.66-.19l.34-.07c.17,0-.21,0,.08,0s.51,0,.76,0l.35,0c.28,0-.1,0,.07,0s.5.11.74.19l.32.11c.16.06-.16-.09.08,0l.59.34c.35.2-.16-.17.14.09l.25.24a5,5,0,0,1,.49.54,5.51,5.51,0,0,0,2.84,2.17,1.5,1.5,0,0,0,.79-2.89Z" transform="translate(0 -3)"/><path d="M191.48,242.09a3.6,3.6,0,0,0,2-.88,6.2,6.2,0,0,0,1-1.27,15.08,15.08,0,0,1,.9-1.35c-.17.2,0,0,.07-.07s.21-.25.32-.37a7.93,7.93,0,0,1,.58-.58l.17-.15c-.14.11-.17.13-.08.07l.33-.21c.15-.07.13-.07-.06,0l.2-.07c.14,0,.14,0,0,0h0c.16,0,.12,0-.13,0l.18,0c.27.05-.29-.17,0,0l-.13-.1c.11.11.09.08-.06-.11.08.14.07.1,0-.13,0,.16,0,.11,0-.14a.67.67,0,0,1,.28-.51.74.74,0,0,1,.76-.45h-.18c.25,0,.29,0,.13,0s-.61-.14-.91-.21l-2-.46a1.5,1.5,0,0,0-.8,2.9l1.82.42a8.41,8.41,0,0,0,1.84.35,2,2,0,0,0,2-1.74A2.39,2.39,0,0,0,199,235a3.18,3.18,0,0,0-3.89-.2,9.73,9.73,0,0,0-2.59,2.72l-.44.7c-.13.21-.3.4-.41.61,0,0,.19-.23.08-.11l-.15.17-.1.1-.07.06c-.08.08,0,0,.13-.09a.9.9,0,0,0-.26.17c-.16.11.29-.11.11,0s-.34.06.09,0a1.63,1.63,0,0,0-1.07.44,1.49,1.49,0,0,0-.43,1.06c0,.72.66,1.61,1.5,1.5Z" transform="translate(0 -3)"/><path d="M141.84,275.32c4.8,1.32,9.76.71,14.54-.4a67.73,67.73,0,0,1,7.43-1.71c2.72-.32,4.83.53,7.2,1.72,4.23,2.12,8.58,3.71,13.33,2.53,4.13-1,7.78-3.67,12-4.21,2.91-.37,5.88.4,8.72.92L214,275.8c1.89.35,2.7-2.54.8-2.89-5-.93-10.18-2.22-15.3-2.67-4.75-.42-8.66,1.62-12.94,3.33a15.18,15.18,0,0,1-6.21,1.34,18.13,18.13,0,0,1-7-2.16c-2.11-1-4.16-2.21-6.53-2.52a19.77,19.77,0,0,0-7.36.83c-5.48,1.41-11.19,2.92-16.82,1.37a1.5,1.5,0,0,0-.79,2.89Z" transform="translate(0 -3)"/><path d="M158.69,286.17c7,2.27,14.13,4.51,21.54,4.85a31.35,31.35,0,0,0,10.25-1,12.89,12.89,0,0,0,4.26-2.08c1-.75,1.91-2.51,3.16-2.73,1.9-.33,1.1-3.22-.8-2.89-1.43.25-2.28,1.3-3.2,2.32a8.38,8.38,0,0,1-3.64,2.31,27.63,27.63,0,0,1-10,1.11c-7.12-.32-14-2.56-20.75-4.74-1.84-.6-2.63,2.3-.79,2.89Z" transform="translate(0 -3)"/><path d="M150.06,271c4.27,1.23,8.75-.66,12.81-1.85l6.77-2c2-.57,4-1.34,6-.42,1.56.72,3,1.82,4.66,2.16,2,.38,3.65-.36,5.39-1.21,3.37-1.64,6.88-1.08,10.42-.31,4,.87,8.14,1.9,12.24.83a1.5,1.5,0,0,0-.79-2.9c-6.91,1.81-13.72-3.16-20.7-1.29-1.73.47-3.32,1.81-5.11,2-1.6.16-3.08-1.11-4.43-1.78-3.94-2-8-.08-11.94,1.06l-7.23,2.12c-2.37.68-4.81,1.39-7.25.68-1.86-.54-2.65,2.36-.8,2.9Z" transform="translate(0 -3)"/><path d="M143.23,152.71a49.65,49.65,0,0,1-19-4.2l-1.16,2.75,16.18,4.53.4-2.95c-7.65.44-15-1.82-22.23-4.07v2.9c10.33-3,21,.53,30.79,3.84v-2.89a53.2,53.2,0,0,1-22.47-.4c-6.68-1.57-13.56-4.09-20.25-1.23-1.58.68-.45,3.22,1.15,2.75,8.43-2.5,17.38-4.92,26.24-3.61,8.21,1.22,15.32,6.12,23.6,7.05,1.92.22,1.9-2.78,0-3-4.19-.47-8.14-2.12-12-3.66a48.6,48.6,0,0,0-12.09-3.46c-9-1.1-18,1.26-26.52,3.78l1.16,2.75c6.45-2.76,13.84.79,20.24,2a57,57,0,0,0,21.77-.1c1.55-.3,1.3-2.45,0-2.89-10.32-3.49-21.52-7-32.39-3.85a1.52,1.52,0,0,0,0,2.9c7.46,2.32,15.12,4.62,23,4.17a1.51,1.51,0,0,0,.39-3l-16.17-4.53c-1.58-.44-2.75,2-1.16,2.74a53.69,53.69,0,0,0,20.53,4.61c1.93,0,1.93-3,0-3Z" transform="translate(0 -3)"/><path d="M193.48,158.22q6.21-2,12.26-4.48c3.9-1.59,7.67-3.53,11.65-4.9,4.29-1.49,8.63-1.45,13.11-1.38s8.82.18,13.22.35c2.18.08,4.39.08,6.56.35,1.71.21,3.71.67,4.79,2.15l1.69-2.2a71.72,71.72,0,0,0-44.33,1.82,1.5,1.5,0,0,0,.4,2.94c3.72.41,7.39-.46,11-1.22s7.18-1.36,10.69-.07l.4-2.94q-11.82-.09-23.63-.84v3c11.71.62,24.08-3.64,35.37,1l.4-2.94c-8.65.44-16.82-3.13-25.4-3.56a24.58,24.58,0,0,0-12.22,2.45,120.62,120.62,0,0,0-11.56,7.15,1.52,1.52,0,0,0,.75,2.8,12.76,12.76,0,0,0,6.5-1.54,42.1,42.1,0,0,1,6.3-2.4,83.24,83.24,0,0,1,14.05-2.15,55.16,55.16,0,0,1,7.26-.35,49.38,49.38,0,0,1,7.55,1.17c3.79.7,8.27.65,10.92-2.61,1.21-1.48-.9-3.62-2.12-2.12-2.77,3.4-7.59,1.89-11.2,1.16-4.62-.92-9.21-.58-13.85-.11a84.68,84.68,0,0,0-13,2,37.44,37.44,0,0,0-6.26,2.27c-2,.91-3.93,1.89-6.18,1.68l.76,2.79c3.67-2.36,7.28-5,11.18-6.95a22.11,22.11,0,0,1,11.93-2.19c8.27.62,16.17,3.94,24.56,3.51a1.51,1.51,0,0,0,.4-2.95c-11.58-4.72-24.17-.43-36.17-1.07-1.94-.1-1.92,2.88,0,3q11.8.75,23.63.84c1.78,0,1.93-2.38.4-2.95-7.47-2.76-14.93,2-22.5,1.18l.4,2.95A68.94,68.94,0,0,1,256,151c1.17.33,2.5-1.11,1.7-2.2-2.17-3-5.71-3.6-9.18-3.79-4.76-.26-9.53-.39-14.3-.49s-9.45-.45-14,.45-8.56,3.07-12.7,4.84c-4.83,2.06-9.76,3.89-14.75,5.51-1.83.6-1.05,3.5.79,2.9Z" transform="translate(0 -3)"/><path d="M149.58,67.19a44.3,44.3,0,0,1-1.29-18.95c.76-5,2.25-10.8,6.81-13.6,1.64-1,.13-3.61-1.52-2.59-5.15,3.16-7.16,9.27-8.11,14.93a47.52,47.52,0,0,0,1.22,21,1.5,1.5,0,0,0,2.89-.8Z" transform="translate(0 -3)"/><path d="M149.1,66a45.3,45.3,0,0,1,5.41-22.3,13.34,13.34,0,0,1,3-4,11.14,11.14,0,0,1,4.82-2.05c3.91-.87,7.93-1.4,11.9-1.95,4.79-.66,9.6-1.16,14.42-1.55,1.91-.15,1.93-3.15,0-3a216.37,216.37,0,0,0-26.72,3.52,13.42,13.42,0,0,0-9.09,5.94A42,42,0,0,0,148,51.81,48.89,48.89,0,0,0,146.1,66a1.5,1.5,0,0,0,3,0Z" transform="translate(0 -3)"/><path d="M150.65,68c3.6-9.32,13.58-13.82,22.6-16.17,5.45-1.42,11-2.34,16.49-3.74a130,130,0,0,0,15.52-5,133.9,133.9,0,0,0,16.72-8c1.69-.94.18-3.54-1.51-2.59a129.94,129.94,0,0,1-31.53,12.67c-10.56,2.71-22,3.69-31.27,10a26,26,0,0,0-9.91,12c-.7,1.81,2.2,2.59,2.89.8Z" transform="translate(0 -3)"/><path class="c" d="M142.37,29.64c-.33-.18-.7.17-.9.48a16.42,16.42,0,0,0-2.29,9.69A49.68,49.68,0,0,0,141,49.75c1.37,5.36,1.55,12.15,4,17-2.81-2-7-4.8-9.56-7.19a36.09,36.09,0,0,1-7.2-8.87,17.74,17.74,0,0,1-2.21-11.06" transform="translate(0 -3)"/><path class="c" d="M142.21,67.52a132.09,132.09,0,0,1-17.34-10.45c-2.5-1.79-5.09-3.88-5.86-6.86" transform="translate(0 -3)"/><path class="c" d="M154.69,68.51A7.47,7.47,0,0,1,158.44,63,22.15,22.15,0,0,1,165,60.61c13.49-3.3,27.23-6.63,41.1-5.92,2,.1,4.77-.49,4.57-2.46" transform="translate(0 -3)"/><path class="c" d="M162,68c11.65-7.36,26.54-5.8,40.31-5.16a238.83,238.83,0,0,0,29.55-.45" transform="translate(0 -3)"/><path class="c" d="M180.31,66.93Q191,65,201.84,64.07a26.84,26.84,0,0,1,8.3.2c2.9.66,5.51,2.22,8.21,3.48a44.38,44.38,0,0,0,22.65,4" transform="translate(0 -3)"/><path class="c" d="M237.59,57c.89,3.81-.69,7.87-3.3,10.78a9.4,9.4,0,0,1-3.55,2.64,13,13,0,0,1-4.82.57L191,70.73c5.83-.71,12-2.16,17.83-2.87a20.55,20.55,0,0,0,6.9-1.68c1.92-1,3.54-2.58,5.6-3.25a20.53,20.53,0,0,0,2.43-.72,2.35,2.35,0,0,0,1.5-1.89" transform="translate(0 -3)"/><path class="c" d="M132.67,70.35a14.71,14.71,0,0,1-6.3,0,139.25,139.25,0,0,1-15.51-3.41,10,10,0,0,1-3.67-1.62,10.41,10.41,0,0,1-2.7-4.35" transform="translate(0 -3)"/><path class="c" d="M124.59,75.18c-10-2.56-19.17-7.56-28.22-12.51-.2-.11-.42-.26-.43-.49s.4-.34.42-.11" transform="translate(0 -3)"/></svg>